<svg xmlns="http://www.w3.org/2000/svg" viewBox="0 0 200.19 210.6"><defs><style>.cls-1{fill:#ab91df;}.cls-2,.cls-4{fill:none;stroke-miterlimit:10;}.cls-2{stroke:#000;stroke-width:2.19px;}.cls-3{fill:#78e5e1;}.cls-4{stroke:#fff;stroke-linecap:round;stroke-width:2px;}.cls-5{fill:#fff;}</style></defs><title>clock</title><g id="Layer_2" data-name="Layer 2"><g id="Layer_2-2" data-name="Layer 2"><path class="cls-1" d="M20.46,4v7.61H63.14V4c0-2.21-1.29-4-2.85-4h-37C21.74,0,20.46,1.81,20.46,4Z"/><path class="cls-1" d="M67.61,4v7.61h8.93V4c0-2.21-.27-4-.6-4H68.21C67.88,0,67.61,1.81,67.61,4Z"/><rect class="cls-2" x="1.1" y="11.5" width="198" height="198" rx="12.79" ry="12.79"/><circle class="cls-3" cx="100.1" cy="110.5" r="81.43"/><polygon class="cls-4" points="112.13 103.65 99.92 96.7 87.81 103.8 87.89 117.85 100.1 124.79 112.22 117.69 112.13 103.65"/><line class="cls-4" x1="100.37" y1="110.75" x2="100.37" y2="22"/><line class="cls-4" x1="100.37" y1="110.75" x2="156.6" y2="110.75"/><circle class="cls-5" cx="30.6" cy="110.5" r="3"/><circle class="cls-5" cx="169.41" cy="110.5" r="3"/><circle class="cls-5" cx="100.01" cy="182" r="3"/><circle class="cls-5" cx="100.01" cy="37.9" r="3"/></g></g></svg>