<svg xmlns="http://www.w3.org/2000/svg" viewBox="0 0 868.46 800.96"><defs><style>.cls-1{fill:#e2e2e2;}.cls-2{fill:#fff;}.cls-2,.cls-6{stroke:#000;stroke-miterlimit:10;stroke-width:1.31px;}.cls-3{fill:#78e5e1;}.cls-4{fill:#55b79d;}.cls-5{fill:#fadb93;}.cls-6{fill:none;}</style></defs><title>dslr</title><g id="Layer_2" data-name="Layer 2"><g id="Layer_1-2" data-name="Layer 1"><rect class="cls-1" x="60.77" y="112.86" width="807.69" height="491.41" rx="32.64" ry="32.64"/><circle class="cls-2" cx="463.96" cy="357.91" r="300.6"/><circle class="cls-3" cx="463.96" cy="357.91" r="226.1"/><rect class="cls-1" x="115.01" y="59.93" width="103.25" height="54.89"/><rect class="cls-1" x="712.28" y="92.6" width="103.25" height="54.89"/><rect class="cls-4" x="600.54" y="328.5" width="236.56" height="64.04"/><path d="M627.68,367a5.84,5.84,0,0,0,4.6,2.41c3,0,4.9-2.08,4.9-5.11v-17h3v17c0,5.29-3.4,7.78-7.74,7.78a7.8,7.8,0,0,1-6.36-2.82Z"/><path d="M645.91,347.28h9.79c4.9,0,7.64,3.36,7.64,7.34S660.52,362,655.7,362h-6.76v9.68h-3Zm9.43,2.71h-6.4v9.27h6.4a4.64,4.64,0,1,0,0-9.27Z"/><path d="M678.9,346.88a11.6,11.6,0,0,1,9.46,4.57L686,352.94a9,9,0,0,0-7.05-3.36c-5.33,0-9.39,4.09-9.39,9.9s4.06,9.94,9.39,9.94a9.66,9.66,0,0,0,6.54-2.63v-5h-8.37v-2.7h11.4v8.8a12.69,12.69,0,0,1-9.57,4.2,12.62,12.62,0,0,1,0-25.24Z"/><path d="M710.14,368.07h-2.08v-7.78h-7v-1.9h7v-7.56h2.08v7.56h7v1.9h-7Z"/><path d="M738.38,362h-4.86v9.68h-3V347.28h9.79c4.45,0,7.63,2.85,7.63,7.34a6.73,6.73,0,0,1-6.32,7.09l6.58,9.94h-3.58Zm1.53-12h-6.39v9.31h6.39a4.66,4.66,0,1,0,0-9.31Z"/><path d="M768,366.24H755.7l-2.16,5.41h-3.36L760,347.28h3.76l9.83,24.37H770.2Zm-11.47-2.7h10.56L761.87,350Z"/><path d="M788.28,352l-5.37,19.66h-3.28l-6.94-24.37h3.36l5.4,20.31L787,347.28h2.52l5.59,20.31,5.37-20.31h3.36l-6.94,24.37h-3.29Z"/><circle class="cls-5" cx="14.38" cy="334.38" r="14.38"/><circle class="cls-5" cx="54.89" cy="334.38" r="14.38"/><circle class="cls-5" cx="95.41" cy="334.38" r="14.38"/><circle class="cls-5" cx="135.92" cy="334.38" r="14.38"/><circle class="cls-5" cx="176.44" cy="334.38" r="14.38"/><circle class="cls-5" cx="216.95" cy="334.38" r="14.38"/><circle class="cls-5" cx="14.38" cy="418.03" r="14.38"/><circle class="cls-5" cx="54.89" cy="418.03" r="14.38"/><circle class="cls-5" cx="95.41" cy="418.03" r="14.38"/><circle class="cls-5" cx="135.92" cy="418.03" r="14.38"/><circle class="cls-5" cx="176.44" cy="418.03" r="14.38"/><circle class="cls-5" cx="216.95" cy="418.03" r="14.38"/><circle class="cls-5" cx="35.29" cy="376.21" r="14.38"/><circle class="cls-5" cx="75.8" cy="376.21" r="14.38"/><circle class="cls-5" cx="116.32" cy="376.21" r="14.38"/><circle class="cls-5" cx="156.83" cy="376.21" r="14.38"/><circle class="cls-5" cx="197.35" cy="376.21" r="14.38"/><circle class="cls-5" cx="237.86" cy="376.21" r="14.38"/><circle class="cls-5" cx="35.29" cy="459.85" r="14.38"/><circle class="cls-5" cx="75.8" cy="459.85" r="14.38"/><circle class="cls-5" cx="116.32" cy="459.85" r="14.38"/><circle class="cls-5" cx="156.83" cy="459.85" r="14.38"/><circle class="cls-5" cx="197.35" cy="459.85" r="14.38"/><circle class="cls-5" cx="237.86" cy="459.85" r="14.38"/><line class="cls-6" x1="463.96" y1="800.96" x2="463.96" y2="357.91"/><line class="cls-6" x1="463.31" y1="357.26" x2="820.1" y2="0.46"/><polygon class="cls-6" points="519.7 324.23 462.9 291.91 406.51 324.94 406.92 390.28 463.72 422.6 520.11 389.57 519.7 324.23"/></g></g></svg>