<svg xmlns="http://www.w3.org/2000/svg" viewBox="0 0 94.29 94.19"><defs><style>.cls-1{fill:#fadb93;opacity:0.57;}.cls-2{fill:#78e5e1;}.cls-3{fill:none;stroke:#000;stroke-miterlimit:10;stroke-width:0.41px;}</style></defs><title>floppy disk</title><g id="Layer_2" data-name="Layer 2"><g id="Layer_2-2" data-name="Layer 2"><polygon class="cls-1" points="81.09 20.37 19.39 3.67 0 75.33 69.67 94.19 86.91 30.5 81.09 20.37"/><rect class="cls-2" x="63.12" y="21.71" width="7.08" height="18.25" rx="2.42" ry="2.42" transform="translate(10.37 -16.34) rotate(15.14)"/><rect class="cls-2" x="16.4" y="45.36" width="47.35" height="40.1" transform="matrix(0.97, 0.26, -0.26, 0.97, 18.48, -8.2)"/><polygon class="cls-3" points="88.25 16.95 26.55 0.25 7.16 71.92 76.84 90.77 94.07 27.08 88.25 16.95"/><path class="cls-3" d="M34.59,9.26H81.94a0,0,0,0,1,0,0V30a3.25,3.25,0,0,1-3.25,3.25H37.84A3.25,3.25,0,0,1,34.59,30V9.26A0,0,0,0,1,34.59,9.26Z" transform="translate(7.57 -14.48) rotate(15.14)"/><rect class="cls-3" x="68.38" y="15.81" width="7.08" height="18.25" rx="2.42" ry="2.42" transform="translate(9.01 -17.92) rotate(15.14)"/><rect class="cls-3" x="23.56" y="41.94" width="47.35" height="40.1" transform="translate(17.83 -10.19) rotate(15.14)"/></g></g></svg>