<svg xmlns="http://www.w3.org/2000/svg" viewBox="0 0 313.8 515.93"><defs><style>.cls-1{fill:#f0f0f0;}.cls-2{fill:none;stroke:#000;stroke-miterlimit:10;}.cls-3{fill:#dadada;}.cls-4{fill:#ad91fa;}.cls-5{fill:#f7d994;}.cls-6{fill:#7ce4df;}</style></defs><title>gameboy</title><g id="Layer_2" data-name="Layer 2"><g id="Layer_1-2" data-name="Layer 1"><path class="cls-1" d="M23.48,14.59H302.25A11.56,11.56,0,0,1,313.8,26.15V449.33a66.61,66.61,0,0,1-66.61,66.61H23.48a11.56,11.56,0,0,1-11.56-11.56V26.15A11.56,11.56,0,0,1,23.48,14.59Z"/><path class="cls-2" d="M12.06.5H290.82a11.56,11.56,0,0,1,11.56,11.56V435.23a66.61,66.61,0,0,1-66.61,66.61H12.06A11.56,11.56,0,0,1,.5,490.28V12.06A11.56,11.56,0,0,1,12.06.5Z"/><path class="cls-2" d="M302.38,25.66V12.06A11.55,11.55,0,0,0,290.82.5H12.06A11.55,11.55,0,0,0,.5,12.06v13.6Z"/><line class="cls-2" x1="22.06" y1="0.5" x2="22.06" y2="25.66"/><line class="cls-2" x1="278.12" y1="0.95" x2="278.12" y2="26.11"/><path class="cls-3" d="M31.29,40H266.75a11.37,11.37,0,0,1,11.37,11.37v146a38.49,38.49,0,0,1-38.49,38.49H31.29a11.37,11.37,0,0,1-11.37-11.37V51.41A11.37,11.37,0,0,1,31.29,40Z"/><rect class="cls-1" x="68.13" y="64" width="162.62" height="148"/><circle class="cls-4" cx="40.45" cy="115.71" r="4.7"/><rect class="cls-3" x="45.85" y="303.58" width="26.47" height="74.87" rx="5.68" ry="5.68"/><rect class="cls-3" x="45.85" y="303.58" width="26.47" height="74.87" rx="5.68" ry="5.68" transform="translate(400.1 281.94) rotate(90)"/><circle class="cls-5" cx="211.78" cy="349.37" r="18.98"/><circle class="cls-6" cx="261.23" cy="325.36" r="18.98"/><rect class="cls-4" x="88.49" y="410.51" width="35.76" height="8.01" rx="4" ry="4" transform="translate(-172.75 90.13) rotate(-26.32)"/><rect class="cls-4" x="140.83" y="411.68" width="35.76" height="8.01" rx="4" ry="4" transform="translate(-167.85 113.45) rotate(-26.32)"/><rect class="cls-3" x="198.23" y="446.54" width="4.65" height="49.27" rx="2.33" ry="2.33" transform="matrix(0.87, -0.5, 0.5, 0.87, -208.72, 163.41)"/><rect class="cls-3" x="212.62" y="438.24" width="4.65" height="49.27" rx="2.33" ry="2.33" transform="translate(-202.64 169.49) rotate(-30)"/><rect class="cls-3" x="228.43" y="429.11" width="4.65" height="49.27" rx="2.33" ry="2.33" transform="matrix(0.87, -0.5, 0.5, 0.87, -195.96, 176.17)"/><rect class="cls-3" x="242.76" y="420.84" width="4.65" height="49.27" rx="2.33" ry="2.33" transform="translate(-189.9 182.23) rotate(-30)"/><rect class="cls-3" x="258.17" y="411.94" width="4.65" height="49.27" rx="2.33" ry="2.33" transform="translate(-183.39 188.74) rotate(-30)"/><rect class="cls-3" x="272.62" y="402.65" width="4.65" height="49.27" rx="2.33" ry="2.33" transform="translate(-176.8 194.72) rotate(-30)"/></g></g></svg>