<svg xmlns="http://www.w3.org/2000/svg" viewBox="0 0 459.5 597.75"><defs><style>.cls-1{fill:#f0f0f0;}.cls-2{fill:none;}.cls-2,.cls-7{stroke:#000;stroke-miterlimit:10;}.cls-3{fill:#dadada;}.cls-4{fill:#ad91fa;}.cls-5{fill:#7ce4df;}.cls-6{fill:#f7d994;}.cls-7{fill:#fff;}</style></defs><title>hard-drive</title><g id="Layer_2" data-name="Layer 2"><g id="Layer_1-2" data-name="Layer 1"><path class="cls-1" d="M42.5,32.75h405a12,12,0,0,1,12,12v553a0,0,0,0,1,0,0H30.5a0,0,0,0,1,0,0v-553A12,12,0,0,1,42.5,32.75Z"/><path class="cls-2" d="M12.5.5h405a12,12,0,0,1,12,12v553a0,0,0,0,1,0,0H.5a0,0,0,0,1,0,0V12.5A12,12,0,0,1,12.5.5Z"/><circle class="cls-3" cx="215" cy="207.5" r="176"/><circle class="cls-1" cx="215" cy="207.5" r="61.5"/><circle class="cls-4" cx="30.5" cy="31.5" r="14"/><circle class="cls-4" cx="397.5" cy="31.5" r="14"/><rect class="cls-5" x="61.5" y="24" width="46" height="15" rx="3.11" ry="3.11"/><circle class="cls-6" cx="215" cy="207.5" r="43"/><rect class="cls-7" x="0.5" y="507.5" width="429" height="58"/><rect class="cls-3" x="273.5" y="522" width="136" height="29" rx="11.43" ry="11.43"/><rect class="cls-6" x="50.5" y="516.5" width="13" height="41"/><rect class="cls-6" x="76.3" y="516.5" width="13" height="41"/><rect class="cls-6" x="102.1" y="516.5" width="13" height="41"/><rect class="cls-6" x="127.9" y="516.5" width="13" height="41"/><rect class="cls-6" x="153.7" y="516.5" width="13" height="41"/><rect class="cls-6" x="179.5" y="516.5" width="13" height="41"/><polygon class="cls-3" points="118.1 493.5 13 371.87 13 493.22 118.1 493.5"/><path class="cls-4" d="M180.59,314.63,34.26,431a6.49,6.49,0,0,0-.55,9.68l30,30a6.49,6.49,0,0,0,9.68-.55L189.73,323.77C194.54,317.71,186.65,309.82,180.59,314.63Z"/><rect class="cls-5" x="314.8" y="443.56" width="97.24" height="49.94"/><rect class="cls-5" x="314.8" y="379.63" width="97.24" height="49.94"/></g></g></svg>