<svg xmlns="http://www.w3.org/2000/svg" viewBox="0 0 904.92 746.83"><defs><style>.cls-1{fill:#dbdbdb;}.cls-2{fill:#f8da96;}.cls-3{fill:#7ce4df;}.cls-4{fill:none;stroke:#efefef;stroke-linecap:round;stroke-linejoin:round;stroke-width:42px;}</style></defs><title>headphones</title><g id="Layer_2" data-name="Layer 2"><g id="Layer_1-2" data-name="Layer 1"><rect class="cls-1" x="266.74" y="30.08" width="371.43" height="70.94" rx="35.47" ry="35.47"/><path class="cls-1" d="M167.6,362.83h0c-59.95,0-109,49.05-109,109v166c0,59.95,49.05,109,109,109h0Z"/><path class="cls-1" d="M740.61,362.83h0v384h0c59.95,0,109-49.05,109-109v-166C849.61,411.88,800.56,362.83,740.61,362.83Z"/><path class="cls-2" d="M182.26,726.83H166.6v-344h15.66A14.76,14.76,0,0,1,197,397.59V712.07A14.76,14.76,0,0,1,182.26,726.83Z"/><path class="cls-2" d="M726,726.83h15.66v-344H726a14.76,14.76,0,0,0-14.76,14.76V712.07A14.76,14.76,0,0,0,726,726.83Z"/><path class="cls-3" d="M167.6,362.83a109,109,0,0,0-17.15,1.36V745.47a109,109,0,0,0,17.15,1.36h0v-384Z"/><path class="cls-3" d="M740,362.83a109,109,0,0,1,17.15,1.36V745.47A109,109,0,0,1,740,746.83h0v-384Z"/><path class="cls-4" d="M21,452.46C21,214.17,214.17,21,452.46,21S883.92,214.17,883.92,452.46"/><line class="cls-4" x1="21" y1="452.46" x2="21" y2="574.83"/><line class="cls-4" x1="883.92" y1="452.46" x2="883.92" y2="574.83"/></g></g></svg>