<svg xmlns="http://www.w3.org/2000/svg" viewBox="0 0 998 758"><defs><style>.cls-1{fill:#fadb93;}.cls-2{fill:#e2e2e2;}.cls-3{fill:#fff;}.cls-4{fill:#7ce5e0;opacity:0.8;}.cls-5{fill:none;stroke:#ab8fe2;stroke-miterlimit:10;stroke-width:3.52px;}</style></defs><title>imac</title><g id="Layer_2" data-name="Layer 2"><g id="Layer_2-2" data-name="Layer 2"><rect class="cls-1" x="56.5" width="866" height="621" rx="21.43" ry="21.43"/><path class="cls-2" d="M77.93,0H901.07A21.43,21.43,0,0,1,922.5,21.43V531a0,0,0,0,1,0,0H56.5a0,0,0,0,1,0,0V21.43A21.43,21.43,0,0,1,77.93,0Z"/><rect class="cls-3" x="84.5" y="33" width="803" height="460"/><path class="cls-2" d="M564.2,758H410.05A30.31,30.31,0,0,1,380,723.74L393.5,621h188l12.78,103A30.31,30.31,0,0,1,564.2,758Z"/><circle class="cls-4" cx="489.5" cy="575" r="24"/><rect class="cls-4" x="504" y="60.5" width="494" height="219"/><line class="cls-5" y1="318.5" x2="471" y2="318.5"/><line class="cls-5" y1="355" x2="471" y2="355"/><line class="cls-5" y1="392" x2="471" y2="392"/><line class="cls-5" y1="429" x2="471" y2="429"/><circle class="cls-1" cx="18" cy="89.5" r="11"/><circle class="cls-1" cx="49" cy="89.5" r="11"/><circle class="cls-1" cx="80" cy="89.5" r="11"/><circle class="cls-1" cx="111" cy="89.5" r="11"/><circle class="cls-1" cx="142" cy="89.5" r="11"/><circle class="cls-1" cx="173" cy="89.5" r="11"/><circle class="cls-1" cx="18" cy="153.5" r="11"/><circle class="cls-1" cx="49" cy="153.5" r="11"/><circle class="cls-1" cx="80" cy="153.5" r="11"/><circle class="cls-1" cx="111" cy="153.5" r="11"/><circle class="cls-1" cx="142" cy="153.5" r="11"/><circle class="cls-1" cx="173" cy="153.5" r="11"/><circle class="cls-1" cx="34" cy="121.5" r="11"/><circle class="cls-1" cx="65" cy="121.5" r="11"/><circle class="cls-1" cx="96" cy="121.5" r="11"/><circle class="cls-1" cx="127" cy="121.5" r="11"/><circle class="cls-1" cx="158" cy="121.5" r="11"/><circle class="cls-1" cx="189" cy="121.5" r="11"/><circle class="cls-1" cx="34" cy="185.5" r="11"/><circle class="cls-1" cx="65" cy="185.5" r="11"/><circle class="cls-1" cx="96" cy="185.5" r="11"/><circle class="cls-1" cx="127" cy="185.5" r="11"/><circle class="cls-1" cx="158" cy="185.5" r="11"/><circle class="cls-1" cx="189" cy="185.5" r="11"/></g></g></svg>