<svg xmlns="http://www.w3.org/2000/svg" viewBox="0 0 856 520"><defs><style>.cls-1{fill:#e2e2e2;}.cls-2{fill:#ab91df;}.cls-3{fill:none;stroke:#000;stroke-miterlimit:10;stroke-width:2px;}.cls-4{fill:#78e5e1;}.cls-5{fill:#f8da96;opacity:0.68;}</style></defs><title>macbook</title><g id="Layer_2" data-name="Layer 2"><g id="Layer_1-2" data-name="Layer 1"><path class="cls-1" d="M171.14,72.5H755.86a30.64,30.64,0,0,1,30.64,30.64V477.5a0,0,0,0,1,0,0h-646a0,0,0,0,1,0,0V103.14A30.64,30.64,0,0,1,171.14,72.5Z"/><circle class="cls-2" cx="39.31" cy="429.89" r="14.38"/><circle class="cls-2" cx="79.82" cy="429.89" r="14.38"/><circle class="cls-2" cx="120.34" cy="429.89" r="14.38"/><circle class="cls-2" cx="160.85" cy="429.89" r="14.38"/><circle class="cls-2" cx="201.37" cy="429.89" r="14.38"/><circle class="cls-2" cx="241.88" cy="429.89" r="14.38"/><rect class="cls-3" x="89.5" y="477" width="748" height="42"/><rect class="cls-4" x="39" y="20" width="332" height="215"/><rect class="cls-5" x="455" y="374" width="400" height="48"/><polyline class="cls-3" points="484.42 352 455 352 455 304 547.09 304"/><polyline class="cls-3" points="855 304 855 352 747.15 352"/><line class="cls-3" x1="547.09" y1="304" x2="739.92" y2="304"/><rect class="cls-3" x="1" y="1" width="332" height="215"/><rect class="cls-1" x="393" y="474" width="141" height="28"/></g></g></svg>