<svg xmlns="http://www.w3.org/2000/svg" viewBox="0 0 143.06 122.71"><defs><style>.cls-1{fill:#2b2b2b;}.cls-2{fill:none;stroke:#2b2b2b;stroke-miterlimit:10;}</style></defs><title>monitor</title><g id="Layer_2" data-name="Layer 2"><g id="Layer_2-2" data-name="Layer 2"><rect width="143.06" height="92.98" rx="5.56" ry="5.56"/><rect x="57.06" y="46.49" width="28.95" height="76.22"/><path class="cls-1" d="M55.14,44.37h.71a1.21,1.21,0,0,1,1.21,1.21V93a0,0,0,0,1,0,0H53.93a0,0,0,0,1,0,0V45.58A1.21,1.21,0,0,1,55.14,44.37Z"/><rect x="41.74" y="118.67" width="59.58" height="4.05"/><circle class="cls-1" cx="71.53" cy="32.64" r="5.92"/><rect class="cls-1" x="53.93" y="118.67" width="3.13" height="4.05"/><rect class="cls-1" x="57.06" y="92.98" width="3.13" height="25.68"/><line class="cls-2" x1="9.24" y1="6.48" x2="133.83" y2="6.48"/><rect class="cls-1" width="11.12" height="92.98" rx="5.56" ry="5.56"/></g></g></svg>