<svg xmlns="http://www.w3.org/2000/svg" viewBox="0 0 840.33 465.63"><defs><style>.cls-1{fill:#7fe3de;}.cls-2{fill:#ae95f8;}.cls-3{fill:#f1f1f1;}.cls-4{fill:#dbdbdb;}.cls-5{fill:#f7d999;}.cls-6{fill:#969696;}.cls-7{fill:#fff;}.cls-8,.cls-9{fill:none;stroke-miterlimit:10;}.cls-8{stroke:#f7d999;stroke-width:2px;}.cls-9{stroke:#ae95f8;}</style></defs><title>nintendo-switch</title><g id="Layer_2" data-name="Layer 2"><g id="Layer_1-2" data-name="Layer 1"><path class="cls-1" d="M64,55.42h0a64.19,64.19,0,0,0-64,64v228a64.19,64.19,0,0,0,64,64h51.36v-356Z"/><path class="cls-2" d="M776.33,55.42h0a64.19,64.19,0,0,1,64,64v228a64.19,64.19,0,0,1-64,64H725v-356Z"/><rect class="cls-3" x="124.31" y="57.05" width="591.7" height="352.73"/><rect class="cls-4" x="131.79" y="67.66" width="574.51" height="331.51" rx="16.74" ry="16.74"/><rect class="cls-3" x="176.68" y="95.02" width="486.48" height="276.8"/><rect class="cls-5" x="86.75" y="83.53" width="20.11" height="7.26"/><rect class="cls-5" x="733.68" y="83.53" width="20.11" height="7.26"/><rect class="cls-5" x="733.68" y="83.53" width="20.11" height="7.26" transform="translate(656.57 830.9) rotate(-90)"/><circle class="cls-6" cx="60.49" cy="140.9" r="27.37"/><circle class="cls-6" cx="780.44" cy="253.71" r="27.37"/><circle class="cls-6" cx="60.8" cy="228" r="12.85"/><polygon class="cls-7" points="60.8 222.28 55.86 230.85 65.75 230.85 60.8 222.28"/><circle class="cls-6" cx="60.8" cy="280.12" r="12.85"/><polygon class="cls-7" points="60.8 285.83 55.86 277.26 65.75 277.26 60.8 285.83"/><circle class="cls-6" cx="89.12" cy="253.71" r="12.85"/><polygon class="cls-7" points="94.84 253.71 86.27 258.65 86.27 248.76 94.84 253.71"/><circle class="cls-6" cx="33.32" cy="253.71" r="12.85"/><polygon class="cls-7" points="27.61 253.71 36.18 258.65 36.18 248.76 27.61 253.71"/><circle class="cls-7" cx="780.44" cy="123.87" r="12.85"/><circle class="cls-7" cx="780.44" cy="175.99" r="12.85"/><circle class="cls-7" cx="808.76" cy="149.57" r="12.85"/><circle class="cls-7" cx="752.96" cy="149.57" r="12.85"/><rect class="cls-4" x="170.37" y="51.21" width="62.73" height="5.84"/><polygon class="cls-8" points="347.02 58.72 590.81 366.02 735.04 1.24 347.02 58.72"/><polygon class="cls-9" points="367.31 274.39 236.71 253.71 176.68 371.52 270.18 465.02 388 404.99 367.31 274.39"/></g></g></svg>