<svg xmlns="http://www.w3.org/2000/svg" viewBox="0 0 476.3 897.5"><defs><style>.cls-1{fill:#ab8fe2;}.cls-2{fill:#fff;}.cls-3{fill:#e2e2e2;}.cls-4{fill:#f8da96;}.cls-5,.cls-6{fill:none;}.cls-5{stroke:#000;stroke-miterlimit:10;stroke-width:1.31px;}.cls-6{stroke:#e2e2e2;stroke-linecap:round;stroke-linejoin:round;stroke-width:6.79px;}</style></defs><title>iphone-x</title><g id="Layer_2" data-name="Layer 2"><g id="Layer_2-2" data-name="Layer 2"><rect class="cls-1" y="0.57" width="442.8" height="896.93" rx="48.81" ry="48.81"/><rect class="cls-2" x="27.18" y="26.61" width="391.84" height="845.97" rx="35.34" ry="35.34"/><rect class="cls-1" x="112.68" width="218.57" height="53.23" rx="21.37" ry="21.37"/><circle class="cls-3" cx="223.1" cy="216.87" r="113.82"/><polyline class="cls-4" points="73.05 412.23 73.05 364.66 475.65 364.66 475.65 412.23 73.05 412.23"/><polyline class="cls-5" points="278.47 493.77 73.05 493.77 73.05 469.98"/><polyline class="cls-5" points="278.47 633.06 73.05 633.06 73.05 609.28"/><polyline class="cls-5" points="73.05 446.2 475.65 446.2 475.65 469.98"/><polyline class="cls-5" points="73.05 667.04 475.65 667.04 475.65 690.82"/><rect class="cls-4" x="73.05" y="527.74" width="402.6" height="47.56"/><line class="cls-6" x1="129.1" y1="857.3" x2="317.1" y2="857.3"/></g></g></svg>