<svg xmlns="http://www.w3.org/2000/svg" viewBox="0 0 723.5 675.14"><defs><style>.cls-1{fill:#f0f0f0;}.cls-2,.cls-8{fill:none;}.cls-2,.cls-4{stroke:#000;}.cls-2,.cls-4,.cls-8{stroke-miterlimit:10;}.cls-3{fill:#dadada;}.cls-4{fill:#fff;}.cls-5{fill:#f7d994;}.cls-6{fill:#ad91fa;}.cls-7{fill:#7ce4df;}.cls-8{stroke:#fff;stroke-linecap:round;stroke-width:20px;}</style></defs><title>printer</title><g id="Layer_2" data-name="Layer 2"><g id="Layer_1-2" data-name="Layer 1"><path class="cls-1" d="M689.21,253H89.79A34.29,34.29,0,0,0,55.5,287.29V640.85a34.29,34.29,0,0,0,34.29,34.29H204.05c0-.61-.05-1.21-.05-1.83V610.69A40.81,40.81,0,0,1,244.69,570H534.31A40.81,40.81,0,0,1,575,610.69v62.62c0,.62,0,1.22,0,1.83H689.21a34.29,34.29,0,0,0,34.29-34.29V287.29A34.29,34.29,0,0,0,689.21,253Z"/><path class="cls-2" d="M634.21,201H34.79A34.29,34.29,0,0,0,.5,235.29V588.85a34.29,34.29,0,0,0,34.29,34.29H149.05c0-.61-.05-1.21-.05-1.83V558.69A40.81,40.81,0,0,1,189.69,518H479.31A40.81,40.81,0,0,1,520,558.69v62.62c0,.62,0,1.22,0,1.83H634.21a34.29,34.29,0,0,0,34.29-34.29V235.29A34.29,34.29,0,0,0,634.21,201Z"/><rect class="cls-3" x="68" y="162.5" width="533" height="38"/><path class="cls-3" d="M138.9,50H530.1a33.4,33.4,0,0,1,33.4,33.4V201a0,0,0,0,1,0,0h-458a0,0,0,0,1,0,0V83.4A33.4,33.4,0,0,1,138.9,50Z"/><rect x="148.5" y="560" width="371" height="45"/><line class="cls-2" x1="0.5" y1="560" x2="668.5" y2="560"/><polygon class="cls-4" points="470.5 590 195.5 590 165.5 646 500.5 646 470.5 590"/><path class="cls-1" d="M183.71,0H485.29A30.21,30.21,0,0,1,515.5,30.21V201a0,0,0,0,1,0,0h-362a0,0,0,0,1,0,0V30.21A30.21,30.21,0,0,1,183.71,0Z"/><rect class="cls-5" x="226" y="397.5" width="358" height="77" rx="12" ry="12"/><circle class="cls-5" cx="104" cy="289.5" r="28"/><circle class="cls-6" cx="182.5" cy="289.5" r="28"/><circle class="cls-7" cx="261" cy="289.5" r="28"/><line class="cls-8" x1="204" y1="58.5" x2="465" y2="58.5"/><line class="cls-8" x1="204" y1="104.5" x2="465" y2="104.5"/><line class="cls-8" x1="204" y1="150.5" x2="335" y2="150.5"/></g></g></svg>