<svg xmlns="http://www.w3.org/2000/svg" viewBox="0 0 468 231"><defs><style>.cls-1{fill:#dbdbdb;}.cls-2{fill:#ae95f8;}.cls-3{fill:#7fe3de;}.cls-4{fill:#f7d999;}.cls-5{fill:#f1f1f1;}</style></defs><title>ram</title><g id="Layer_2" data-name="Layer 2"><g id="Layer_1-2" data-name="Layer 1"><path class="cls-1" d="M0,69V27.76A27.76,27.76,0,0,1,27.76,0H440.24A27.76,27.76,0,0,1,468,27.76V69a25.49,25.49,0,0,0,0,51V231H166.43V201.32H147.5V231H0V120A25.51,25.51,0,0,0,25,94.5,25.51,25.51,0,0,0,0,69"/><path class="cls-2" d="M453.17,124.41a29.73,29.73,0,0,1,0-59.46V29.88a16.12,16.12,0,0,0-16.11-16.11H27.67A16.11,16.11,0,0,0,11.56,29.88V65h.23a29.73,29.73,0,0,1,0,59.46h-.23v96.24H138.8V195h36v25.69H453.17Z"/><circle class="cls-3" cx="31.84" cy="35.75" r="7.95"/><circle class="cls-3" cx="431.67" cy="35.75" r="7.95"/><rect class="cls-4" x="30.34" y="192.41" width="9.08" height="31.21" rx="4.54" ry="4.54"/><rect class="cls-4" x="46.71" y="192.41" width="9.08" height="31.21" rx="4.54" ry="4.54"/><rect class="cls-4" x="63.08" y="192.41" width="9.08" height="31.21" rx="4.54" ry="4.54"/><rect class="cls-4" x="79.46" y="192.41" width="9.08" height="31.21" rx="4.54" ry="4.54"/><rect class="cls-4" x="95.83" y="192.41" width="9.08" height="31.21" rx="4.54" ry="4.54"/><rect class="cls-4" x="112.21" y="192.41" width="9.08" height="31.21" rx="4.54" ry="4.54"/><rect class="cls-4" x="194.08" y="192.41" width="9.08" height="31.21" rx="4.54" ry="4.54"/><rect class="cls-4" x="210.45" y="192.41" width="9.08" height="31.21" rx="4.54" ry="4.54"/><rect class="cls-4" x="226.82" y="192.41" width="9.08" height="31.21" rx="4.54" ry="4.54"/><rect class="cls-4" x="243.2" y="192.41" width="9.08" height="31.21" rx="4.54" ry="4.54"/><rect class="cls-4" x="259.57" y="192.41" width="9.08" height="31.21" rx="4.54" ry="4.54"/><rect class="cls-4" x="275.95" y="192.41" width="9.08" height="31.21" rx="4.54" ry="4.54"/><rect class="cls-4" x="292.32" y="192.41" width="9.08" height="31.21" rx="4.54" ry="4.54"/><rect class="cls-4" x="308.69" y="192.41" width="9.08" height="31.21" rx="4.54" ry="4.54"/><rect class="cls-4" x="325.07" y="192.41" width="9.08" height="31.21" rx="4.54" ry="4.54"/><rect class="cls-4" x="341.44" y="192.41" width="9.08" height="31.21" rx="4.54" ry="4.54"/><rect class="cls-4" x="357.82" y="192.41" width="9.08" height="31.21" rx="4.54" ry="4.54"/><rect class="cls-4" x="374.19" y="192.41" width="9.08" height="31.21" rx="4.54" ry="4.54"/><rect class="cls-4" x="390.56" y="192.41" width="9.08" height="31.21" rx="4.54" ry="4.54"/><rect class="cls-4" x="406.94" y="192.41" width="9.08" height="31.21" rx="4.54" ry="4.54"/><rect class="cls-4" x="423.31" y="192.41" width="9.08" height="31.21" rx="4.54" ry="4.54"/><rect class="cls-1" x="11.56" y="164.64" width="441.61" height="17.73"/><rect class="cls-5" x="79.83" y="50.7" width="41.83" height="79.17" rx="11.05" ry="11.05"/><rect class="cls-5" x="168.67" y="50.7" width="41.83" height="79.17" rx="11.05" ry="11.05"/><rect class="cls-5" x="257.51" y="50.7" width="41.83" height="79.17" rx="11.05" ry="11.05"/><rect class="cls-5" x="346.35" y="50.7" width="41.83" height="79.17" rx="11.05" ry="11.05"/><rect class="cls-3" x="92.85" y="65.43" width="15.78" height="49.7"/><rect class="cls-3" x="181.69" y="65.43" width="15.78" height="49.7"/><rect class="cls-3" x="270.53" y="65.43" width="15.78" height="49.7"/><rect class="cls-3" x="359.37" y="65.43" width="15.78" height="49.7"/><circle class="cls-5" cx="79.83" cy="67.03" r="5.09"/><circle class="cls-5" cx="79.83" cy="115.13" r="5.09"/><circle class="cls-5" cx="79.83" cy="91.08" r="5.09"/><circle class="cls-5" cx="121.65" cy="67.03" r="5.09"/><circle class="cls-5" cx="121.65" cy="115.13" r="5.09"/><circle class="cls-5" cx="121.65" cy="91.08" r="5.09"/><circle class="cls-5" cx="168.67" cy="67.03" r="5.09"/><circle class="cls-5" cx="168.67" cy="115.13" r="5.09"/><circle class="cls-5" cx="168.67" cy="91.08" r="5.09"/><circle class="cls-5" cx="210.49" cy="67.03" r="5.09"/><circle class="cls-5" cx="210.49" cy="115.13" r="5.09"/><circle class="cls-5" cx="210.49" cy="91.08" r="5.09"/><circle class="cls-5" cx="257.51" cy="67.03" r="5.09"/><circle class="cls-5" cx="257.51" cy="115.13" r="5.09"/><circle class="cls-5" cx="257.51" cy="91.08" r="5.09"/><circle class="cls-5" cx="299.33" cy="67.03" r="5.09"/><circle class="cls-5" cx="299.33" cy="115.13" r="5.09"/><circle class="cls-5" cx="299.33" cy="91.08" r="5.09"/><circle class="cls-5" cx="346.35" cy="67.03" r="5.09"/><circle class="cls-5" cx="346.35" cy="115.13" r="5.09"/><circle class="cls-5" cx="346.35" cy="91.08" r="5.09"/><circle class="cls-5" cx="388.17" cy="67.03" r="5.09"/><circle class="cls-5" cx="388.17" cy="115.13" r="5.09"/><circle class="cls-5" cx="388.17" cy="91.08" r="5.09"/></g></g></svg>