<svg xmlns="http://www.w3.org/2000/svg" viewBox="0 0 952 597.63"><defs><style>.cls-1{fill:#f0f0f0;}.cls-2{fill:#dadada;}.cls-3{fill:none;stroke:#000;stroke-miterlimit:10;stroke-width:2px;}.cls-4{fill:#ad91fa;}.cls-5{fill:#7ce4df;}</style></defs><title>router</title><g id="Layer_2" data-name="Layer 2"><g id="Layer_1-2" data-name="Layer 1"><path class="cls-1" d="M108.74,356.63H892.26A59.74,59.74,0,0,1,952,416.37V597.63a0,0,0,0,1,0,0H49a0,0,0,0,1,0,0V416.37A59.74,59.74,0,0,1,108.74,356.63Z"/><path class="cls-2" d="M743.67,308.63l-7.1-298c-.33-14.16-11.61-14.16-11.94,0l-7.1,298Z"/><path class="cls-2" d="M617.67,308.63l-7.1-298c-.33-14.16-11.61-14.16-11.94,0l-7.1,298Z"/><path class="cls-2" d="M94.67,308.63l-7.1-298C87.24-3.54,76-3.54,75.63,10.62l-7.1,298Z"/><path class="cls-3" d="M60.74,308.63H844.26A59.74,59.74,0,0,1,904,368.37V549.63a0,0,0,0,1,0,0H1a0,0,0,0,1,0,0V368.37A59.74,59.74,0,0,1,60.74,308.63Z"/><rect class="cls-4" x="107" y="418.63" width="215" height="48" rx="20.44" ry="20.44"/><rect class="cls-5" x="548" y="418.63" width="100" height="48" rx="13.94" ry="13.94"/><rect class="cls-5" x="667" y="418.63" width="100" height="48" rx="13.94" ry="13.94"/></g></g></svg>