<svg xmlns="http://www.w3.org/2000/svg" viewBox="0 0 492.14 664"><defs><style>.cls-1{fill:#f1f1f1;}.cls-2{fill:#f7d999;}.cls-3{fill:#dbdbdb;}.cls-4{fill:none;stroke:#dbdbdb;stroke-miterlimit:10;stroke-width:9px;}.cls-5{fill:#ae95f8;}</style></defs><title>sd-card</title><g id="Layer_2" data-name="Layer 2"><g id="Layer_1-2" data-name="Layer 1"><path class="cls-1" d="M449.2,0H188.53L0,188.53V621.06A43,43,0,0,0,42.94,664H449.2a42.94,42.94,0,0,0,42.94-42.94V42.94A42.94,42.94,0,0,0,449.2,0Z"/><rect class="cls-2" x="196.14" y="33" width="40" height="128" rx="11.57" ry="11.57"/><rect class="cls-2" x="268.81" y="33" width="40" height="128" rx="11.57" ry="11.57"/><rect class="cls-2" x="341.47" y="33" width="40" height="128" rx="11.57" ry="11.57"/><rect class="cls-2" x="414.14" y="33" width="40" height="128" rx="11.57" ry="11.57"/><rect class="cls-3" x="43.14" y="373" width="411" height="249" rx="31.91" ry="31.91"/><line class="cls-4" x1="0.14" y1="257" x2="492.14" y2="257"/><path class="cls-5" d="M236.14,69V44.57A11.57,11.57,0,0,0,224.57,33H207.71a11.57,11.57,0,0,0-11.57,11.57V69Z"/><path class="cls-5" d="M309.14,69V44.57A11.57,11.57,0,0,0,297.57,33H280.71a11.57,11.57,0,0,0-11.57,11.57V69Z"/><path class="cls-5" d="M381.14,69V44.57A11.57,11.57,0,0,0,369.57,33H352.71a11.57,11.57,0,0,0-11.57,11.57V69Z"/><path class="cls-5" d="M454.14,69V44.57A11.57,11.57,0,0,0,442.57,33H425.71a11.57,11.57,0,0,0-11.57,11.57V69Z"/></g></g></svg>