<svg xmlns="http://www.w3.org/2000/svg" viewBox="0 0 614 633"><defs><style>.cls-1{fill:#f1f1f1;}.cls-2{fill:#dbdbdb;}.cls-3{fill:#fff;}.cls-4{fill:#ae95f8;}.cls-5{fill:#7fe3de;}.cls-6{fill:#f7d999;}</style></defs><title>server</title><g id="Layer_2" data-name="Layer 2"><g id="Layer_1-2" data-name="Layer 1"><rect class="cls-1" width="364" height="633"/><rect class="cls-2" x="364" width="250" height="633"/><rect class="cls-2" x="26.5" y="20" width="311" height="26"/><path class="cls-3" d="M0,81H307a11,11,0,0,1,11,11v25a11,11,0,0,1-11,11H0a0,0,0,0,1,0,0V81A0,0,0,0,1,0,81Z"/><rect class="cls-1" x="280" y="85.5" width="15" height="38" rx="6.67" ry="6.67"/><rect class="cls-1" x="254.56" y="85.5" width="15" height="38" rx="6.67" ry="6.67"/><rect class="cls-1" x="229.11" y="85.5" width="15" height="38" rx="6.67" ry="6.67"/><rect class="cls-1" x="203.67" y="85.5" width="15" height="38" rx="6.67" ry="6.67"/><rect class="cls-1" x="178.22" y="85.5" width="15" height="38" rx="6.67" ry="6.67"/><rect class="cls-1" x="152.78" y="85.5" width="15" height="38" rx="6.67" ry="6.67"/><rect class="cls-1" x="127.33" y="85.5" width="15" height="38" rx="6.67" ry="6.67"/><rect class="cls-1" x="101.89" y="85.5" width="15" height="38" rx="6.67" ry="6.67"/><rect class="cls-1" x="76.44" y="85.5" width="15" height="38" rx="6.67" ry="6.67"/><rect class="cls-1" x="51" y="85.5" width="15" height="38" rx="6.67" ry="6.67"/><rect class="cls-2" y="81" width="17" height="47"/><circle class="cls-4" cx="25" cy="88" r="2.5"/><circle class="cls-5" cx="25" cy="99.41" r="2.5"/><circle class="cls-6" cx="25" cy="110.83" r="2.5"/><path class="cls-3" d="M0,151.83H307a11,11,0,0,1,11,11v25a11,11,0,0,1-11,11H0a0,0,0,0,1,0,0v-47A0,0,0,0,1,0,151.83Z"/><rect class="cls-1" x="280" y="156.33" width="15" height="38" rx="6.67" ry="6.67"/><rect class="cls-1" x="254.56" y="156.33" width="15" height="38" rx="6.67" ry="6.67"/><rect class="cls-1" x="229.11" y="156.33" width="15" height="38" rx="6.67" ry="6.67"/><rect class="cls-1" x="203.67" y="156.33" width="15" height="38" rx="6.67" ry="6.67"/><rect class="cls-1" x="178.22" y="156.33" width="15" height="38" rx="6.67" ry="6.67"/><rect class="cls-1" x="152.78" y="156.33" width="15" height="38" rx="6.67" ry="6.67"/><rect class="cls-1" x="127.33" y="156.33" width="15" height="38" rx="6.67" ry="6.67"/><rect class="cls-1" x="101.89" y="156.33" width="15" height="38" rx="6.67" ry="6.67"/><rect class="cls-1" x="76.44" y="156.33" width="15" height="38" rx="6.67" ry="6.67"/><rect class="cls-1" x="51" y="156.33" width="15" height="38" rx="6.67" ry="6.67"/><rect class="cls-2" y="151.83" width="17" height="47"/><circle class="cls-4" cx="25" cy="158.83" r="2.5"/><circle class="cls-5" cx="25" cy="170.24" r="2.5"/><circle class="cls-6" cx="25" cy="181.66" r="2.5"/><path class="cls-3" d="M0,222.66H307a11,11,0,0,1,11,11v25a11,11,0,0,1-11,11H0a0,0,0,0,1,0,0v-47A0,0,0,0,1,0,222.66Z"/><rect class="cls-1" x="280" y="227.16" width="15" height="38" rx="6.67" ry="6.67"/><rect class="cls-1" x="254.56" y="227.16" width="15" height="38" rx="6.67" ry="6.67"/><rect class="cls-1" x="229.11" y="227.16" width="15" height="38" rx="6.67" ry="6.67"/><rect class="cls-1" x="203.67" y="227.16" width="15" height="38" rx="6.67" ry="6.67"/><rect class="cls-1" x="178.22" y="227.16" width="15" height="38" rx="6.67" ry="6.67"/><rect class="cls-1" x="152.78" y="227.16" width="15" height="38" rx="6.67" ry="6.67"/><rect class="cls-1" x="127.33" y="227.16" width="15" height="38" rx="6.67" ry="6.67"/><rect class="cls-1" x="101.89" y="227.16" width="15" height="38" rx="6.67" ry="6.67"/><rect class="cls-1" x="76.44" y="227.16" width="15" height="38" rx="6.67" ry="6.67"/><rect class="cls-1" x="51" y="227.16" width="15" height="38" rx="6.67" ry="6.67"/><rect class="cls-2" y="222.66" width="17" height="47"/><circle class="cls-4" cx="25" cy="229.66" r="2.5"/><circle class="cls-5" cx="25" cy="241.07" r="2.5"/><circle class="cls-6" cx="25" cy="252.49" r="2.5"/><path class="cls-3" d="M0,293.49H307a11,11,0,0,1,11,11v25a11,11,0,0,1-11,11H0a0,0,0,0,1,0,0v-47A0,0,0,0,1,0,293.49Z"/><rect class="cls-1" x="280" y="297.99" width="15" height="38" rx="6.67" ry="6.67"/><rect class="cls-1" x="254.56" y="297.99" width="15" height="38" rx="6.67" ry="6.67"/><rect class="cls-1" x="229.11" y="297.99" width="15" height="38" rx="6.67" ry="6.67"/><rect class="cls-1" x="203.67" y="297.99" width="15" height="38" rx="6.67" ry="6.67"/><rect class="cls-1" x="178.22" y="297.99" width="15" height="38" rx="6.67" ry="6.67"/><rect class="cls-1" x="152.78" y="297.99" width="15" height="38" rx="6.67" ry="6.67"/><rect class="cls-1" x="127.33" y="297.99" width="15" height="38" rx="6.67" ry="6.67"/><rect class="cls-1" x="101.89" y="297.99" width="15" height="38" rx="6.67" ry="6.67"/><rect class="cls-1" x="76.44" y="297.99" width="15" height="38" rx="6.67" ry="6.67"/><rect class="cls-1" x="51" y="297.99" width="15" height="38" rx="6.67" ry="6.67"/><rect class="cls-2" y="293.49" width="17" height="47"/><circle class="cls-4" cx="25" cy="300.49" r="2.5"/><circle class="cls-5" cx="25" cy="311.91" r="2.5"/><circle class="cls-6" cx="25" cy="323.32" r="2.5"/><path class="cls-3" d="M0,364.32H307a11,11,0,0,1,11,11v25a11,11,0,0,1-11,11H0a0,0,0,0,1,0,0v-47A0,0,0,0,1,0,364.32Z"/><rect class="cls-1" x="280" y="368.82" width="15" height="38" rx="6.67" ry="6.67"/><rect class="cls-1" x="254.56" y="368.82" width="15" height="38" rx="6.67" ry="6.67"/><rect class="cls-1" x="229.11" y="368.82" width="15" height="38" rx="6.67" ry="6.67"/><rect class="cls-1" x="203.67" y="368.82" width="15" height="38" rx="6.67" ry="6.67"/><rect class="cls-1" x="178.22" y="368.82" width="15" height="38" rx="6.67" ry="6.67"/><rect class="cls-1" x="152.78" y="368.82" width="15" height="38" rx="6.67" ry="6.67"/><rect class="cls-1" x="127.33" y="368.82" width="15" height="38" rx="6.67" ry="6.67"/><rect class="cls-1" x="101.89" y="368.82" width="15" height="38" rx="6.67" ry="6.67"/><rect class="cls-1" x="76.44" y="368.82" width="15" height="38" rx="6.67" ry="6.67"/><rect class="cls-1" x="51" y="368.82" width="15" height="38" rx="6.67" ry="6.67"/><rect class="cls-2" y="364.32" width="17" height="47"/><circle class="cls-4" cx="25" cy="371.32" r="2.5"/><circle class="cls-5" cx="25" cy="382.74" r="2.5"/><circle class="cls-6" cx="25" cy="394.15" r="2.5"/><path class="cls-3" d="M0,435.15H307a11,11,0,0,1,11,11v25a11,11,0,0,1-11,11H0a0,0,0,0,1,0,0v-47A0,0,0,0,1,0,435.15Z"/><rect class="cls-1" x="280" y="439.65" width="15" height="38" rx="6.67" ry="6.67"/><rect class="cls-1" x="254.56" y="439.65" width="15" height="38" rx="6.67" ry="6.67"/><rect class="cls-1" x="229.11" y="439.65" width="15" height="38" rx="6.67" ry="6.67"/><rect class="cls-1" x="203.67" y="439.65" width="15" height="38" rx="6.67" ry="6.67"/><rect class="cls-1" x="178.22" y="439.65" width="15" height="38" rx="6.67" ry="6.67"/><rect class="cls-1" x="152.78" y="439.65" width="15" height="38" rx="6.67" ry="6.67"/><rect class="cls-1" x="127.33" y="439.65" width="15" height="38" rx="6.67" ry="6.67"/><rect class="cls-1" x="101.89" y="439.65" width="15" height="38" rx="6.67" ry="6.67"/><rect class="cls-1" x="76.44" y="439.65" width="15" height="38" rx="6.67" ry="6.67"/><rect class="cls-1" x="51" y="439.65" width="15" height="38" rx="6.67" ry="6.67"/><rect class="cls-2" y="435.15" width="17" height="47"/><circle class="cls-4" cx="25" cy="442.15" r="2.5"/><circle class="cls-5" cx="25" cy="453.57" r="2.5"/><circle class="cls-6" cx="25" cy="464.98" r="2.5"/><path class="cls-3" d="M0,506H307a11,11,0,0,1,11,11v25a11,11,0,0,1-11,11H0a0,0,0,0,1,0,0V506A0,0,0,0,1,0,506Z"/><rect class="cls-1" x="280" y="510.48" width="15" height="38" rx="6.67" ry="6.67"/><rect class="cls-1" x="254.56" y="510.48" width="15" height="38" rx="6.67" ry="6.67"/><rect class="cls-1" x="229.11" y="510.48" width="15" height="38" rx="6.67" ry="6.67"/><rect class="cls-1" x="203.67" y="510.48" width="15" height="38" rx="6.67" ry="6.67"/><rect class="cls-1" x="178.22" y="510.48" width="15" height="38" rx="6.67" ry="6.67"/><rect class="cls-1" x="152.78" y="510.48" width="15" height="38" rx="6.67" ry="6.67"/><rect class="cls-1" x="127.33" y="510.48" width="15" height="38" rx="6.67" ry="6.67"/><rect class="cls-1" x="101.89" y="510.48" width="15" height="38" rx="6.67" ry="6.67"/><rect class="cls-1" x="76.44" y="510.48" width="15" height="38" rx="6.67" ry="6.67"/><rect class="cls-1" x="51" y="510.48" width="15" height="38" rx="6.67" ry="6.67"/><rect class="cls-2" y="505.98" width="17" height="47"/><circle class="cls-4" cx="25" cy="512.98" r="2.5"/><circle class="cls-5" cx="25" cy="524.4" r="2.5"/><circle class="cls-6" cx="25" cy="535.81" r="2.5"/></g></g></svg>