<svg xmlns="http://www.w3.org/2000/svg" viewBox="0 0 216 530"><defs><style>.cls-1{fill:#f0f0f0;}.cls-2{fill:#7ce4df;}.cls-3{fill:#f7d994;}.cls-4{fill:#ad91fa;}.cls-5{fill:none;stroke:#000;stroke-miterlimit:10;}</style></defs><title>usb-stick</title><g id="Layer_2" data-name="Layer 2"><g id="Layer_1-2" data-name="Layer 1"><path class="cls-1" d="M125,140h0a91,91,0,0,1,91,91V530a0,0,0,0,1,0,0H34a0,0,0,0,1,0,0V231a91,91,0,0,1,91-91Z" transform="translate(250 670.03) rotate(180)"/><path d="M181,107V405A90,90,0,0,1,1,405V107H181m1-1H0V405a91,91,0,0,0,91,91h0a91,91,0,0,0,91-91V106Z"/><rect class="cls-2" x="25" width="132" height="106"/><rect class="cls-3" x="43.9" y="53" width="39.24" height="39.24"/><rect class="cls-3" x="98.86" y="53" width="39.24" height="39.24"/><rect class="cls-4" x="13.03" y="123.13" width="155.94" height="31.1"/><line class="cls-5" x1="91" y1="172.34" x2="91" y2="459.4"/></g></g></svg>