<svg xmlns="http://www.w3.org/2000/svg" viewBox="0 0 67.93 97.27"><defs><style>.cls-1{fill:#78e5e1;}.cls-2,.cls-3{fill:none;stroke:#000;stroke-miterlimit:10;}.cls-2{stroke-linecap:round;stroke-width:0.41px;}.cls-3{stroke-width:0.41px;}</style></defs><title>beaker</title><g id="Layer_2" data-name="Layer 2"><g id="Layer_2-2" data-name="Layer 2"><path class="cls-1" d="M7.38,14.24s6.28,6,6.94,17.68l3.62,62.92c.12,2,11.09,2.94,24.5,2.17s24.21-3,24.1-5L62.92,29.12c-.67-11.62,4.87-18.36,4.87-18.36"/><line class="cls-2" x1="44.79" y1="24.82" x2="47.86" y2="78.15"/><line class="cls-2" x1="36.02" y1="25.32" x2="41.85" y2="24.99"/><line class="cls-2" x1="36.46" y1="32.94" x2="42.29" y2="32.61"/><line class="cls-2" x1="36.89" y1="40.56" x2="42.72" y2="40.23"/><line class="cls-2" x1="37.33" y1="48.18" x2="43.16" y2="47.85"/><line class="cls-2" x1="37.77" y1="55.8" x2="43.6" y2="55.47"/><line class="cls-2" x1="38.21" y1="63.42" x2="44.04" y2="63.08"/><line class="cls-2" x1="38.65" y1="71.04" x2="44.48" y2="70.7"/><line class="cls-2" x1="39.09" y1="78.66" x2="44.91" y2="78.32"/><ellipse class="cls-1" cx="37.58" cy="11.94" rx="30.4" ry="5.5" transform="translate(-0.62 2.18) rotate(-3.29)"/><ellipse class="cls-3" cx="30.55" cy="5.97" rx="30.4" ry="5.5" transform="translate(-0.29 1.76) rotate(-3.29)"/><path class="cls-3" d="M.38,8.24s6.28,6,6.94,17.68l3.62,62.92c.12,2,11.08,2.94,24.5,2.17s24.21-3,24.09-5L55.92,23.12C55.25,11.5,60.79,4.76,60.79,4.76"/></g></g></svg>