<svg xmlns="http://www.w3.org/2000/svg" viewBox="0 0 148.46 70.52"><defs><style>.cls-1{fill:#d8d8d8;}.cls-2{fill:#969696;}</style></defs><title>bookshelf-1</title><g id="Layer_2" data-name="Layer 2"><g id="Layer_2-2" data-name="Layer 2"><rect class="cls-1" y="63.94" width="148.46" height="3.22" rx="1.23" ry="1.23"/><rect class="cls-2" x="51.47" width="13.99" height="63.94" rx="2.56" ry="2.56"/><rect class="cls-1" x="65.46" y="14.99" width="7" height="48.95" rx="2.13" ry="2.13"/><rect class="cls-2" x="72.46" y="14.99" width="7" height="48.95" rx="2.06" ry="2.06"/><rect class="cls-1" x="88.01" y="16.84" width="7" height="48.95" rx="2.2" ry="2.2" transform="translate(-8.89 41.94) rotate(-24.66)"/><circle class="cls-1" cx="58.46" cy="43.85" r="3.91"/><rect class="cls-1" x="53.99" y="50.09" width="8.96" height="1.88" rx="0.94" ry="0.94"/><rect class="cls-1" x="53.99" y="54.91" width="8.96" height="1.88" rx="0.94" ry="0.94"/><rect class="cls-2" x="68.23" y="21.65" width="1.46" height="35.62" rx="0.73" ry="0.73"/><rect class="cls-1" x="30.23" y="65.55" width="11.24" height="4.98" rx="2.49" ry="2.49"/><rect class="cls-1" x="106.99" y="65.55" width="11.24" height="4.98" rx="2.49" ry="2.49"/></g></g></svg>