<svg xmlns="http://www.w3.org/2000/svg" viewBox="0 0 63.59 83.41"><defs><style>.cls-1{fill:#78e5e1;}.cls-2{fill:#fadb93;opacity:0.57;}.cls-3{fill:none;stroke:#000;stroke-linecap:round;stroke-linejoin:round;stroke-width:0.41px;}</style></defs><title>flask</title><g id="Layer_2" data-name="Layer 2"><g id="Layer_2-2" data-name="Layer 2"><ellipse class="cls-1" cx="58.57" cy="6.34" rx="1.06" ry="5.43" transform="translate(30.08 57.9) rotate(-67.25)"/><path class="cls-2" d="M52.56,6.34,38.05,41,6,53a4.91,4.91,0,0,0-.17,9.12L55.56,83A4.91,4.91,0,0,0,62,76.49L48.05,45.16,62.57,10.53"/><path class="cls-3" d="M50,.42,35.48,35.05,3.39,47.1a4.91,4.91,0,0,0-.17,9.13L53,77.1a4.91,4.91,0,0,0,6.39-6.52L45.48,39.24,60,4.62"/><ellipse class="cls-3" cx="55" cy="2.52" rx="1.06" ry="5.43" transform="translate(31.41 52.27) rotate(-67.25)"/></g></g></svg>