<svg xmlns="http://www.w3.org/2000/svg" viewBox="0 0 148.23 200.8"><defs><style>.cls-1{fill:#1f161e;}.cls-2{fill:#fbdc8e;}.cls-3{fill:#73e5e2;}.cls-4{fill:none;stroke:#fff;stroke-linecap:round;stroke-linejoin:round;stroke-width:0.4px;}.cls-5{fill:#b37361;}</style></defs><title>plant-4</title><g id="Layer_2" data-name="Layer 2"><g id="Middle_ground" data-name="Middle ground"><path class="cls-1" d="M56.42,133.75l0-1-2.4-3L48.52,123l-5.9-7.14s-5.68-3.93-7.14-4.61c-5.32-2.46-10.56-4.34-16.82-4.34-3.85,0-18.24.58-18.27,3,0,3.59,20.15,17.18,34.93,23.78C41.76,133.75,56.42,133.75,56.42,133.75Z"/><path class="cls-2" d="M53.37,133.75C32.86,118-9,31.9,1.73,0,24.59,11.65,49.67,51.82,61.5,85.74A60.79,60.79,0,0,1,63,92.45l4.8,22L69,133.75Z"/><path class="cls-3" d="M67.37,133.75c-6.92-5.62-9.13-22.26-9.19-28.47-.11-11.59,1.67-20.13,11.58-32.88S77,38.49,90.2,24.23,112.08,6,127.7,6s20.57,25.32,20.53,31.69C148.05,63.37,131.86,67,122,79.27c-7.17,8.9-7.73,16.18-9.9,20.34C100.44,122,91,130.46,84,133.75"/><path class="cls-4" d="M71.15,131.89c.2-43.83,46.39-109.66,56.26-119.53"/><path class="cls-4" d="M73.68,112c-5.11-5.57-9.76-21.36-9.06-25.46"/><path class="cls-4" d="M60.59,130C53.35,117.14,19,54.58,6.15,8.49"/><path class="cls-5" d="M84,133.75H105.5l-18,67.05H39.37L21.66,133.75H84"/><path class="cls-4" d="M7.38,111.28c10.49.72,23.69,1.2,33.05,7.55"/></g></g></svg>