<svg xmlns="http://www.w3.org/2000/svg" viewBox="0 0 120.53 165.15"><defs><style>.cls-1{fill:#73e5e2;}.cls-2{fill:none;stroke:#fbdc8e;stroke-linecap:round;stroke-miterlimit:10;stroke-width:2px;}</style></defs><title>Plant 2</title><g id="Layer_2" data-name="Layer 2"><g id="Layer_2-2" data-name="Layer 2"><path class="cls-1" d="M100.78,0c8.92,0,18.75,14.39,19.39,19.39,1.81,14.1-3.81,23.54-3.49,29.22.72,12.67,5.42,24,1.94,30.91-20.53,40.9-90.51,31.85-98.85,45.92-2.14,4-8.29,16.62-8.29,16.62C8.23,138.81,0,116.54,0,107.85S12.06,75.26,35.72,58.21C48.23,49.2,71.21,0,100.78,0Z"/><path class="cls-2" d="M4.31,164.15c2.61-9,28.08-86,91.77-121.59"/><path class="cls-2" d="M74.09,57.54c.5-3.75,3.06-11.54,0-23.06"/><path class="cls-2" d="M58.64,71.73c.53-6.08,0-14.72-2.18-19.63"/><path class="cls-2" d="M44.36,88.17a84.52,84.52,0,0,1,31.81,1.65"/></g></g></svg>