<svg xmlns="http://www.w3.org/2000/svg" viewBox="0 0 124.22 209.32"><defs><style>.cls-1{fill:#fbdc8e;}.cls-2{fill:#969696;}.cls-3{fill:#ab8de5;}.cls-4{fill:#78e5e1;}.cls-5{fill:#d8d8d8;}</style></defs><title>plant-2</title><g id="Layer_2" data-name="Layer 2"><g id="Layer_2-2" data-name="Layer 2"><path d="M88.06,44.37c19,3.61,15.61,117-20.86,110.14C32.76,148,64.88,40,88.06,44.37Z"/><path class="cls-1" d="M4.64,58.43c15.12-8.55,78.41,71.09,49.46,87.46C26.75,161.36-13.77,68.84,4.64,58.43Z"/><path class="cls-2" d="M81.69,209.32H43.51a6.25,6.25,0,0,1-6.21-5.56l-4.82-43.29a6.25,6.25,0,0,1,6.21-6.94H86.31a6.24,6.24,0,0,1,6.21,6.91l-4.61,43.29A6.26,6.26,0,0,1,81.69,209.32Z"/><path class="cls-3" d="M98.79.23C113.26,4.44,102.17,92,74.46,83.91,48.3,76.3,81.18-4.89,98.79.23Z"/><path class="cls-1" d="M122.65,69.87c10,8.63-30.68,74.56-49.9,58C54.6,112.3,110.44,59.37,122.65,69.87Z"/><path class="cls-4" d="M62.7,9.34c21.66,0,41.49,138.29,0,138.29C23.52,147.63,36.33,9.34,62.7,9.34Z"/><rect class="cls-5" x="20.46" y="144.12" width="84.3" height="15.48" rx="4.05" ry="4.05"/></g></g></svg>