<svg xmlns="http://www.w3.org/2000/svg" viewBox="0 0 52.16 101.46"><defs><style>.cls-1{fill:#e2e2e2;}.cls-2,.cls-3{fill:none;stroke:#000;stroke-miterlimit:10;}.cls-2{stroke-width:0.41px;}.cls-3{stroke-linecap:round;stroke-width:0.41px;}</style></defs><title>ruler</title><g id="Layer_2" data-name="Layer 2"><g id="Layer_2-2" data-name="Layer 2"><rect class="cls-1" x="22.73" y="-0.76" width="10.49" height="103.99" transform="translate(-17.03 14.06) rotate(-21.8)"/><rect class="cls-2" x="19.2" y="-1.5" width="10.49" height="103.99" transform="translate(-17 12.69) rotate(-21.8)"/><line class="cls-3" x1="11.8" y1="4.75" x2="7.44" y2="6.5"/><line class="cls-3" x1="13.95" y1="10.12" x2="9.59" y2="11.86"/><line class="cls-3" x1="16.09" y1="15.48" x2="11.73" y2="17.23"/><line class="cls-3" x1="18.24" y1="20.85" x2="13.88" y2="22.59"/><line class="cls-3" x1="20.38" y1="26.21" x2="16.03" y2="27.96"/><line class="cls-3" x1="22.53" y1="31.58" x2="18.17" y2="33.32"/><line class="cls-3" x1="24.68" y1="36.94" x2="20.32" y2="38.69"/><line class="cls-3" x1="26.82" y1="42.31" x2="22.46" y2="44.05"/><line class="cls-3" x1="28.91" y1="47.53" x2="24.55" y2="49.27"/><line class="cls-3" x1="31.06" y1="52.89" x2="26.7" y2="54.63"/><line class="cls-3" x1="33.2" y1="58.26" x2="28.84" y2="60"/><line class="cls-3" x1="35.35" y1="63.62" x2="30.99" y2="65.36"/><line class="cls-3" x1="37.5" y1="68.99" x2="33.14" y2="70.73"/><line class="cls-3" x1="39.64" y1="74.35" x2="35.28" y2="76.09"/><line class="cls-3" x1="41.79" y1="79.72" x2="37.43" y2="81.46"/><line class="cls-3" x1="43.93" y1="85.08" x2="39.57" y2="86.82"/></g></g></svg>