<svg xmlns="http://www.w3.org/2000/svg" viewBox="0 0 252.41 472.58"><defs><style>.cls-1{fill:#8e554a;}.cls-2{fill:#b27363;}.cls-3{fill:none;stroke:#78e5e1;stroke-linecap:round;stroke-linejoin:round;stroke-width:4px;}</style></defs><title>trees</title><g id="Layer_2" data-name="Layer 2"><g id="Layer_2-2" data-name="Layer 2"><path class="cls-1" d="M21.36,92.69C75.47,73.68,121.58,148,134,167.75c54.31,86.76,8.47,162.42-15.6,171.1C76.44,354,30.89,285.85,18,264.27-4,227.71,2.84,176.53.4,160.93S6.93,97.76,21.36,92.69Z"/><path class="cls-2" d="M161.26.56c34.12-4.88,53.89,23.35,60,39.48,9.89,26.32,31.2,40.46,31.2,74.09,0,78.48-47.77,141.36-69.22,141.36-47.28,0-64.83-49.72-64.83-70.68,0-35.58,9.41-78.49,8.29-89.2C124.34,73.61,111.16,7.71,161.26.56Z"/><path class="cls-3" d="M50,151.84c11.89,15.54,72.93,158.78,85.34,318.74"/><path class="cls-3" d="M89.34,146.6c-1.29,4.88-12,34.21-20.64,44.17"/><path class="cls-3" d="M34.18,238.43C42.39,243.88,66,249.19,90,249.33"/><path class="cls-3" d="M120,272.71c-2.22,2.78-8.63,10.88-18.39,14.81"/><path class="cls-3" d="M175.75,96.45c14.05,94.32-19.44,333.88-20.64,374.13"/><path class="cls-3" d="M209.74,104.4c-3.7,5.68-18.8,19.16-30.27,23.35"/><path class="cls-3" d="M143.73,175.09c7.38,3.4,21.25,9.37,34.61,9.37"/></g></g></svg>