<svg xmlns="http://www.w3.org/2000/svg" viewBox="0 0 181.9 505.17"><defs><style>.cls-1{fill:#73e5e2;}.cls-2{fill:none;stroke:#fbdc8e;stroke-linecap:round;stroke-miterlimit:10;stroke-width:3px;}</style></defs><title>Tree 1</title><g id="Layer_2" data-name="Layer 2"><g id="Layer_2-2" data-name="Layer 2"><path class="cls-1" d="M79.19,0c40.71,0,54.45,27.6,54.45,46.78,0,40-8.66,31.08-8.66,72.42,0,44.43,56.92,100.53,56.92,177.27,0,104.91-91.57,120.29-102.71,120.29C21.45,416.76,0,353.22,0,314.67,0,269,40.22,220.11,40.22,176.09c0-32.2-10.52-44.71-10.52-94.63C29.7,31.26,58.78,0,79.19,0Z"/><line class="cls-2" x1="76.15" y1="503.67" x2="76.15" y2="66.06"/><line class="cls-2" x1="76.15" y1="350.08" x2="143.95" y2="280.59"/><line class="cls-2" x1="74.46" y1="155.07" x2="52.62" y2="133.23"/><line class="cls-2" x1="76.15" y1="96.49" x2="106.64" y2="66.01"/></g></g></svg>