<svg xmlns="http://www.w3.org/2000/svg" viewBox="0 0 555.3 214.45"><defs><style>.cls-1{fill:#969696;}.cls-2{fill:#d8d8d8;}</style></defs><title>desk-1</title><g id="Layer_2" data-name="Layer 2"><g id="Layer_2-2" data-name="Layer 2"><rect class="cls-1" x="519.46" y="6.16" width="10.24" height="211.6" rx="5.12" ry="5.12" transform="translate(1060.39 86.84) rotate(165.27)"/><rect class="cls-1" x="457.84" y="6.16" width="10.24" height="211.6" rx="5.12" ry="5.12" transform="translate(43.69 -114.05) rotate(14.73)"/><rect class="cls-2" x="387.2" y="6.16" width="10.24" height="211.6" rx="5.12" ry="5.12" transform="translate(41.37 -96.08) rotate(14.73)"/><rect class="cls-2" x="447.94" y="6.16" width="10.24" height="211.6" rx="5.12" ry="5.12" transform="translate(919.69 105.03) rotate(165.27)"/><rect class="cls-1" x="98.79" y="6.16" width="10.24" height="211.6" rx="5.12" ry="5.12" transform="matrix(0.97, 0.25, -0.25, 0.97, 31.88, -22.74)"/><rect class="cls-1" x="159.53" y="6.16" width="10.24" height="211.6" rx="5.12" ry="5.12" transform="matrix(-0.97, 0.25, -0.25, -0.97, 352.35, 178.37)"/><rect class="cls-2" x="25.36" width="504.23" height="15.15" rx="4.53" ry="4.53"/><rect class="cls-2" x="25.6" y="6.16" width="10.24" height="211.6" rx="5.12" ry="5.12" transform="translate(29.48 -4.13) rotate(14.73)"/><rect class="cls-2" x="86.35" y="6.16" width="10.24" height="211.6" rx="5.12" ry="5.12" transform="translate(208.39 196.97) rotate(165.27)"/></g></g></svg>