<svg xmlns="http://www.w3.org/2000/svg" viewBox="0 0 66.1 70.42"><defs><style>.cls-1{fill:#fadb93;opacity:0.57;}.cls-2{fill:none;stroke:#000;stroke-linecap:round;stroke-linejoin:round;stroke-width:0.41px;}</style></defs><title>triangle-ruler</title><g id="Layer_2" data-name="Layer 2"><g id="Layer_2-2" data-name="Layer 2"><polygon class="cls-1" points="66.1 57.45 30.47 70.42 5.42 1.61 66.1 57.45"/><polygon class="cls-2" points="60.89 56.04 25.26 69.02 0.21 0.21 60.89 56.04"/><polygon class="cls-2" points="42.13 51.45 29.32 56.11 20.32 31.38 42.13 51.45"/><line class="cls-2" x1="5.55" y1="14.88" x2="8.93" y2="13.65"/><line class="cls-2" x1="6.73" y1="18.12" x2="10.11" y2="16.88"/><line class="cls-2" x1="7.9" y1="21.35" x2="11.29" y2="20.12"/><line class="cls-2" x1="9.08" y1="24.59" x2="12.47" y2="23.35"/><line class="cls-2" x1="10.26" y1="27.82" x2="13.65" y2="26.59"/><line class="cls-2" x1="11.44" y1="31.06" x2="14.82" y2="29.82"/><line class="cls-2" x1="12.62" y1="34.29" x2="16" y2="33.06"/><line class="cls-2" x1="13.79" y1="37.53" x2="17.18" y2="36.3"/><line class="cls-2" x1="14.97" y1="40.76" x2="18.36" y2="39.53"/><line class="cls-2" x1="16.15" y1="44" x2="19.53" y2="42.77"/><line class="cls-2" x1="17.33" y1="47.23" x2="20.71" y2="46"/><line class="cls-2" x1="18.5" y1="50.47" x2="21.89" y2="49.24"/><line class="cls-2" x1="19.68" y1="53.7" x2="23.07" y2="52.47"/><line class="cls-2" x1="20.86" y1="56.94" x2="24.25" y2="55.71"/><line class="cls-2" x1="22.04" y1="60.18" x2="25.42" y2="58.94"/></g></g></svg>