<svg xmlns="http://www.w3.org/2000/svg" viewBox="0 0 341 367"><defs><style>.cls-1{fill:#fff;stroke-width:1.14px;}.cls-1,.cls-3{stroke:#969696;stroke-linejoin:round;}.cls-1,.cls-11,.cls-3,.cls-4,.cls-9{stroke-linecap:round;}.cls-2{fill:#e8e8e8;}.cls-11,.cls-3,.cls-4,.cls-9{fill:none;}.cls-3{stroke-width:2.31px;}.cls-11,.cls-4,.cls-9{stroke:#1f161e;stroke-miterlimit:10;}.cls-5{fill:#f8cdba;}.cls-6{fill:#1f161e;}.cls-7{fill:#73e5e2;}.cls-8{fill:#55b79d;}.cls-9{stroke-width:0.62px;}.cls-10{fill:#fa9e9f;}.cls-11{stroke-width:0.69px;}</style></defs><title>Artboard 1</title><g id="graph_man_vector" data-name="graph man vector"><circle class="cls-1" cx="156.84" cy="247.22" r="3.34"/><rect class="cls-2" x="91.72" y="266.27" width="34.78" height="55.54"/><rect class="cls-2" x="139.44" y="247.22" width="34.78" height="74.59"/><rect class="cls-2" x="187.16" y="198.04" width="34.78" height="123.77"/><rect class="cls-2" x="234.88" y="161.51" width="34.78" height="160.3"/><polyline class="cls-3" points="73.92 313.47 109.07 266.06 156.84 247.65 204.56 198.04 252.33 161.51 283.4 93.52"/><line class="cls-4" x1="283.4" y1="93.52" x2="276.34" y2="70.36"/><ellipse class="cls-5" cx="271.29" cy="86.18" rx="16.87" ry="4.05"/><path class="cls-6" d="M152,332.88c0,1.48-.5,10.17.74,11.64,2.25,2.66,20.64,1.59,21.51.74s1.4-2.65.63-3.18-8.06-2.06-9-2.76-2.32-4.35-1.78-6.31"/><path class="cls-6" d="M184.29,309.19c1.18.87,8.42,5.72,8.84,7.6.77,3.4-11.16,17.43-12.36,17.61s-3-.47-2.92-1.4,3.21-7.68,3.24-8.89-2.07-4.48-4-5.23"/><path class="cls-6" d="M111.29,151.43s-11.17,95.69-9,101.06c1.23,3,74.92,66.81,74.92,66.81L185.05,309l-46.4-54.51L128,153.09C124.83,150.6,120.71,148.2,111.29,151.43Z"/><path class="cls-7" d="M165.65,153.46v180h-16.4l-29.93-181S146.09,142.24,165.65,153.46Z"/><path class="cls-8" d="M138.28,68.33c39.22,0,122.63,13.81,125.4,14V97s-82.89,5.31-91.18,6c-.64,6.59-4.49,49-6.85,50.49s-52.66-.54-54.36-2c-.3,3.39-2.73,24.38-2.73,24.38-13.24-7.7-29.3-46.37-29.3-50.8,0-24.23,22.31-51.13,24.68-52.46S123,68.33,138.28,68.33Z"/><path class="cls-5" d="M144.14,71.57c0,2.53-13.92,2.72-13.92,0V54.65h13.92Z"/><path d="M130.22,64.76c0-1.51,3.44-6.7,6.1-5.82-3.28-1.16-4.9-5.1-6.1-4.29Z"/><path class="cls-9" d="M111.29,151.43c-.58-3.9-2.78-36.52-1.32-47.34"/><circle class="cls-5" cx="143.36" cy="42.28" r="18.08"/><ellipse class="cls-10" cx="161.64" cy="44.71" rx="3.02" ry="1.57"/><ellipse class="cls-10" cx="142.68" cy="44.71" rx="3.02" ry="1.57"/><path class="cls-11" d="M154.28,41.45c.56.8,3.46,4.18.4,5.55"/><path class="cls-11" d="M148.6,51c-.9,0-2.3-1.13-3-2.14"/><path d="M126.08,31.74c0-6.27,8.75-10.95,14.84-10.95a104.85,104.85,0,0,1,23.46,3.05c3.27,1.14,3.79,4.62,3.79,5.79,0,4.88-1.78,7.92-7.16,8.7a16.7,16.7,0,0,0-1.9-4.9,6.79,6.79,0,0,0-4.67-.08c-1.37.48-12.85,5.88-21.33,5.88-1.14,1.59-3.62,11.32-2.89,15.42-2.49.14-7.07-7.95-7.3-12.19a9.3,9.3,0,0,1,3.48-7.6C126.31,34,126.08,32.24,126.08,31.74Z"/><circle class="cls-5" cx="132.34" cy="43.14" r="3.98"/><path d="M172.5,103c-1.41,0-13.75,0-13.75,0s12.81,10.51,11.84,19.26C171.09,117.41,172.5,103,172.5,103Z"/><circle class="cls-1" cx="109.11" cy="266.27" r="3.34"/><circle class="cls-1" cx="204.56" cy="198.04" r="3.34"/><circle class="cls-1" cx="252.28" cy="161.51" r="3.34"/></g></svg>