<svg xmlns="http://www.w3.org/2000/svg" viewBox="0 0 795 795"><defs><style>.cls-1{fill:#f8da96;}.cls-2{fill:#ab94dc;}.cls-3{fill:#fff;}</style></defs><title>app-notification</title><g id="Layer_2" data-name="Layer 2"><g id="Layer_1-2" data-name="Layer 1"><rect class="cls-1" y="110" width="685" height="685" rx="141.92" ry="141.92"/><circle class="cls-2" cx="647.5" cy="147.5" r="147.5"/><path class="cls-3" d="M691.46,173.65c0,22.36-19.52,37.71-47,37.71-17.81,0-31.65-6.64-40.93-20.09l18.57-15.73c6.06,6.64,12.32,10.61,21,10.61,11.94,0,19.52-6.25,19.52-15.15,0-9.1-7.77-15.73-19.52-15.73H631.77V134.61h4.93c13.83,0,21.22-7.2,20.46-15.15-.56-6.26-6.44-10.24-14.59-10.24-7.58,0-15.91,3.6-20.65,9.48l-14.4-18c9.66-9.86,22.17-17.06,38.84-17.06,22,0,40,13.27,39.42,34.68,0,10-6.26,19-16.68,24.25C682.74,147.69,691.46,159.06,691.46,173.65Z"/></g></g></svg>