<svg xmlns="http://www.w3.org/2000/svg" viewBox="0 0 999 416"><defs><style>.cls-1{fill:#fadb93;}.cls-2{fill:#78e5e1;}.cls-3,.cls-4,.cls-5{fill:none;stroke-linecap:round;stroke-miterlimit:10;}.cls-3,.cls-4{stroke:#fff;}.cls-3{stroke-width:45px;}.cls-4,.cls-5{stroke-width:29px;}.cls-5{stroke:#ab92de;}.cls-6{fill:#ab92de;}</style></defs><title>comment-card</title><g id="Layer_2" data-name="Layer 2"><g id="Layer_1-2" data-name="Layer 1"><rect class="cls-1" width="999" height="416" rx="44.26" ry="44.26"/><circle class="cls-2" cx="129.5" cy="133.5" r="74.5"/><line class="cls-3" x1="268.5" y1="95.5" x2="597.5" y2="95.5"/><line class="cls-4" x1="268.5" y1="168.5" x2="794.5" y2="168.5"/><line class="cls-4" x1="268.5" y1="222.5" x2="674.5" y2="222.5"/><line class="cls-5" x1="268.5" y1="290.5" x2="333.5" y2="290.5"/><line class="cls-5" x1="382.5" y1="290.5" x2="447.5" y2="290.5"/><path class="cls-6" d="M864.34,71.24h60.14a0,0,0,0,1,0,0v50a0,0,0,0,1,0,0H864.34a25,25,0,0,1-25-25v0a25,25,0,0,1,25-25Z" transform="translate(326.35 -595.43) rotate(45)"/><path class="cls-6" d="M889.28,71.24h60.14a0,0,0,0,1,0,0v50a0,0,0,0,1,0,0H889.28a25,25,0,0,1-25-25v0a25,25,0,0,1,25-25Z" transform="translate(1616.15 -476.97) rotate(135)"/></g></g></svg>