<svg xmlns="http://www.w3.org/2000/svg" viewBox="0 0 43.16 55.11"><defs><style>.cls-1{fill:#fbdc8e;}.cls-2{fill:#d8d8d8;}.cls-3{fill:#969696;}.cls-4{fill:#64ccc4;}</style></defs><title>docs-1</title><g id="Layer_2" data-name="Layer 2"><g id="Layer_2-2" data-name="Layer 2"><path class="cls-1" d="M34.75,49.18h6a2.39,2.39,0,0,0,2.38-2.38V10a2.35,2.35,0,0,0-.7-1.68L34.88.7A2.35,2.35,0,0,0,33.2,0H10.78A2.39,2.39,0,0,0,8.4,2.38V5.94"/><path class="cls-2" d="M24.67,5.94h-22A2.68,2.68,0,0,0,0,8.62V52.43a2.68,2.68,0,0,0,2.69,2.68H32.07a2.68,2.68,0,0,0,2.68-2.68V16a2.71,2.71,0,0,0-.78-1.9l-7.4-7.4A2.71,2.71,0,0,0,24.67,5.94Z"/><path class="cls-3" d="M34.75,15H27.28a1.5,1.5,0,0,1-1.5-1.5V5.94"/><path class="cls-4" d="M43.16,9H35.69a1.5,1.5,0,0,1-1.5-1.5V0"/><rect class="cls-3" x="3.92" y="10.46" width="8.96" height="1.88" rx="0.94" ry="0.94"/><rect class="cls-3" x="3.92" y="14.98" width="8.96" height="1.88" rx="0.94" ry="0.94"/><rect class="cls-3" x="3.51" y="22.71" width="27.73" height="1.88" rx="0.94" ry="0.94"/><rect class="cls-3" x="3.51" y="27.15" width="27.73" height="1.88" rx="0.94" ry="0.94"/><rect class="cls-3" x="3.51" y="31.59" width="27.73" height="1.88" rx="0.94" ry="0.94"/></g></g></svg>