<svg xmlns="http://www.w3.org/2000/svg" viewBox="0 0 422 735"><defs><style>.cls-1{fill:#fff;}.cls-2{fill:#78e5e1;}.cls-3{fill:#ab8fe2;}.cls-4{fill:#fadb93;}.cls-5{fill:none;stroke:#fadb93;stroke-linecap:round;stroke-miterlimit:10;stroke-width:2px;}.cls-6{fill:#d8d8d8;}</style></defs><title>horizontal-scroll</title><g id="Layer_2" data-name="Layer 2"><g id="Layer_1-2" data-name="Layer 1"><rect class="cls-1" width="422" height="735"/><circle class="cls-2" cx="318.5" cy="68.5" r="7.5"/><circle class="cls-2" cx="346.5" cy="68.5" r="7.5"/><circle class="cls-2" cx="374.5" cy="68.5" r="7.5"/><rect class="cls-3" x="29" y="54" width="186" height="28"/><rect class="cls-4" x="29" y="144" width="62" height="28"/><line class="cls-5" x1="116" y1="158" x2="198" y2="158"/><rect class="cls-4" x="29" y="450" width="62" height="28"/><line class="cls-5" x1="116" y1="464" x2="219" y2="464"/><rect class="cls-3" x="29" y="204" width="117" height="183" rx="24.21" ry="24.21"/><rect class="cls-3" x="184" y="204" width="117" height="183" rx="24.21" ry="24.21"/><rect class="cls-6" x="29" y="509" width="117" height="183" rx="24.21" ry="24.21"/><rect class="cls-6" x="184" y="509" width="117" height="183" rx="24.21" ry="24.21"/><path class="cls-6" d="M422,509H363.21A24.21,24.21,0,0,0,339,533.21V667.79A24.21,24.21,0,0,0,363.21,692H422Z"/><path class="cls-3" d="M422,204H363.21A24.21,24.21,0,0,0,339,228.21V362.79A24.21,24.21,0,0,0,363.21,387H422Z"/></g></g></svg>