<svg xmlns="http://www.w3.org/2000/svg" viewBox="0 0 983 503"><defs><style>.cls-1{fill:#78e5e1;}.cls-2{fill:#ab92de;}.cls-3{fill:#fff;}</style></defs><title>like-button</title><g id="Layer_2" data-name="Layer 2"><g id="Layer_1-2" data-name="Layer 1"><rect class="cls-1" width="983" height="503" rx="185.31" ry="185.31"/><path class="cls-2" d="M179.25,194.19H322.93a0,0,0,0,1,0,0V313.58a0,0,0,0,1,0,0H179.25a59.7,59.7,0,0,1-59.7-59.7v0a59.7,59.7,0,0,1,59.7-59.7Z" transform="translate(244.33 -82.08) rotate(45)"/><path class="cls-2" d="M238.82,194.19H382.5a0,0,0,0,1,0,0V313.58a0,0,0,0,1,0,0H238.82a59.7,59.7,0,0,1-59.7-59.7v0a59.7,59.7,0,0,1,59.7-59.7Z" transform="translate(658.9 234.85) rotate(135)"/><path class="cls-3" d="M449.39,187.11H482.2V302.46h52.87v28.63H449.39Z"/><path class="cls-3" d="M555.75,187.11h32.81v144H555.75Z"/><path class="cls-3" d="M694.92,331.09,654.59,284.7v46.39H621.78v-144h32.81V231.2l31.35-44.09h40.95l-54.33,71.26,67.29,72.72Z"/><path class="cls-3" d="M846.42,302.46v28.63H752.18v-144h92.36v28.63H785v29.67h52.25v29.47H785v27.58Z"/></g></g></svg>