<svg xmlns="http://www.w3.org/2000/svg" viewBox="0 0 60.73 43.05"><defs><style>.cls-1{fill:#e2e2e2;}.cls-2{fill:#78e5e1;}.cls-3{fill:#fadb93;opacity:0.57;}.cls-4,.cls-5,.cls-6{fill:none;stroke:#000;}.cls-4,.cls-5{stroke-miterlimit:10;}.cls-4{stroke-width:0.41px;}.cls-5,.cls-6{stroke-linecap:round;stroke-width:0.41px;}.cls-6{stroke-linejoin:round;}</style></defs><title>pen tool</title><g id="Layer_2" data-name="Layer 2"><g id="Layer_2-2" data-name="Layer 2"><path class="cls-1" d="M15.26,34.69A7.39,7.39,0,0,1,9,22.82"/><rect class="cls-2" x="-1.34" y="24.46" width="33.35" height="5.23" transform="translate(32.16 0.9) rotate(62.26)"/><path class="cls-3" d="M20.83,31.9c4.64-2.44,10.84-1.43,12.27,1.28L60.73,3.35,20.49,9.2c1.42,2.72-1.26,8.4-5.9,10.84"/><rect class="cls-4" x="-6.32" y="21.43" width="33.35" height="5.23" transform="translate(26.82 3.69) rotate(62.26)"/><path class="cls-5" d="M11.16,31.19A7.38,7.38,0,0,1,4.92,19.33"/><path class="cls-6" d="M15.79,28.76c4.64-2.44,10.84-1.43,12.27,1.28L55.69.21,15.44,6.06c1.43,2.71-1.25,8.4-5.89,10.84"/><line class="cls-6" x1="55.69" y1="0.21" x2="29.03" y2="14.22"/><circle class="cls-6" cx="21.99" cy="17.83" r="1.13"/><path class="cls-6" d="M15.79,28.76c4.64-2.44,10.84-1.43,12.27,1.28L55.69.21,15.44,6.06c1.43,2.71-1.25,8.4-5.89,10.84"/></g></g></svg>