<svg xmlns="http://www.w3.org/2000/svg" viewBox="0 0 982 150"><defs><style>.cls-1{fill:#78e5e1;}.cls-2{fill:none;stroke:#fadb93;stroke-linecap:round;stroke-miterlimit:10;stroke-width:35px;}.cls-3,.cls-4{fill:#ab8fe2;}.cls-4{fill-rule:evenodd;}.cls-5{fill:#fff;}</style></defs><title>progress-bar</title><g id="Layer_2" data-name="Layer 2"><g id="Layer_1-2" data-name="Layer 1"><path class="cls-1" d="M953.5,98a23.5,23.5,0,0,1,0,47H28.5a23.5,23.5,0,0,1,0-47h925m0-5H28.5a28.5,28.5,0,0,0,0,57h925a28.5,28.5,0,0,0,0-57Z"/><line class="cls-2" x1="30.5" y1="121.5" x2="726.5" y2="121.5"/><rect class="cls-3" x="683.5" width="102" height="53"/><polygon class="cls-4" points="734.72 80.44 753 48.5 716.45 48.5 734.72 80.44"/><path class="cls-5" d="M727.37,12.62c4.32,0,7.07,3,7.07,6.64s-2.75,6.56-7.07,6.56-7-2.91-7-6.56S723.08,12.62,727.37,12.62Zm14.1.39h3.85l-16.78,26.2h-3.8Zm-14.1,3.77c-1.22,0-2.2.71-2.2,2.48a2.1,2.1,0,0,0,2.2,2.39,2.13,2.13,0,0,0,2.27-2.39A2.16,2.16,0,0,0,727.37,16.78Zm15.2,9.71c4.28,0,7,2.94,7,6.63s-2.75,6.56-7,6.56-7-2.9-7-6.56S738.29,26.49,742.57,26.49Zm0,4.16c-1.26,0-2.24.71-2.24,2.47a2.09,2.09,0,0,0,2.24,2.4,2.12,2.12,0,0,0,2.27-2.4A2.16,2.16,0,0,0,742.57,30.65Z"/></g></g></svg>