<svg xmlns="http://www.w3.org/2000/svg" viewBox="0 0 1076 339"><defs><style>.cls-1{fill:#f8da96;}.cls-2{fill:none;stroke:#ab91e0;stroke-miterlimit:10;stroke-width:24px;}.cls-3{fill:#fff;}</style></defs><title>select</title><g id="Layer_2" data-name="Layer 2"><g id="Layer_1-2" data-name="Layer 1"><rect class="cls-1" width="1076" height="339" rx="56.16" ry="56.16"/><line class="cls-2" x1="810.41" y1="132.5" x2="884.41" y2="206.5"/><line class="cls-2" x1="942" y1="132.5" x2="868" y2="206.5"/><path class="cls-3" d="M98.75,189.23h22c0,6.17,6.18,11,13.76,11,7.16,0,12.64-3.23,12.64-9.55,0-3.79-2.11-7.3-10.67-10.11L125,177c-21.34-5.75-25.42-18.81-25.42-27.94,0-17.41,14.89-29.2,34.12-29.2,18.53,0,32.71,11.09,32.71,29.9h-22c0-5.75-3.51-10.67-11.09-10.67-6.88,0-11.37,4.22-11.37,9.55,0,2,.56,6.32,9.54,8.85l10.11,3.08c13.76,4.22,27.8,11.38,27.8,28.93,0,20.77-18,29.62-35.66,29.62C113.07,219.13,98.75,207.06,98.75,189.23Z"/><path class="cls-3" d="M249.54,198.63v19.24H186.22V121.13h62.05v19.24h-40V160.3h35.1v19.8h-35.1v18.53Z"/><path class="cls-3" d="M267.51,121.13h22v77.5h35.52v19.24H267.51Z"/><path class="cls-3" d="M402.29,198.63v19.24H339V121.13H401v19.24H361V160.3h35.1v19.8H361v18.53Z"/><path class="cls-3" d="M412.82,169.29a49.21,49.21,0,0,1,89.86-27.94l-17.13,11.93c-5.06-7.72-12.5-12.49-22.61-12.49-16.28,0-27.93,12.49-27.93,28.5s11.23,28.92,27.79,28.92c10.25,0,17.69-4.77,22.75-12.63l17.13,12.07A49.12,49.12,0,0,1,462,219C434.72,219,412.82,196.81,412.82,169.29Z"/><path class="cls-3" d="M582,140.37H556.45v77.5h-22v-77.5H508.85V121.13H582Z"/></g></g></svg>