<svg xmlns="http://www.w3.org/2000/svg" viewBox="0 0 681 427.5"><defs><style>.cls-1{fill:#f8e7c1;}.cls-2{fill:#7ce5e0;}.cls-3{fill:#ab91e0;}.cls-4{fill:none;stroke:#fff;stroke-linecap:round;stroke-miterlimit:10;stroke-width:12px;}.cls-5{fill:#fff;}</style></defs><title>speech-modal-2</title><g id="Layer_2" data-name="Layer 2"><g id="Layer_1-2" data-name="Layer 1"><rect class="cls-1" width="681" height="371" rx="34.97" ry="34.97"/><path class="cls-2" d="M394,0H35A35.08,35.08,0,0,0,0,35V336a35.08,35.08,0,0,0,35,35H394Z"/><path class="cls-3" d="M680.7,30.5A35.08,35.08,0,0,0,646,0H35A35.08,35.08,0,0,0,.3,30.5Z"/><polygon class="cls-2" points="77.5 361.5 77.5 427.5 172.38 361.5 77.5 361.5"/><line class="cls-4" x1="61.5" y1="155.5" x2="332.5" y2="155.5"/><line class="cls-4" x1="61.5" y1="200.5" x2="332.5" y2="200.5"/><line class="cls-4" x1="61.5" y1="245.5" x2="332.5" y2="245.5"/><line class="cls-4" x1="61.5" y1="290.5" x2="332.5" y2="290.5"/><circle class="cls-5" cx="312" cy="93" r="27.5"/></g></g></svg>