<svg xmlns="http://www.w3.org/2000/svg" viewBox="0 0 341 367"><defs><style>.cls-1{fill:none;stroke:#ab8fe2;stroke-linecap:round;stroke-linejoin:round;stroke-width:5px;}</style></defs><title>Artboard 1</title><g id="speech_modal" data-name="speech modal"><path class="cls-1" d="M98.25,141.92a11.39,11.39,0,1,1,11.39,11.39A11.39,11.39,0,0,1,98.25,141.92Z"/><path class="cls-1" d="M132,141.92h80.07"/><path class="cls-1" d="M108.83,170.47H227.39"/><path class="cls-1" d="M101.87,114a14.78,14.78,0,0,0-14.78,14.78v74.76a14.78,14.78,0,0,0,14.78,14.78h103.5L232.83,253l-.17-34.74h6.47a14.78,14.78,0,0,0,14.78-14.78V128.75A14.78,14.78,0,0,0,239.13,114Z"/></g></svg>