<svg xmlns="http://www.w3.org/2000/svg" viewBox="0 0 340.63 277.72"><defs><style>.cls-1{fill:#1f161e;}.cls-2{fill:#f8cdba;}.cls-3{fill:#ab8fe2;}.cls-4{fill:#fa9e9f;}.cls-5,.cls-7{fill:none;stroke:#1f161e;stroke-linecap:round;stroke-miterlimit:10;}.cls-5{stroke-width:1.2px;}.cls-6{fill:#fadb93;}.cls-7{stroke-width:0.55px;}</style></defs><title>leaning-back</title><g id="Layer_2" data-name="Layer 2"><g id="Vector"><path class="cls-1" d="M329.07,142.66c1.37-.13,9.44-.48,10.68-1.76,2.25-2.32-.43-19.21-1.29-19.93s-2.58-1-3-.3-1.16,7.64-1.71,8.62-7.72,3.25-9.58,2.93"/><path class="cls-1" d="M302.13,157.45c1.18.69,8,5.05,9.74,4.72,3.17-.61,10.7-16,10.41-17s-1.5-2.35-2.28-2-5.35,5.57-6.36,6.05-8.18-1.78-9.52-3.11"/><path class="cls-2" d="M14,240.32c-.73,2.68-4.45,9.79-2.19,21.16,4.87,15.18,15.08,17.75,19.7,15.56S24,259.78,24.7,241.54"/><path class="cls-1" d="M160.42,101.72C179,95.93,308.15,136,310.47,138.54s-7,21.3-10.42,21.3-50.25-13.9-50.25-13.9l-161,47.47C95.13,184.15,138.46,108.58,160.42,101.72Z"/><ellipse class="cls-2" cx="175.86" cy="93.21" rx="11.98" ry="9.83"/><path class="cls-3" d="M43.49,203.68C48.62,227.6,56.24,242.44,69.15,245c38.39,6.48,119.62-55,131.13-64.3,11-2.67,128.63-35.53,129.47-36.87s-2.51-11.51-4.67-12.34S212,139,206.79,140C188.52,142.47,77.72,167.3,43.49,203.68Z"/><path class="cls-2" d="M29.11,60.25c.19,1.77,14.57.19,14.38-1.58l-2-17.9L27.15,42.34Z"/><path class="cls-1" d="M38.13,46.69c-1.4.16-10,5.11-9.7,7.32L27.15,42.34C29.38,42.1,38.13,46.69,38.13,46.69Z"/><circle class="cls-2" cx="38.19" cy="27.54" r="20.29"/><ellipse class="cls-4" cx="57.48" cy="29.63" rx="3.56" ry="1.85" transform="translate(-2.88 6.42) rotate(-6.24)"/><ellipse class="cls-4" cx="35.27" cy="32.07" rx="3.56" ry="1.85" transform="translate(-3.28 4.02) rotate(-6.24)"/><path class="cls-5" d="M48.44,26.77c.76.86,4.59,4.45,1.2,6.44"/><path class="cls-5" d="M43,38.62c-1.06.08-2.84-1-3.84-2.12"/><path class="cls-1" d="M33.17.68C28,2.21,11.91,4.19,7.4,2.66,6.22,4.13,2.6,12.07.91,21.42l9.9,3.91L.36,25.12a38.89,38.89,0,0,0,.69,14.26c4.89,5.08,13,4.49,14.43,4.08C24.52,40.8,22,26,25.6,22.51c6.11-6,17.93-2.47,28.58-7.67C54.4,8.89,45.55-3,33.17.68Z"/><circle class="cls-2" cx="19.79" cy="31.9" r="4.69"/><path class="cls-6" d="M6.14,82.16C15.11,54,61.4,53.4,69.71,56.32s28.53,51.89,31.68,52.79S164.06,84.4,165.63,85.3s7,18.87,6.06,21.34S101.61,136.74,99.36,137c.68,3.6,8.54,26.29,7,30.1s-39.54,34.15-62.84,36.62C39.58,204.09,34,177,34,177c0,5.39-2.47,65.59-4.05,66.26s-18.64,2.92-20.21,1.13S5,85.69,6.14,82.16Z"/><line class="cls-7" x1="34.22" y1="177.4" x2="45" y2="89.12"/><path class="cls-7" d="M106.33,167.06c-2-17.07-15-59.75-16.18-63.92"/></g></g></svg>