<svg xmlns="http://www.w3.org/2000/svg" viewBox="0 0 197.6 388.11"><defs><style>.cls-1{fill:#f8cdba;}.cls-2{fill:#1f161e;}.cls-3{fill:#73e5e2;}.cls-4{fill:#332832;}.cls-5{fill:#fa9e9f;}.cls-6,.cls-7{fill:none;stroke:#1f161e;stroke-linecap:round;stroke-miterlimit:10;}.cls-6{stroke-width:0.69px;}.cls-7{stroke-width:0.55px;}.cls-8{fill:#55b79d;}</style></defs><title>legs-hanging</title><g id="Layer_2" data-name="Layer 2"><g id="Vector"><path class="cls-1" d="M18.73,114.54c-2.22,0-21.53,7.45-18.39,27.35.82,5.94,5.36,8.73,7,8.5s9.78-24.77,13.27-24S18.73,114.54,18.73,114.54Z"/><path class="cls-2" d="M177.13,260.23c-4.45,11.12-104.75,1.44-107.89,5.55S51.14,369.56,49.21,371s-16.42,0-18.59-1.45-.72-118.51,2.17-122.37,47.07-32.82,101.13-31.13S177.13,260.23,177.13,260.23Z"/><path class="cls-3" d="M74.89,101.14c16.92-11.55,78.54-40,85.76-36.52,25,12.17,39.8,143.42,36.49,154.56s-86.72-20.48-86.72-20.48-1.51-68-.3-76.48c-6.93,1.81-37.34,7.83-90.94,6A17.94,17.94,0,0,1,18,110.68C25.51,107.56,65,103.05,74.89,101.14Z"/><path class="cls-2" d="M45.11,365c.73,1.47,5.44,9.9,4.91,12-1,3.74-19.8,11.6-21.08,11.17s-2.69-2-2.18-2.86,7-6,7.68-7.14.21-5.47-1.28-7.17"/><path class="cls-4" d="M71.62,238.41c-.16,1.63-.69,11.27-2.24,12.74-2.8,2.65-22.93-.78-23.79-1.82s-1.22-3.1-.31-3.58,9.14-1.29,10.31-1.94,3.1-4.51,2.74-6.74"/><path class="cls-1" d="M139.94,73.55c-.09,2.81,15.42,3.49,15.51.47L156,55.16l-15.51-.47Z"/><circle class="cls-1" cx="141.79" cy="40.94" r="20.16"/><ellipse class="cls-5" cx="121.34" cy="43.03" rx="1.75" ry="3.36" transform="translate(74.68 163.02) rotate(-88.27)"/><ellipse class="cls-5" cx="142.47" cy="43.66" rx="1.75" ry="3.36" transform="translate(94.54 184.76) rotate(-88.27)"/><path class="cls-6" d="M129.65,39.64c-.65.88-4,4.55-.63,6.17"/><path class="cls-6" d="M135.66,50.42c1,0,2.61-1.18,3.47-2.29"/><path d="M160.15,49.28c2.72-2.56,4.22-25.83,1.8-27.84A9.7,9.7,0,0,0,156,19.59S136.86,0,128.6,0s-7.26,5-7.26,7.53,2.27,18.33,5.39,20a23.76,23.76,0,0,1,6.08-4.66c1.18,1.54,11.77,11.89,21.37,14.94C156.87,42.4,160.15,49.28,160.15,49.28Z"/><path class="cls-7" d="M137.84,119.29c-6.69,1.08-26.74,3.88-26.74,3.88"/><path class="cls-8" d="M166.62,264.47c23.63,0,31-25.59,31-45.09,0-10.26-101.9-93.72-110.33-93.72-24.88,0-32.39,106.73-32.39,111.27s17.37,4.69,19.25,3.91c1.25-3.44,16.74-49.76,16.74-49.76C92.91,194.68,125.77,264.47,166.62,264.47Z"/></g></g></svg>