<svg xmlns="http://www.w3.org/2000/svg" viewBox="0 0 314.8 426.39"><defs><style>.cls-1{fill:#1f161e;}.cls-2{fill:#78e5e1;}.cls-3{fill:#55b79d;}.cls-4{fill:#f8cdba;}.cls-5{fill:#fa9e9f;}.cls-6{fill:none;stroke:#1f161e;stroke-linecap:round;stroke-miterlimit:10;}</style></defs><title>man-sitting-1</title><g id="Layer_2" data-name="Layer 2"><g id="Layer_2-2" data-name="Layer 2"><path class="cls-1" d="M237.87,406.14c0,2.37-1.39,17.32,1.38,18.7s33.21,2.22,34.6.83,2.21-4.29,1-5.12-13-3.18-14.6-4.29-3.81-7-3-10.12"/><path class="cls-2" d="M146.83,210.71,164,204.57c-.74-31.27-8.05-101.14-18.44-111.53-2.43-2.44-50.69-6.68-59.31-6.68-51.38,0-66.61,5.87-70.49,9.74C3.75,108.09,0,163.71,0,183.18s55,29.56,55,29.56l64.47,4.44s14.15,1.45,26.38,2.17C146.11,215.6,146.83,210.71,146.83,210.71Z"/><path class="cls-1" d="M197.9,228.84c4.69-1.39,51.33-9,61.48,1s42.15,153.37,42.15,156.67H275.78L241,311.74"/><path class="cls-3" d="M28.09,216.09c-1.17,5.85-8.2,12.13-8.2,44,0,44.08,36.09,45,49.06,45,40.37,0,105.71-12,110.12-14.19,2.93,4.89,56.86,115,57.1,117.45H261S245.61,243.71,217.85,225C208.83,219,48.79,212.53,28.09,216.09Z"/><path class="cls-4" d="M173.49,183.87c-6.53,0-11.9,1.55-26.66,4.45l-.78,28.24c14-5.64,17.26-13.48,21.32-13.48,10.14,0,15.44,5.23,21.43,5.23,4.18,0,11.69-3.28,11.69-7.74C200.49,191.23,181.56,183.87,173.49,183.87Z"/><path class="cls-1" d="M277.24,384.53c0,2.38-1.39,17.32,1.38,18.71s33.21,2.21,34.6.83,2.21-4.29,1-5.12-13-3.19-14.6-4.29-3.81-7-3-10.13"/><path class="cls-4" d="M95.31,93c0,3.78-21.88,3.89-21.88,0V62.35H95.31Z"/><path class="cls-1" d="M88.19,72.42c-2,0-14.76,5.63-14.76,8.78V64.61C76.61,64.61,88.19,72.42,88.19,72.42Z"/><circle class="cls-4" cx="92.41" cy="47.27" r="26.5"/><path class="cls-1" d="M119.77,26.5c-3.28,5.21-10.14,7.6-17.57,7.6-6.33,0-15.55-1.84-22.12,1.9-3.54,2-7.61,6.55-8.44,15.66,0,1.56-1.76,7.61-1.76,9.56,0,1.34-1.5,2.21-4,2.21-1.29,0-3.83-2.1-3.83-5.29,0-3.69,1.46-5,1.46-8.13s-3.9-6.18-3.9-14.88c0-12.53,8-20.25,13.66-20.25,5.15,0,6.78,1.2,7.43,1.71,0-11.39,15-16.59,21-16.59,6.8,0,10,2.8,10,6.34,0,5.67-2.69,10.47-4.06,11.55a16.79,16.79,0,0,1,11.29-4.31c7.8,0,10.42,5.12,10.42,8.62,0,7.62-9.14,14.67-12.54,14.67a35.65,35.65,0,0,0-3-5.2"/><circle class="cls-4" cx="72.47" cy="50.77" r="5.65"/><ellipse class="cls-5" cx="119.17" cy="49.85" rx="4.38" ry="2.28"/><ellipse class="cls-5" cx="91.63" cy="49.85" rx="4.38" ry="2.28"/><path class="cls-6" d="M108.48,45.12c.82,1.16,5,6.07.58,8.06"/><path class="cls-6" d="M100.24,58.91c-1.32,0-3.35-1.63-4.43-3.11"/><path class="cls-6" d="M135.18,130.08c2,4.26,11.65,45.25,11.65,58.24"/><path class="cls-4" d="M0,179.87c0,46.09.42,59.46,18.93,59.46,42.64,0,107.1-35,118.59-35,10.14,0,15.44,5.23,21.44,5.23,4.17,0,11.69-3.29,11.69-7.74,0-9.34-18.93-16.7-27-16.7-18.16,0-90.68,17.51-92.44,17.51s-4.75-.77-4.75-3.75c0-5.41,3.53-17.9,4-19Z"/><path class="cls-6" d="M61.1,139.67c-1.22,3.51-10.73,39.79-11.84,44.2"/></g></g></svg>