<svg id="Layer_3" data-name="Layer 3" xmlns="http://www.w3.org/2000/svg" viewBox="0 0 341 367"><defs><style>.cls-1{fill:#1f161e;}.cls-2{fill:#73e5e2;}.cls-3{fill:#ab8fe2;}.cls-4{fill:#f8cdba;}.cls-5{fill:none;stroke:#1f161e;stroke-linecap:round;stroke-miterlimit:10;stroke-width:0.55px;}.cls-6{fill:#fa9e9f;}.cls-7{fill:#b37361;}</style></defs><title>Artboard 1</title><path class="cls-1" d="M215.53,327.62c0,1.29-.76,9.45.75,10.2s18.13,1.21,18.88.46,1.21-2.34.53-2.8-7.09-1.73-8-2.34-2.08-3.8-1.63-5.52"/><path class="cls-1" d="M146.6,151.45c-.17,2.1,12.15,74.2,12.07,76.52s-18.87,89.55-18.87,89.55l10.25,4.58s34.63-73.35,35.21-78S152.05,151.43,146.6,151.45Z"/><path class="cls-2" d="M146.6,151.45c.78,2.2,68.06,177,68.06,177h13.25l-47.21-187Z"/><path class="cls-3" d="M157.33,72.31c21.57,0,24,39.12,24,44.63s.71,22.77-.6,24.48c-1.9.9-32.1,11-34.1,10S129.24,72.31,157.33,72.31Z"/><path class="cls-1" d="M146.83,116.41c0,1.77-.39,13.4,2.53,15.65s26.48,5.16,26.48,8.24c0,1.32.43,2.74-2.48,3.71,1.92-.65,7.34-2.59,7.34-2.59a7.62,7.62,0,0,0,.61-3.28C180.79,137.67,146.83,116.41,146.83,116.41Z"/><path class="cls-4" d="M162.82,64.39l-9.34-2S152.44,74,152.32,75s7.55,1.9,7.67,1S162.82,64.39,162.82,64.39Z"/><path class="cls-1" d="M153.18,65.7c0-.22,3,1.74,4.2,2.33s-4.35,1.12-4.71,3.28C152.82,69.71,153.16,66.06,153.18,65.7Z"/><circle class="cls-4" cx="161.05" cy="56.44" r="12.15"/><path class="cls-4" d="M160.84,106.25c-.4,2-1.16,12.19-1.13,15.16,1.26,2.78,21.85,11.52,26.15,12.24,1.7-.05,2.64-1,3.7-1,2.52.05,9.27-.38,9.27.35s-2,5.86-4.5,5.86c-4.21,0-5.65-1.1-7.24-1.2-2.24-.14-3.08.67-5.07.54s-27.11-4.15-31.38-10.52c-4.43-6.62-5.34-23.59-5.32-24.4C146.46,103.59,159.17,106.25,160.84,106.25Z"/><path class="cls-5" d="M145.32,103.3c-.4-7.39.7-21.93,9.43-20.77"/><path class="cls-1" d="M141,317.66c-.38.83-3.85,8.06-2.47,10.53s11.48,7.43,12.69,7,1.46-1.76.51-3.4-4.67-3.31-5.14-4.74.82-5.3,2.16-6.14"/><ellipse class="cls-6" cx="165.84" cy="60.25" rx="2.39" ry="1.24"/><path class="cls-1" d="M152.32,64.72c-2.17-1-4.89-5.34-4.89-11.23,0-15.25,18.44-15,20.31-15.56S173.36,36,174.27,36c3.06,0,4.32,8.36,4.32,9.71,0,5.27-4.36,8.11-5.62,8.28a26.85,26.85,0,0,0-2.12-4.26c-.83.45-13.15,5-15.27,5.51C156.2,57.51,152,62.74,152.32,64.72Z"/><path class="cls-4" d="M172.86,54c.89,0,2.19,3.5,2,4.29s-2.15,1.4-2.93,1.37S171.58,54,172.86,54Z"/><path class="cls-5" d="M165.13,63.26a1.7,1.7,0,0,0,1.43,1.68"/><circle class="cls-4" cx="154.45" cy="55.73" r="3.12"/><rect class="cls-7" x="177.53" y="101.8" width="60.8" height="31.22"/></svg>