<svg xmlns="http://www.w3.org/2000/svg" viewBox="0 0 261.54 569.82"><defs><style>.cls-1{fill:#1f161e;}.cls-2{fill:#55b79d;}.cls-3,.cls-6{fill:none;stroke:#1f161e;stroke-linecap:round;}.cls-3{stroke-linejoin:round;}.cls-4{fill:#f8cdba;}.cls-5{fill:#fa9e9f;}.cls-6{stroke-miterlimit:10;stroke-width:0.69px;}.cls-7{fill:#73e5e2;}</style></defs><title>man-walking</title><g id="Layer_2" data-name="Layer 2"><g id="vector"><path class="cls-1" d="M186,243c-1.12,5.36-21.14,166.57-21.14,166.57l87.94,116.84s-8.88,14.24-11.77,14.45S104.76,437.6,104.76,437.6l57.11-178.91Z"/><path class="cls-1" d="M78.06,555.12c-.37,1.81-2,12.57-4,14-3.45,2.66-25.65-3.46-26.49-4.73s-1-3.61.06-4,10.4-.41,11.78-1,4-4.71,3.84-7.25"/><path class="cls-1" d="M250.18,527.22c1.51,1,10.71,6.87,11.31,9.2,1.07,4.22-13.37,22.16-14.86,22.42s-3.72-.49-3.7-1.66,3.75-9.7,3.76-11.21-2.74-5.53-5.13-6.4"/><path class="cls-2" d="M111.07,75.86c2.12-5.42,77.66,3.76,82.92,9.52S187.48,239.7,186,243c-7.26,1.5-73.9.25-76.9-5.51S91,127.22,111.07,75.86Z"/><path class="cls-2" d="M193.7,85.46c3.06,2.72,42.43,63.43,45,82.54s.84,80,.84,80a35.28,35.28,0,0,1-18.27,5c-4-11.34-21.84-69.94-21.84-69.94l-27.31-55.24"/><path class="cls-2" d="M111.39,75.75c-1.76.93-41.28,80.69-45.44,90.6-8.63,8.64-50.2,53.08-50.2,53.08L19,236.38l70.66-45.72,18.23-22.39"/><path class="cls-3" d="M101.54,176c-1.3-24.48-1.09-52.34,3-75.82"/><line class="cls-3" x1="192.28" y1="168.77" x2="172.07" y2="127.88"/><path class="cls-4" d="M133.15,75.92c-.09,2.91,15.91,3.61,16,.48l.58-19.46-16-.48Z"/><path d="M149.39,68.57c.06-1.74-3.72-7.82-6.81-6.91,3.81-1.21,5.81-5.69,7.16-4.72Z"/><circle class="cls-4" cx="135.06" cy="42.26" r="20.81"/><ellipse class="cls-5" cx="113.95" cy="44.41" rx="1.81" ry="3.47" transform="translate(66.12 156.97) rotate(-88.27)"/><ellipse class="cls-5" cx="135.76" cy="45.07" rx="1.81" ry="3.47" transform="translate(86.62 179.42) rotate(-88.27)"/><path class="cls-6" d="M122.53,40.92c-.67.91-4.12,4.69-.65,6.37"/><path class="cls-6" d="M128.73,52c1,0,2.69-1.21,3.58-2.35"/><path d="M154,50.87c2.81-2.64,4.36-26.67,1.86-28.74a10,10,0,0,0-6.13-1.9S130,0,121.44,0,114,5.15,114,7.78s2.34,18.91,5.56,20.66a24.33,24.33,0,0,1,6.28-4.81c1.22,1.59,12.15,12.27,22.06,15.42C150.63,43.77,154,50.87,154,50.87Z"/><circle class="cls-4" cx="149.71" cy="41.63" r="4.58"/><ellipse class="cls-4" cx="12.16" cy="231.21" rx="13.21" ry="10.61" transform="translate(-148.75 64.74) rotate(-41.02)"/><ellipse class="cls-4" cx="231.1" cy="260.53" rx="12.25" ry="15.03" transform="translate(-11 10.18) rotate(-2.47)"/><path class="cls-7" d="M186,243c-4.5,10.07-7.7,59.18-69.53,165.11-5.59,12.2-33.72,150.83-33.72,150.83l-27-6.27,53.32-315.18"/></g></g></svg>