<svg xmlns="http://www.w3.org/2000/svg" viewBox="0 0 255.64 505.07"><defs><style>.cls-1{fill:#1f161e;}.cls-2{fill:#fadb93;}.cls-3{fill:#f8cdba;}.cls-4{fill:#ab8fe2;}.cls-5{fill:#fa9e9f;}.cls-6,.cls-7{fill:none;stroke:#1f161e;stroke-linecap:round;}.cls-6{stroke-miterlimit:10;stroke-width:0.69px;}.cls-7{stroke-linejoin:round;}</style></defs><title>walking-texting</title><g id="Layer_2" data-name="Layer 2"><g id="vector"><path class="cls-1" d="M128.36,491.82c0,1.48.43,10.18-.83,11.64-2.27,2.64-20.65,1.43-21.51.58s-1.39-2.67-.61-3.19,8.08-2,9.07-2.69,2.35-4.34,1.83-6.3"/><path class="cls-1" d="M251.38,472.9c.63,1.33,4.73,9,4.21,10.87-.92,3.36-18.06,10.11-19.21,9.7s-2.39-1.82-1.91-2.62,6.45-5.25,7.06-6.3.28-4.93-1-6.48"/><path class="cls-1" d="M204,222.4c.31,7.4,1.72,112,1.72,112l48,138.83c-1.4,3.28-14.51,7.73-16.38,7s-79.43-141.18-79.43-141.18"/><path class="cls-2" d="M113.39,222.4c-3.94,2.6.77,269.41.77,269.41,1.59,1.85,14.28,1.58,16.4,0s22.74-127.15,24.86-134.06S204,222.4,204,222.4,119.24,218.54,113.39,222.4Z"/><path class="cls-3" d="M15.81,79.28C13.23,77.47,2.29,64.17,1,59.7S-1.26,38.38,11.5,42.21s7,17.33,16,25.84"/><rect class="cls-1" x="8.42" y="31.25" width="14.77" height="32.18" transform="translate(-26.08 20.2) rotate(-38.6)"/><path class="cls-1" d="M173.89,68.05c3.14,2.92,35.25,57,35.25,63.77s-7.41,47.83-11.67,56.59S173.89,68.05,173.89,68.05Z"/><path class="cls-4" d="M155,53c46.22,0,52.26,162.88,49,169.43s-84.08,5.79-90.63,0S112.49,53,155,53Z"/><path class="cls-3" d="M146.69,58.44c0,2.9,16,3.12,16,0V39h-16Z"/><path d="M162.71,50.59c0-1.73-4-7.7-7-6.69,3.77-1.33,5.63-5.87,7-4.94Z"/><circle class="cls-3" cx="147.59" cy="24.73" r="20.81"/><ellipse class="cls-5" cx="126.55" cy="27.52" rx="3.47" ry="1.81"/><ellipse class="cls-5" cx="148.37" cy="27.52" rx="3.47" ry="1.81"/><path class="cls-6" d="M135,23.77c-.64.93-4,4.82-.46,6.39"/><path class="cls-6" d="M141.56,34.7c1,0,2.65-1.29,3.5-2.46"/><path d="M167.48,12.6C167.48,5.38,157.41,0,150.4,0c-11.16,0-24.76,2.72-27,3.51C119.64,4.82,119,8.83,119,10.17c0,5.62,2,9.12,8.24,10a19.39,19.39,0,0,1,2.18-5.64,7.84,7.84,0,0,1,5.38-.09c1.58.55,14.78,6.77,24.55,6.77,1.3,1.83,4.16,13,3.32,17.74,2.86.17,8.13-9.14,8.4-14a10.7,10.7,0,0,0-4-8.74C167.2,15.16,167.48,13.17,167.48,12.6Z"/><circle class="cls-3" cx="160.27" cy="25.72" r="4.58"/><path class="cls-4" d="M167.15,97c-11.46,17.51-73.42,45.13-79.94,45.13-17.29,0-68.48-56.81-71.4-62.87,3.37-3.6,10.55-11.23,11.67-11.23s49.85,33.68,59.06,33.68S139.4,71,145.08,69.62"/><path class="cls-7" d="M129.64,78.41c7.55-4.69,13.56-8.34,15.44-8.79"/><path class="cls-7" d="M116.67,130.45c20-9.61,43.81-23.23,50.48-33.43"/><path class="cls-1" d="M113.44,155.23c.41-3.91,20.67-33.64,24.58-35.94-4.15,2.31-19.86,10.28-21.35,11.16C115.8,132.78,113.44,155.23,113.44,155.23Z"/></g></g></svg>