<svg xmlns="http://www.w3.org/2000/svg" viewBox="0 0 157.67 565.01"><defs><style>.cls-1{fill:#1f161e;}.cls-2{fill:#ab8de5;}.cls-3{fill:#fbdc8e;}.cls-4{fill:#f8cdba;}.cls-5{fill:#fa9e9f;}.cls-6{fill:none;stroke:#1f161e;stroke-linecap:round;stroke-miterlimit:10;}</style></defs><title>man-leaning</title><g id="Layer_2" data-name="Layer 2"><g id="Man"><path class="cls-1" d="M16.1,218.47C13.57,230.54-4.81,380.26,1.2,416s104,110.69,108.29,112c5-3.67,12.36-15.7,12.36-15.7S50,429.06,48.66,425.72,64.37,229.54,64.37,229.54Z"/><polygon class="cls-2" points="133.12 245.75 59.81 544.76 35.11 544.76 60.14 232.83 133.12 245.75"/><path class="cls-3" d="M81.05,74.55c10.12,0,62.91,1.71,72.45,20.29s.55,104.46-5.38,107.79c-3.2,1.79-4.07.05-5,3.69s-10,39.43-10,39.43c-5.76.16-89.74-12.49-117-27.28.16-4.11,1.48-14.8,1.48-15.62-3.62,1.48-8,1.79-9.21,0-10.63-16.11,5.23-100.1,16.6-117C29.84,78.6,64.81,74.6,81.05,74.55Z"/><path class="cls-1" d="M115.81,205c2.48,0,23.83,15,22,22.37,1.5-5.92,6.22-24.21,6.22-24.21C142,203.48,117.58,205,115.81,205Z"/><path class="cls-4" d="M94.12,84.35c0,3.26-25.71,3.26-25.71,0v-33H94.12Z"/><path class="cls-1" d="M79.36,59.16c2,0,14.76,5.64,14.76,8.78V51.35C90.94,51.35,79.36,59.16,79.36,59.16Z"/><circle class="cls-4" cx="75.85" cy="36.56" r="25.01"/><path class="cls-1" d="M67.39,0C54.55,0,46.54,8.06,46.54,18.39c0,8.59,2.09,13.45,4.54,14.68,1.55-8.34,4.92-12.2,7.71-13.86,2.16,1.66,5.88,5.68,10.84,6.92s17.87,1,28.3,8.58c3.4-3.1,6.81-7.13,6.81-11.88s-2.1-10.71-14.46-14.15C82.13,6.41,81,0,67.39,0Z"/><ellipse class="cls-5" cx="52.48" cy="41.71" rx="4.38" ry="2.28"/><ellipse class="cls-5" cx="80.03" cy="41.71" rx="4.38" ry="2.28"/><path class="cls-6" d="M63.18,37c-.82,1.17-5,6.08-.59,8.06"/><path class="cls-6" d="M71.42,50.78c1.31,0,3.35-1.64,4.42-3.11"/><circle class="cls-4" cx="98.97" cy="39.44" r="5.78"/><path class="cls-6" d="M116.39,123.76c-.45,5.52-2.21,32.8-1.55,36.39-8.39,2.92-85.25,39.36-98.5,43.33"/><path class="cls-6" d="M27.16,115.15c-1.76,6.18-7.72,34.23-3.53,47.26"/><path class="cls-6" d="M46.77,190.74c4,2.81,42.35,19.78,95.35,13.38"/><path class="cls-4" d="M43.11,162.41c2.57.41-5.81-6.28-10.56-3.79S21.4,172.38,22.71,175a3.38,3.38,0,0,0,5,1.66C29,175.82,38.6,161.69,43.11,162.41Z"/><path class="cls-1" d="M121,513.58c1.37,1,13.52,9.22,13.62,14.4S123.33,550.33,121,550.82s-3.94-1.45-3.94-4.92,4.34-9.55,3.76-12.25-6.19-7.64-9.07-7.73"/><path class="cls-1" d="M57.47,544.76c0,2.38,1.38,17.32-1.39,18.71s-33.21,2.21-34.59.83-2.22-4.29-1-5.12,13-3.19,14.59-4.29,3.81-7,3-10.13"/></g></g></svg>