<svg xmlns="http://www.w3.org/2000/svg" viewBox="0 0 249.33 490.57"><defs><style>.cls-1{fill:#1f161e;}.cls-2{fill:#ab8fe2;}.cls-3{fill:#fadb93;}.cls-4{fill:#f8cdba;}.cls-5{fill:#fa9e9f;}.cls-6{fill:none;stroke:#1f161e;stroke-linecap:round;stroke-miterlimit:10;stroke-width:1.08px;}</style></defs><title>man</title><g id="Layer_2" data-name="Layer 2"><g id="Layer_2-2" data-name="Layer 2"><path class="cls-1" d="M52.48,471c-.54,1.37-4.11,9.31-3.48,11.13,1.15,3.29,18.7,8.88,19.82,8.4s2.26-2,1.73-2.74S63.76,483,63.09,482s-.61-4.9.6-6.54"/><path class="cls-1" d="M130.23,194.55c4.44,4,68.77,61,68.77,90.95,0,9.06-18.3,141.85-20.36,144.55h-15.9s-7-110.63-1.43-132.25c-4.13-1.75-42-14.94-58.8-29.08S97.73,200.17,130.23,194.55Z"/><path class="cls-2" d="M130.23,194.55c5,.88-64.13,281.3-64.13,281.3H48.93s6.52-265.41,10.26-278.33C77,192.16,116.78,192.16,130.23,194.55Z"/><path class="cls-3" d="M38.1,87c18.32-12.92,81-12.92,145.94-10.33,7.68.31,29.47-45.81,38.76-52.37,10.23-7.22,26.53-.7,26.53,3.14,0,8.38-11.62,8.58-14.08,11.29s-24.44,67.23-43,76.73c-6,3.08-50.38,2.06-53.48,6.07s-5.94,70.53-8.53,73-63.94,4.52-71,3c-.39-5.17-8.65-48.05-10.72-51.41-1.14-.1-17.65,27.58-17.64,31.07,0,4.6,28.25,43.14,40.09,49.74,3.07,1.7,2.62,6.54,2.06,7.72s-4.79,7-7.43,7S1.39,204.68,0,176.82C-.37,169.29,14.49,103.7,38.1,87Z"/><path class="cls-1" d="M164.87,428.36c0,1.47-.5,10.17.75,11.64,2.25,2.65,20.63,1.59,21.5.74s1.41-2.66.64-3.18-8.06-2.07-9-2.76-2.32-4.36-1.79-6.32"/><path class="cls-4" d="M92.73,82.88c.34,3.94-21.3,6.08-21.66,1.85L68.83,58.39l21.66-1.84Z"/><path d="M70.17,74.12c-.2-2.34,4.47-10.87,8.71-9.86-5.24-1.37-8.29-7.29-10-5.87Z"/><circle class="cls-4" cx="87.63" cy="37.4" r="28.24"/><ellipse class="cls-5" cx="116.41" cy="38.76" rx="4.71" ry="2.45" transform="translate(-2.87 10.01) rotate(-4.87)"/><ellipse class="cls-5" cx="86.89" cy="41.27" rx="4.71" ry="2.45" transform="translate(-3.19 7.52) rotate(-4.87)"/><path class="cls-6" d="M104.52,34.66c1,1.18,5.94,6.05,1.36,8.59"/><path class="cls-6" d="M96.94,50.2c-1.41.07-3.73-1.45-5-2.93"/><path d="M59.34,23.29c-.83-9.77,12.17-18.2,21.65-19C96.07,3,104.52,3.34,112.79.61c11.84-3.9,11.62,12,11.78,13.81.64,7.61-1.73,12.57-10,14.49A26,26,0,0,0,111,21.54a10.61,10.61,0,0,0-7.28.49c-2.07.93-19.21,10.86-32.42,12-1.55,2.61-4.13,18.08-2.44,24.37-3.86.55-12.06-11.43-13-18A14.51,14.51,0,0,1,60.26,28.1C60,26.72,59.41,24.06,59.34,23.29Z"/><circle class="cls-4" cx="70.59" cy="40.2" r="6.22"/><path class="cls-4" d="M70.92,226.92c-11.84-6.6-40.08-45.14-40.09-49.74,0-2.24,6.77-14.41,11.94-22.84L9.69,136.45c-6.38,19-9.87,36.68-9.68,40.37,1.38,27.86,62.9,64.77,65.54,64.77s6.87-5.77,7.43-7S74,228.62,70.92,226.92Z"/><path class="cls-4" d="M222.8,24.34C213.51,30.9,191.72,77,184,76.71c-13.07-.52-5.54-.26-18.08-.48l-.07,41.57c14.55,0,22.21-.19,26.35-2.3,18.57-9.5,40.56-74,43-76.73s14.08-2.91,14.08-11.29C249.33,23.64,233,17.12,222.8,24.34Z"/></g></g></svg>