<svg xmlns="http://www.w3.org/2000/svg" viewBox="0 0 451.51 452.69"><defs><style>.cls-1,.cls-6,.cls-9{fill:none;stroke-linecap:round;}.cls-1{stroke:#d8d8d8;stroke-width:7px;}.cls-1,.cls-6{stroke-linejoin:round;}.cls-2{fill:#1f161e;}.cls-3{fill:#73e5e2;}.cls-4{fill:#55b79d;}.cls-5{fill:#f8cdba;}.cls-6,.cls-9{stroke:#1f161e;}.cls-7{fill:#969696;}.cls-8{fill:#fa9e9f;}.cls-9{stroke-miterlimit:10;stroke-width:0.69px;}</style></defs><title>man-trolley</title><g id="Layer_2" data-name="Layer 2"><g id="vector"><line class="cls-1" x1="360.59" y1="436.24" x2="223.55" y2="208.1"/><path class="cls-2" d="M72.48,211.43c.16,5.16,1.85,73.08,7.85,91.71C71.23,315.35,5.2,401,5,402.9s11,12.22,13,12.22,103.29-82.38,108.46-87.77S134,299.54,134,299.54"/><path class="cls-3" d="M69.59,190.05c0,63.64,81.4,125.94,97.47,134.84,3.21,6.68,55.13,114,56.36,116.94,4.2.49,10.88-1.49,14.09-5.69-1-4.2-25.46-127.07-28.67-134.49s-44-83.91-55.63-98.69"/><path class="cls-2" d="M7.67,405.12c-1,1-7.51,6.87-7.67,8.79-.27,3.47,13.54,15.66,14.76,15.67s2.86-.9,2.69-1.81-4.28-7.14-4.48-8.33,1.41-4.73,3.17-5.75"/><path class="cls-2" d="M224,440.57c.54,1.37,3.36,9.61,5.06,10.5,3.09,1.62,19.72-6.29,20.21-7.41s.3-3-.61-3.18-8.25,1.12-9.42.85-3.79-3.16-4-5.18"/><path class="cls-4" d="M126.71,60.73c20.37,0,28.81,32.91,28.81,42.72,0,15.53-8.88,76.89-2.31,99.51-8.12,1.33-73.35-4.14-83.62-12.91C69.59,128,107.34,60.73,126.71,60.73Z"/><path class="cls-5" d="M152.18,137.18c-12.19,7.06-33.75,9.51-41.89,7.86,20,43.13,80.35,58.41,98.06,63.06,2.88-4.48,6.89-13.14,7.21-19.72C208.09,184.83,165.06,168.49,152.18,137.18Z"/><path class="cls-5" d="M146.08,73.62c3.88-1.08,96.55-19.37,98.64-19.89,1.39,2.79,4.7,13.59,4.7,17.6-4,2.26-93.9,32.12-93.9,32.12"/><path class="cls-5" d="M244.72,53.73c4.63-.95,38.57-8.78,39.41-8.95s1.55-.52,1.68,0c1.36,5.62-8.83,7.59-13.59,8.95,1.36,4.6,1.87,8.22-1.47,10-3,1.62-8.34,3.5-22.06,2.63"/><path class="cls-6" d="M152.18,137.18a47.49,47.49,0,0,1-3.58-15.79"/><path class="cls-6" d="M125.45,80.15c-15.07,0-21.65,25.18-21.65,34.8A70.79,70.79,0,0,0,110.28,145"/><path class="cls-4" d="M155.52,103.45,171.76,98c-2.09-14.94-8.13-25.11-10.14-27.66-8.62,1.74-14.61,3-15.54,3.24"/><ellipse class="cls-5" cx="219.58" cy="200.16" rx="14.91" ry="12.21"/><ellipse class="cls-7" cx="222.07" cy="204.29" rx="6.51" ry="7.14"/><line class="cls-1" x1="362.59" y1="440.24" x2="448.01" y2="388.98"/><circle class="cls-7" cx="362.49" cy="440.9" r="11.79"/><path class="cls-2" d="M154,93.09a74.12,74.12,0,0,1,1.52,10.36c1.85-.64,10.65-3.54,10.65-3.54S157.61,99.24,154,93.09Z"/><path class="cls-2" d="M138.21,177.76c1.12,4,8.51,25-7.48,24.44,6.91.5,18.48,1.48,22.48.76-.28-1-2.23-12.16-2.26-16.89C149.06,185,138.21,177.76,138.21,177.76Z"/><path class="cls-5" d="M138,69.23c-1.43,2.38-14.66-5.32-13.12-7.88l9.58-16,13.13,7.88Z"/><path class="cls-2" d="M128.71,54.92c.85-1.42,8.79-4.92,10.8-2.59-2.43-2.94-3.48-7-5.08-6.93Z"/><circle class="cls-5" cx="151.88" cy="36.76" r="19.88"/><ellipse class="cls-8" cx="170.22" cy="43.07" rx="1.73" ry="3.32" transform="translate(109.79 207.92) rotate(-84.07)"/><ellipse class="cls-8" cx="149.47" cy="40.91" rx="1.73" ry="3.32" transform="translate(93.34 185.36) rotate(-84.07)"/><path class="cls-9" d="M162.53,38.66c.53,1,3.31,5-.19,6.12"/><path class="cls-9" d="M155.25,48.41c-1-.13-2.4-1.49-3.09-2.69"/><circle class="cls-5" cx="135.81" cy="34.29" r="4.38"/><path class="cls-2" d="M138.76,38.15c0,5.82-6.44,9.67-8.61,9.67a2.4,2.4,0,0,1-2.72-2.5c0-2.44,1.44-4.53,4.46-7.17-.53-.91-4.46-5.7-4.46-12.47,0-7.15,4.39-13.14,7.33-13.14A5.7,5.7,0,0,1,140,17.15C140,7.16,150.68,0,157,0c5.93,0,7,2.59,7,4.68,0,4.6-3.62,9.52-5,10.73,3.32-2.45,8.5-4.91,13-4.91,2.82,0,6.42.8,6.42,4.68,0,7.13-6.67,11.25-8.9,12.4A20.56,20.56,0,0,0,166.28,23c.41,1.35-1.24,3.8-4.39,4.35C160.15,27.67,138.76,24.79,138.76,38.15Z"/></g></g></svg>