<svg xmlns="http://www.w3.org/2000/svg" viewBox="0 0 249.22 457.12"><defs><style>.cls-1{fill:#1f161e;}.cls-2{fill:#ab8fe2;}.cls-3{fill:#f8cdba;}.cls-4{fill:#fa9e9f;}.cls-5,.cls-7{fill:none;stroke:#1f161e;stroke-linecap:round;stroke-miterlimit:10;}.cls-5{stroke-width:0.69px;}.cls-6{fill:#fadb93;}.cls-7{stroke-width:0.55px;}</style></defs><title>pushing-holding</title><g id="Layer_2" data-name="Layer 2"><g id="Vector"><path class="cls-1" d="M129.42,436.3c-.53,1.55-4.07,10.53-3.27,12.51,1.44,3.58,21.17,8.86,22.38,8.26s2.41-2.3,1.78-3.12-7.77-5-8.56-6.06-.94-5.39.31-7.26"/><path class="cls-1" d="M3.39,423.1c-.53,1.54-4.07,10.53-3.27,12.5,1.44,3.59,21.17,8.86,22.38,8.27s2.4-2.3,1.77-3.12-7.77-5-8.56-6.06-.93-5.39.32-7.27"/><path class="cls-1" d="M134.3,276.85c-2.18,3.56-30.34,49.87-64,77.51-5.71,10.51-44.16,73.6-48.07,75.1S.91,425,0,422,45.08,329.12,48.68,318,91,216.46,101.55,207.45,136.63,273.05,134.3,276.85Z"/><path class="cls-2" d="M163.61,236.33c5.39,8.43,30,81.91,28,96.74s-45.5,108.52-49.2,109.53-13.48-2.36-15.17-6.4,19.21-112.57,19.21-112.57c-4-4.38-45.41-76.16-42.81-110.9S163.61,236.33,163.61,236.33Z"/><path class="cls-3" d="M183.87,142.28c-.71,2.72-15.77-1-15-4l4.81-18.24,15,4Z"/><path d="M170.81,131c.43-1.63,5.61-6.24,8.22-4.54-3.2-2.18-3.82-6.89-5.35-6.36Z"/><circle class="cls-3" cx="191.36" cy="110.48" r="20.16"/><ellipse class="cls-4" cx="210.37" cy="118.3" rx="1.75" ry="3.36" transform="translate(42.35 291.55) rotate(-75.23)"/><ellipse class="cls-4" cx="189.93" cy="112.9" rx="1.75" ry="3.36" transform="translate(32.33 267.77) rotate(-75.23)"/><path class="cls-5" d="M203.36,112.69c.38,1,2.54,5.49-1.14,6.1"/><path class="cls-5" d="M194.54,121.32c-1-.29-2.16-1.87-2.67-3.18"/><path d="M184,103.21c2.07-4,21.08-5.89,26.34.58a20.16,20.16,0,0,0-39.15,7.64C174.07,110.72,182.05,107.06,184,103.21Z"/><circle class="cls-3" cx="177.92" cy="105.87" r="4.44"/><path class="cls-6" d="M96.85,211.69c2-4.53,65.54-197.06,67.81-198.88s14.23,1.13,14.37,3.63c0,3.9-22.47,103-22,104.88s34.85,25.32,34.85,25.32,33.27-33.14,34.44-35.21S231.8,55,232.62,53.75s13.32-3.15,14-2.45,3.15,59.7,2.45,63.09-35.87,45-37,47-43.23,77.11-46.61,78.86S121,232.58,96.85,211.69Z"/><ellipse class="cls-3" cx="172.89" cy="8.72" rx="8.78" ry="7.57" transform="translate(123.27 174.56) rotate(-76.23)"/><ellipse class="cls-3" cx="239.17" cy="46.97" rx="8.78" ry="7.57" transform="translate(136.61 268.08) rotate(-76.23)"/><path class="cls-7" d="M157,121.32c-3.4-2.18-11.46-5.3-16.79-6.6"/><path class="cls-7" d="M191.87,146.64a38.15,38.15,0,0,1,6.74,4.51"/></g></g></svg>