<svg xmlns="http://www.w3.org/2000/svg" viewBox="0 0 276.9 416.62"><defs><style>.cls-1{fill:#f8cdba;}.cls-2{fill:#1f161e;}.cls-3{fill:#73e5e2;}.cls-4{fill:#fa9e9f;}.cls-5,.cls-7{fill:none;stroke:#1f161e;stroke-linecap:round;stroke-miterlimit:10;}.cls-5{stroke-width:0.69px;}.cls-6{fill:#55b79d;}.cls-7{stroke-width:0.55px;}</style></defs><title>reaching-and-pointing</title><g id="Layer_2" data-name="Layer 2"><g id="Vector"><path class="cls-1" d="M263.56,202.65c.64,1.83,6.85,10.4,9.18,14.19s6.24,14.94,2.81,16.77-9.18.49-11-5.38-8-19.1-10.16-22S263.56,202.65,263.56,202.65Z"/><path class="cls-1" d="M30.43,28.49C27.42,25.63,3.05,0,2.81,0,.54.55-.95,1.65.7,4c.64.91,4.5,5.18,9,10a8.58,8.58,0,0,0,5.54,15.14,8.76,8.76,0,0,0,2.07-.27l3.87,4.59,5.75-2.34-.77-.85Z"/><path class="cls-2" d="M68.35,325.22c.07,1.28,2.37,11.79,1.35,13.11-1.85,2.4-17.84,2.2-18.63,1.49s-1.32-2.25-.68-2.73,6.92-2.11,7.74-2.75,1.85-3.87,1.31-5.55"/><path class="cls-2" d="M179.17,174.39c7,4.92,77,211.85,75.86,215.13s-9.12,5.1-12,3.28-57.25-100.29-60.17-103.21-45.59-47.4-51.42-64.91S179.17,174.39,179.17,174.39Z"/><path class="cls-3" d="M169.42,162.63c4.43,2.32,17.3,15,17.3,28.49,0,38.11-35,45.8-47.48,45.58s-64.05,1.93-83.57-4.64c.84,7.39,7.39,74.07,13.51,93.49-1.48,2.74-9.18,5.16-10.56,4-11.08-9-43.77-104.08-43.14-110.76C16.9,203.71,161.31,164.59,169.42,162.63Z"/><path class="cls-1" d="M126.92,96.34c-.63,2.74,14.43,6.45,15.12,3.5l4.26-18.38L131.18,78Z"/><path d="M143.75,92.44c.38-1.64-2.05-8.14-5.15-7.85,3.84-.44,6.6-4.31,7.7-3.13Z"/><circle class="cls-1" cx="135.15" cy="64.72" r="20.16"/><ellipse class="cls-4" cx="114.68" cy="62.76" rx="1.75" ry="3.36" transform="translate(27.65 160.3) rotate(-76.95)"/><ellipse class="cls-4" cx="135.28" cy="67.53" rx="1.75" ry="3.36" transform="translate(38.94 184.06) rotate(-76.95)"/><path class="cls-5" d="M123.5,61.07c-.82.73-4.81,3.67-1.84,5.93"/><path class="cls-5" d="M127.27,72.82c1,.19,2.79-.65,3.85-1.56"/><path d="M145,61.71c.05-4.55-15.9-15.05-23.58-11.78a20.16,20.16,0,0,1,31.06,25C150.32,73,145,66,145,61.71Z"/><circle class="cls-1" cx="149.18" cy="66.91" r="4.44"/><path class="cls-6" d="M28.81,27c2.14,1.88,44.6,43.86,51.77,45.6,24.16,5.86,102.34,29.27,129,50.7,27.84,17.14,57.4,77.53,56.33,79.67s-12.88,7.24-15.29,6.17-35.41-46.75-40.51-49.66-44.79-22.5-44.79-22.5c1.87,4.56,7.24,23.88,6.43,26.56s-18.1,14.31-49.62,17.17c-3.22-1.88-12.61-56.33-12.61-56.33-6.71-3-51.11-26.63-60.89-38.9-3.79-4.76-32.46-48.82-32.46-51S28.81,27,28.81,27Z"/><path class="cls-7" d="M130.49,134.86c-2.79-1.14-20.8-10.53-20.8-10.53"/><path class="cls-7" d="M146.83,93.81c1.9,2.31,15.36,30.19,18.49,43.51"/><path class="cls-2" d="M253.52,389.32c1.09,1,3.73,5.43,3.86,7.08.65,7.9-7.9,20.21-9.28,20.22-4,0-6.07-2.12-6.07-4.6s3-5.51,3-7.17-.37-11.58-.65-13.05"/></g></g></svg>