<svg xmlns="http://www.w3.org/2000/svg" viewBox="0 0 366.59 546.31"><defs><style>.cls-1{fill:#1f161e;}.cls-2{fill:#f8cdba;}.cls-3{fill:#ab8de5;}.cls-4{fill:#fbdc8e;}.cls-5{fill:#fa9e9f;}.cls-6,.cls-7{fill:none;stroke:#1f161e;stroke-linecap:round;stroke-miterlimit:10;}.cls-6{stroke-width:1.2px;}</style></defs><title>Running woman</title><g id="Layer_2" data-name="Layer 2"><g id="Layer_2-2" data-name="Layer 2"><path class="cls-1" d="M191,245c-2.62,7.84-28,111-32.91,116S15.7,437.18,15.7,437.18L25,460.78s144.07-46,151.53-50.08,64.25-53.9,72.92-74.84S201,244.68,191,245Z"/><path class="cls-1" d="M329,526.06c0,2.38-1.39,17.32,1.38,18.71s33.21,2.21,34.6.83,2.21-4.29,1-5.12-13-3.19-14.6-4.29-3.81-7-3-10.13"/><path class="cls-1" d="M16.75,439.45C14.56,440.36.22,444.81,0,447.9s10.69,31.52,12.5,32.27,4.81.4,5.1-1.07S15.56,465.87,16,464s5-6.19,8.2-6.64"/><path class="cls-2" d="M323.72,186.13c-3,.86-26.67,6.76-29.12,6.76s-5.9,23.81-3.44,23.58,33.54-9.58,41.28-10.31S323.72,186.13,323.72,186.13Z"/><path class="cls-3" d="M237,83c17.68-1.67,50.34,6.83,60.61,12.72C317.87,107.29,294.51,256.87,284,268c-9.4,3.71-89-15-93-23,2.12-16.05,33.69-71.47,36.69-74.47-2-2-11-13-11-13s8.1-10.87,9-11.48c-2.58-1.72-28.36-22.09-29.79-23.23C201.06,115.18,231.06,83.53,237,83Z"/><path class="cls-2" d="M262.4,212.87c-1.39-3.4-44.12-53.38-45.67-55.38,2.34-3.25,6.2-8.22,9.36-12-12.19-8.9-25.28-19-30-23.08a3.62,3.62,0,0,0-.22.32c-2.13,2.54-21.14,31-21.14,35s58.16,60.62,65.41,63.4S263.78,216.26,262.4,212.87Z"/><ellipse class="cls-2" cx="255.32" cy="220.02" rx="15.5" ry="16.98" transform="translate(-68.55 313.33) rotate(-56.82)"/><circle class="cls-2" cx="330.58" cy="195.14" r="13.8"/><path class="cls-4" d="M284,268s40.45,79.36,46.64,95.86,21.29,163.23,21.29,163.23-20.16,2.38-25.57,0-27.89-109.12-40.28-130.95C267.23,362.86,164.78,300.84,191,245"/><path class="cls-2" d="M253.73,91.14c-.47,2.6,20.68,6.39,21.15,3.79L279.6,68.6l-21.15-3.79Z"/><path class="cls-1" d="M272.27,75.62c-2.06-.37-16.31,3.1-16.89,6.35l3.07-17.16C261.74,65.4,272.27,75.62,272.27,75.62Z"/><circle class="cls-2" cx="280.39" cy="48.36" r="30.13"/><ellipse class="cls-5" cx="307" cy="59.44" rx="2.75" ry="5.28" transform="translate(194.28 351.12) rotate(-79.83)"/><ellipse class="cls-5" cx="274.33" cy="53.58" rx="2.75" ry="5.28" transform="translate(173.15 314.14) rotate(-79.83)"/><path class="cls-6" d="M295.32,51.56c.72,1.55,4.67,8.27-1,9.68"/><path class="cls-6" d="M282.61,66.16c-1.55-.33-3.62-2.65-4.58-4.63"/><path class="cls-7" d="M224.44,147.52c2.76-3.08,13.06-15.75,17.42-19.32"/><path class="cls-1" d="M284.5,8c-8,0-31.74-3.92-37.53-8-2.3,1.61-10.78,11.4-17.11,24l12.46,9.73-14.8-4.69a58,58,0,0,0-5,20.6c4.84,9.29,16.68,11.87,18.84,11.87,14,0,16.6-22.07,23.2-25.59,11.23-6,26.58,4,43.94,1.06C311.3,28.6,303.67,8,284.5,8Z"/><circle class="cls-2" cx="252.36" cy="46.85" r="6.96"/><path class="cls-1" d="M228.71,212.28c-2.56-2.35-26,1.23-31,13.62,6.51-14.26,12.61-26,14.42-28.87C214.06,198.87,228.71,212.28,228.71,212.28Z"/><path class="cls-1" d="M300.9,193.68c-.55,4,3.06,19.36,10.54,17.38l-13.69,3.75Z"/></g></g></svg>