<svg xmlns="http://www.w3.org/2000/svg" viewBox="0 0 384.44 239.53"><defs><style>.cls-1{fill:#1f161e;}.cls-2{fill:#fadb93;}.cls-3{fill:#ab8fe2;}.cls-4,.cls-7{fill:none;stroke:#1f161e;stroke-linecap:round;stroke-miterlimit:10;}.cls-4{stroke-width:0.55px;}.cls-5{fill:#f8cdba;}.cls-6{fill:#fa9e9f;}.cls-7{stroke-width:0.69px;}</style></defs><title>sitting-leaning</title><g id="Layer_2" data-name="Layer 2"><g id="Vector"><path class="cls-1" d="M18.53,235.79c-2,.05-13.89.94-15.93-.72-3.7-3-2.7-28.19-1.56-29.4s3.59-2,4.33-.95,3,11,4,12.31,6,3.07,8.68,2.28"/><path class="cls-1" d="M256.11,175.45c-2.75-3.25-96.87-73-115.42-72.64s-72.83,113-71.8,116.79,29.76-2.43,33.86-5.88,32.75-33.77,39.87-49.1c2.8,4.06,25.86,30.78,32.75,35.09S256.11,175.45,256.11,175.45Z"/><path class="cls-2" d="M15.52,236.46c1.56,1.24,273.32,6.24,295.78,0s28.39-5.62,28.08-18.72-44-46.49-49.61-46.49c-8.6,0-97.08,7-167.25,32.89-28,4.58-105,13.22-105,13.22C16.26,221.94,14,230.38,15.52,236.46Z"/><path class="cls-3" d="M354,49.28c14.65,6.49,32.67,90.36,30.22,93.11S361,154.6,361,154.6c-.4,20.42-17.7,69.3-22.89,71.43-36.48-10.38-58.92-42.73-58.92-51.59s-27.78-2.07-29.92-4.54a15.56,15.56,0,0,0-3.37-2.62s15-13,26.73-21.44c-.41-3.61-3.55-71.26.5-77.62C281.19,55.61,335.74,41.19,354,49.28Z"/><path class="cls-4" d="M361.13,154.58c-4,1.89-40.33,17.55-56.23,20.87"/><path class="cls-4" d="M338.36,100.48c1.89,4,13.52,27.05,12.1,29.42S282.82,163.12,277,165"/><path class="cls-4" d="M283.44,94.55c-.37,8.54-.13,50.3,1.29,65.72"/><path class="cls-5" d="M277,165c.6,1.25,4.78,13.32,5.22,15.94s-16.66,6.08-22.62,5.79-13.23-5.82-13.23-12.36S255.32,163.2,277,165Z"/><path class="cls-5" d="M301.09,58.29c.6,2.85,16.32-.21,15.69-3.27L312.8,36l-15.68,3.27Z"/><path d="M315.17,47.34c-.35-1.69-5.45-6.72-8.23-5.12,3.41-2.07,4.31-6.89,5.86-6.26Z"/><circle class="cls-5" cx="295.09" cy="25.12" r="20.81"/><ellipse class="cls-6" cx="275.07" cy="32.15" rx="3.47" ry="1.81" transform="translate(-0.76 56.89) rotate(-11.79)"/><ellipse class="cls-6" cx="296.43" cy="27.69" rx="3.47" ry="1.81" transform="translate(0.6 61.16) rotate(-11.79)"/><path class="cls-7" d="M282.59,26.75c-.44,1-2.91,5.52.85,6.34"/><path class="cls-7" d="M291.22,36.11c1-.24,2.33-1.81,2.93-3.13"/><path d="M312.08,9.18C310.6,2.11,299.64-1.1,292.78.33c-10.92,2.28-23.67,7.72-25.71,9-3.41,2.06-3.18,6.1-2.9,7.42,1.15,5.5,3.87,8.5,10.11,8.11a19.06,19.06,0,0,1,1-6,7.87,7.87,0,0,1,5.25-1.19c1.65.22,15.85,3.61,25.41,1.61,1.65,1.52,6.74,11.89,6.88,16.69,2.83-.43,6.09-10.62,5.35-15.45a10.67,10.67,0,0,0-5.7-7.74C312.33,11.74,312.19,9.74,312.08,9.18Z"/><circle class="cls-5" cx="307.71" cy="23.49" r="4.58"/></g></g></svg>