<svg xmlns="http://www.w3.org/2000/svg" viewBox="0 0 194.42 390.31"><defs><style>.cls-1{fill:#1f161e;}.cls-2{fill:#f8cdba;}.cls-3{fill:#73e5e2;}.cls-4{fill:#55b79d;}.cls-5,.cls-7,.cls-8{fill:none;stroke-linecap:round;}.cls-5,.cls-7{stroke:#1f161e;stroke-miterlimit:10;}.cls-5{stroke-width:0.55px;}.cls-6{fill:#fa9e9f;}.cls-7{stroke-width:0.69px;}.cls-8{stroke:#d8d8d8;stroke-linejoin:round;stroke-width:4px;}.cls-9{fill:#969696;}</style></defs><title>skating</title><g id="Layer_2" data-name="Layer 2"><g id="Vector"><path class="cls-1" d="M53.89,354.48c0,1.64-.76,11.27.58,12.92,2.44,3,22.85,2.19,23.83,1.26s1.61-2.91.77-3.51-8.9-2.45-10-3.25-2.49-4.87-1.86-7"/><path class="cls-1" d="M120.92,354.48c0,1.64-.77,11.27.58,12.92,2.44,3,22.84,2.19,23.82,1.26s1.62-2.91.77-3.51-8.89-2.45-10-3.25-2.49-4.87-1.85-7"/><path class="cls-2" d="M142.62,179.76a12.45,12.45,0,0,0-1.28,5.62c0,5.23,2.92,9.47,6.51,9.47s6.51-4.24,6.51-9.47a12.45,12.45,0,0,0-1.28-5.62Z"/><path class="cls-1" d="M136.9,354.62c2-2.33,7.7-174.88,7.7-174.88l-21.22-.46s-17,47.11-17,49.13,8.71,42,12,52.54c.21,5.73-.85,72.6.85,74.19S134.91,357,136.9,354.62Z"/><path class="cls-3" d="M128,181.86c0,9.89-32,81.66-38.12,90.58-3.72,11.88-18.58,80.23-20.74,81.85s-15.94,3.24-17.56,0S72,193.89,76,174,128,162.18,128,181.86Z"/><path class="cls-4" d="M81,69c6.5-7.5,63.31-12.21,70-7,13.5,10.5,4,117,3,121-1,2-8-2-8-2-1,1-51,3-70-7,0-5,3-26,3-26-4,0-15-3-17-6S73.35,77.81,81,69Z"/><path class="cls-5" d="M78.44,149c4.35.77,37.9,3.26,49.54,2.33"/><path class="cls-5" d="M129.75,140.3C98,133.45,82.89,137.14,93,106.94"/><path class="cls-5" d="M147.65,102.41c-.17,2.85-2.18,78.69-2.18,78.69"/><path class="cls-2" d="M130.27,63.56c0,2.61-14.34,2.76-14.33,0l0-17.42,14.33,0Z"/><path class="cls-1" d="M116,56.51c0-1.55,4.71-8.18,7.44-7.27-3.37-1.2-6.17-4-7.41-3.14Z"/><circle class="cls-2" cx="129.85" cy="34.41" r="18.61"/><ellipse class="cls-6" cx="147.02" cy="40.32" rx="1.62" ry="3.11" transform="translate(91.73 182.39) rotate(-84.07)"/><ellipse class="cls-6" cx="127.61" cy="38.3" rx="1.62" ry="3.11" transform="translate(76.32 161.26) rotate(-84.07)"/><path class="cls-7" d="M139.83,36.2c.49.88,3.1,4.65-.18,5.73"/><path class="cls-7" d="M133,45.32c-.92-.12-2.24-1.4-2.89-2.51"/><circle class="cls-2" cx="114.81" cy="32.1" r="4.1"/><path class="cls-1" d="M117.58,35.71c0,5.46-6,9-8.06,9A2.25,2.25,0,0,1,107,42.43c0-2.29,1.34-4.24,4.17-6.72C110.65,34.86,107,30.38,107,24c0-6.69,4.11-12.3,6.86-12.3a5.33,5.33,0,0,1,4.88,4.31c0-9.35,10-16,16-16,5.55,0,6.51,2.42,6.51,4.38,0,4.31-3.4,8.92-4.67,10.05,3.11-2.29,8-4.6,12.16-4.6,2.65,0,6,.75,6,4.38,0,6.67-6.25,10.53-8.34,11.61a18.62,18.62,0,0,0-3-4.26c.39,1.26-1.15,3.55-4.1,4.06C137.6,25.91,117.58,23.21,117.58,35.71Z"/><path class="cls-1" d="M155.93,158.69H144.75s-3.41-31.76-3.41-34.25,17.77-2.18,17.77,0S155.93,158.69,155.93,158.69Z"/><path class="cls-2" d="M148.08,135.22c1.59,0,10.68,2.15,10.68,6.83,0,5.75-7.13,7.71-8.53,7.71-7.53,0-9.65-1.29-21.67-1.29,0-1.41.26-7.87,1.93-8.5C132.53,140,138.32,135.22,148.08,135.22Z"/><path class="cls-8" d="M192.42,366.09a21.32,21.32,0,0,1-16,7.25H17.91A21.33,21.33,0,0,1,2,366.19"/><circle class="cls-9" cx="34.24" cy="383.57" r="6.74"/><circle class="cls-9" cx="160.18" cy="383.57" r="6.74"/></g></g></svg>