<svg xmlns="http://www.w3.org/2000/svg" viewBox="0 0 335.78 377.27"><defs><style>.cls-1{fill:#1f161e;}.cls-2,.cls-6,.cls-8{fill:none;stroke-linecap:round;}.cls-2{stroke:#969696;stroke-linejoin:round;stroke-width:4px;}.cls-3{fill:#f8cdba;}.cls-4{fill:#fadb93;}.cls-5{fill:#ab8fe2;}.cls-6,.cls-8{stroke:#1f161e;stroke-miterlimit:10;}.cls-6{stroke-width:0.55px;}.cls-7{fill:#fa9e9f;}.cls-8{stroke-width:0.69px;}.cls-9{fill:#d8d8d8;}.cls-10{fill:#969696;}</style></defs><title>suitcase-walking</title><g id="Layer_2" data-name="Layer 2"><g id="Vector"><path class="cls-1" d="M113,337.42c-1.06,1.25-7.67,8.28-7.67,10.41,0,3.86,16.39,16.07,17.74,16s3.08-1.25,2.8-2.24-5.37-7.5-5.71-8.8,1.13-5.35,3-6.63"/><path class="cls-1" d="M307.47,350.41c.83,1.41,5.33,9.94,7.35,10.63,3.66,1.24,20.52-10.28,20.86-11.59s-.18-3.32-1.21-3.38-8.84,2.64-10.18,2.54-4.7-2.8-5.31-5"/><line class="cls-2" x1="145.37" y1="219.5" x2="46.28" y2="372.94"/><path class="cls-3" d="M301.51,180.56c1.21,1,9.05,12.19,8,22.38-.41,4-2,6.33-5.71,6.33a7.21,7.21,0,0,1-6.94-5.27c-1.59-5,1.58-12.83-1.5-18.8"/><path class="cls-3" d="M134,193c-1.9,2.35-2.69,14.45-.67,18.93s8.06,12.78,10.42,12.78,8.3-6.95,7.9-9.3-7.45-16.36-7.57-20.06S134,193,134,193Z"/><path class="cls-1" d="M251.36,164.92c30.48,39.06,71,173.81,71,177.72s-13.52,10.81-16.82,9.61-30.64-56.17-35.45-61.58-49-69.38-50.46-73.89S245.8,159.3,251.36,164.92Z"/><path class="cls-1" d="M186.3,180.56c-20.18-.55-34.67-14.67-34.67-51,0-15,25-60.16,29.9-77.22,2.56-8.81.5-34.73,13.57-47.92,6.3-6.35,34-4.84,41.15-1.86s6.3,12,5.57,13.41c-1.7-1.43-5.45-4.36-6.12-4.27-3.51.43-13.09,11.21-16,16.17-2.36,4,2.24,30.29-2.37,37.39s-21.89,1.92-21.89,1.92"/><path class="cls-4" d="M247.79,166.36c-18.08,53.45-39.61,90.5-43.65,95.82s-76.66,84.75-80.28,85.18-12.35-8.1-12.78-10,52.38-87.21,56.22-90.46,16.61-83.3,18.1-85.22S247.79,166.36,247.79,166.36Z"/><circle class="cls-3" cx="217.29" cy="28.45" r="4.01"/><path class="cls-5" d="M185.55,63.29c7.51-5.36,66.09-6.54,70.76-2.33S268.92,114.9,271,118.87s32.7,59.55,32.23,61.65-6.77,6.78-8.87,6.31-36.2-29-38.77-36.43c-.47,8.41-.55,17.45-1.88,17.81-22.09,5.87-60.39,1.92-69.79-2.07,0-4.59,1.78-34.9,1.31-43.15-20.34,23.91-35.41,58.41-39.91,75.72-2.54,1-12.85-1.7-12.67-4.78C136.82,120,180.12,67.17,185.55,63.29Z"/><path class="cls-6" d="M185.29,122.94c1.8-2.36,14.43-18,14.43-18"/><path class="cls-6" d="M257.63,92.91c.17,3.94-.35,35.75-1.88,57.12"/><path class="cls-3" d="M233.13,64.62c0,3.3-14.28,3.55-14.28,0V42.5h14.28Z"/><path class="cls-1" d="M218.49,52.88c0-1.52,5.15-9.74,7.82-8.86-3.29-1.17-6.61-2.13-7.82-1.31Z"/><path class="cls-3" d="M242,15.53a2.39,2.39,0,0,1-.17.45c-1.7-1.43-5.45-4.36-6.12-4.27-3.51.43-13.09,11.21-16,16.17-1.1,1.84-.9,8.19-.83,15.17A18.17,18.17,0,0,0,242,15.53Z"/><ellipse class="cls-7" cx="246.78" cy="30.03" rx="3.04" ry="1.58"/><ellipse class="cls-7" cx="227.7" cy="30.03" rx="3.04" ry="1.58"/><path class="cls-8" d="M239.37,26.75c.57.81,3.48,4.21.41,5.59"/><path class="cls-8" d="M233.66,36.31c-.91,0-2.32-1.13-3.07-2.15"/><path class="cls-9" d="M34.24,248.8H84.42a0,0,0,0,1,0,0V353.51A15.5,15.5,0,0,1,68.92,369H34.24a10.5,10.5,0,0,1-10.5-10.5V259.3a10.5,10.5,0,0,1,10.5-10.5Z" transform="translate(176.24 20.07) rotate(32.86)"/><circle class="cls-10" cx="54.74" cy="369.34" r="7.93"/></g></g></svg>