<svg xmlns="http://www.w3.org/2000/svg" viewBox="0 0 221.36 352.85"><defs><style>.cls-1,.cls-8,.cls-9{fill:none;stroke-miterlimit:10;}.cls-1{stroke:#969696;stroke-width:2px;}.cls-2{fill:#d8d8d8;}.cls-3{fill:#f8cdba;}.cls-4{fill:#1f161e;}.cls-5{fill:#55b79d;}.cls-6{fill:#73e5e2;}.cls-7{fill:#fa9e9f;}.cls-8,.cls-9{stroke:#1f161e;stroke-linecap:round;}.cls-8{stroke-width:0.69px;}.cls-9{stroke-width:0.55px;}</style></defs><title>walking-with-handbag</title><g id="Layer_2" data-name="Layer 2"><g id="Vector"><circle class="cls-1" cx="171.53" cy="207.8" r="8.18"/><rect class="cls-2" x="160.54" y="206.5" width="41.32" height="63.07" rx="10.88" ry="10.88" transform="translate(-63.88 66.48) rotate(-17.73)"/><path class="cls-3" d="M63.22,103.76c-1.13.76-5.2,3.88-6.72,4S23.56,90.31,18.73,85.39,5.48,71.19,4,71.19,1.78,73,1.78,74.41c0,9.94,49,56,59.33,56,3.06,0,12-5.21,13-6.82S63.22,103.76,63.22,103.76Z"/><path class="cls-4" d="M73.05,342.45c-.28,1.29-1.62,8.94-3,10-2.49,1.85-18.26-2.8-18.84-3.71s-.69-2.59.09-2.89,7.43-.17,8.42-.57,2.91-3.32,2.84-5.13"/><path class="cls-4" d="M173.12,332c.64,1.16,4.7,7.78,4.35,9.46-.64,3-15.55,10-16.59,9.68s-2.23-1.49-1.84-2.22,5.46-5,5.94-6,0-4.41-1.27-5.72"/><path class="cls-4" d="M133.72,149.35c4.73,5.8,10,67.18,9,95.25,2.44,3.86,30.51,84.61,30.51,87.46s-7.32,6.51-9.15,5.7-59.4-95-60.41-100.69S133.72,149.35,133.72,149.35Z"/><path class="cls-5" d="M96.23,142.25c-1,2.74-36.11,195-36.11,197.57,1.54,3.34,12.68,5,15.43,3.39s26.87-87.72,28.63-91.25,47.73-73.11,29-106.9C130.78,140.84,96.23,142.25,96.23,142.25Z"/><path class="cls-6" d="M154.15,121.4c.14-4.23-23.1-57.55-36.4-57.55-1.75-6.83-8.48-6.62-11-6.62C94,57.23,88.47,68,86.81,82.08c-6,4.66-25.36,18.92-25.68,21.59-.37,3.07,6.26,19.9,13,22.35,3.7,1.39,10.12-10,13.73-12.11,2.43,17,6.65,31.87,8.45,32.78,9.58,4.88,36.91,1.76,37.79.73s-.88-8.62-1.17-11.54C135,132.08,154,125.64,154.15,121.4Z"/><path class="cls-4" d="M83.79,32.34c-1.19-.11-5.17-5.06-3.05-16.14,2.57-3.36,11.08-4.43,11.33-.61S87.41,32.65,83.79,32.34Z"/><path class="cls-3" d="M101.57,62.79c.3,2.18,12.37.7,12.05-1.66l-2-14.64-12,1.65Z"/><path d="M112.81,55.24c-.18-1.31-3.78-5.39-6-4.32,2.7-1.38,3.63-5,4.77-4.43Z"/><circle class="cls-3" cx="98.77" cy="37.35" r="15.79"/><ellipse class="cls-7" cx="83.24" cy="41.62" rx="2.64" ry="1.37" transform="translate(-4.89 11.71) rotate(-7.82)"/><ellipse class="cls-7" cx="99.65" cy="39.37" rx="2.64" ry="1.37" transform="translate(-4.43 13.92) rotate(-7.82)"/><path class="cls-8" d="M89.22,37.92c-.39.77-2.5,4,.31,4.86"/><path class="cls-8" d="M95.26,45.47a4.59,4.59,0,0,0,2.38-2.21"/><path class="cls-4" d="M104.51,3.31c20.9,0,35.9,3.44,45.68,3.44C165.24,6.75,177.12,0,194,0c7.69,0,27.37,6.53,27.37,28.65,0,12.53-7,37.43-36.92,37.43-25.63,0-30.1-10.84-40.49-10.84-10.95,0-31.32,5.16-34.75-8.81-.75-3.71-1.59-8.26-3.65-12-11.43-4-15.14-3.64-20.55-6.83C77.19,23.88,76.82,3.31,104.51,3.31Z"/><circle class="cls-3" cx="108.41" cy="36.78" r="3.48"/><path class="cls-9" d="M132.83,136.1c-.72.66-3,3.9-3.78,3.06s-28.86-66-19.65-72.46"/><path class="cls-9" d="M87.88,113.91c-.38-2.13-2.3-24.85-1.07-31.83"/><path class="cls-3" d="M152.86,121.12c.84,1.43,11.12,57.5,13.2,61.93s4.61,7.08,6,8.95c3.14,4.34.41,12.23-1.53,12.68s-7.27-.89-12.3-10.42c-1.29-2.44-.36-8.68-1.72-10.3s-24.05-43.22-24.41-49.73S152.86,121.12,152.86,121.12Z"/><rect class="cls-4" x="4.01" y="61.12" width="2.17" height="19.51" transform="translate(-29.38 8.74) rotate(-24.91)"/></g></g></svg>