<svg xmlns="http://www.w3.org/2000/svg" viewBox="0 0 170.91 452.65"><defs><style>.cls-1{fill:#1f161e;}.cls-2{fill:#fadb93;}.cls-3{fill:#f8cdba;}.cls-4{fill:#fa9e9f;}.cls-5,.cls-7{fill:none;stroke:#1f161e;stroke-linecap:round;stroke-miterlimit:10;}.cls-5{stroke-width:0.69px;}.cls-6{fill:#ab8fe2;}.cls-7{stroke-width:0.55px;}</style></defs><title>waving</title><g id="Layer_2" data-name="Layer 2"><g id="Vector"><path class="cls-1" d="M119,435.82c.21,1.63,1.91,11.13.73,12.91-2.12,3.23-22.5,4.5-23.57,3.67s-1.9-2.73-1.12-3.41,8.6-3.34,9.59-4.24,2-5.1,1.13-7.19"/><path class="cls-1" d="M24.27,423.24c.21,1.62,1.9,11.13.73,12.91-2.12,3.22-22.5,4.49-23.57,3.67s-1.9-2.73-1.12-3.41,8.6-3.35,9.59-4.25,2-5.1,1.13-7.18"/><path class="cls-1" d="M57.59,174.23c-1.49,4.48-25.77,139.12-27.3,146.42S5.45,419.74,7.47,422.78s16.23,7.1,19.78,5.07,65.42-140,70-157.2,0-107.15,0-107.15Z"/><path class="cls-2" d="M76.11,175.23c.94,7.37,15.18,128.88,19.37,148.08s.35,112,3.45,113.45c4,3.3,24.78,3.3,24.78,3.3,3.77-3.3,17.1-255.82,17.1-255.82S107.69,154.5,76.11,175.23Z"/><path class="cls-3" d="M88.34,77.27c0,2.6,14.34,2.75,14.33,0l0-17.42-14.33,0Z"/><path class="cls-1" d="M102.65,70.21c0-1.55-4.71-8.17-7.44-7.27,3.37-1.2,6.17-4,7.41-3.13Z"/><circle class="cls-3" cx="88.75" cy="48.11" r="18.61"/><ellipse class="cls-4" cx="71.58" cy="54.02" rx="3.11" ry="1.62" transform="matrix(0.99, -0.1, 0.1, 0.99, -5.2, 7.69)"/><ellipse class="cls-4" cx="91" cy="52" rx="3.11" ry="1.62" transform="translate(-4.89 9.68) rotate(-5.93)"/><path class="cls-5" d="M78.78,49.9c-.5.88-3.1,4.65.17,5.73"/><path class="cls-5" d="M85.6,59c.92-.12,2.24-1.39,2.89-2.51"/><circle class="cls-3" cx="103.8" cy="45.8" r="4.1"/><path class="cls-1" d="M101,49.42c0,5.45,6,9,8.06,9a2.25,2.25,0,0,0,2.55-2.34c0-2.28-1.35-4.24-4.17-6.71.49-.85,4.17-5.34,4.17-11.67,0-6.7-4.11-12.31-6.86-12.31a5.33,5.33,0,0,0-4.88,4.32c0-9.36-10-16.06-16-16.06-5.56,0-6.51,2.42-6.51,4.39,0,4.3,3.39,8.91,4.67,10-3.11-2.29-8-4.6-12.17-4.6-2.64,0-6,.75-6,4.39,0,6.67,6.25,10.53,8.34,11.61a18.81,18.81,0,0,1,3-4.27c-.38,1.26,1.16,3.55,4.11,4.07C81,39.61,101,36.91,101,49.42Z"/><path class="cls-3" d="M49.47,20.6a89.63,89.63,0,0,1-9.58-3.68C38.5,16.1,44.47,6.05,47.24,3.14s8.49-4.4,11.48-1.8S59.86,10.34,49.47,20.6Z"/><path class="cls-6" d="M131.24,75.54C149.57,86,170.91,148.23,170.91,153s-39,76.19-41.34,76.19c-2-2.13-10.47-12.22-10.47-12.22,2.12-3.25,16-34.51,16.49-35.82-3.38.56-74.64,2.91-80.64.28s-3.66-70.23-5.25-72.48S5.54,103.56.29,95.49c2.16-39.86,36.84-78.1,39.38-79.13S50.45,18.14,50.82,20c-1,2.62-19.78,51.66-18.09,54C41.54,73.09,123.6,71.17,131.24,75.54Z"/><path class="cls-7" d="M121.75,118.34c1.73,3.08,19.25,32.91,19.06,35.41s-2.51,19.78-5.22,27.35"/><path class="cls-7" d="M50,109.48a91.08,91.08,0,0,1,.91-17.28"/></g></g></svg>