<svg xmlns="http://www.w3.org/2000/svg" viewBox="0 0 448.96 205"><defs><style>.cls-1{fill:#1f161e;}.cls-2{fill:#f8cdba;}.cls-3{fill:#fadb93;}.cls-4{fill:#fa9e9f;}.cls-5,.cls-6{fill:none;stroke:#1f161e;stroke-linecap:round;}.cls-5{stroke-miterlimit:10;stroke-width:0.69px;}.cls-6{stroke-linejoin:round;}.cls-7{fill:#ab8fe2;}</style></defs><title>woman-lying-down</title><g id="Layer_2" data-name="Layer 2"><g id="vector"><path class="cls-1" d="M235.73,122.89s16.92-13.87,19-13.87,75.21,58.06,86.87,73.15c5.49-.68,18.75-4.57,18.75-4.57S277.11,62.83,267.05,62.83s-90.3,32.93-90.3,32.93l6.63,23.54Z"/><circle class="cls-2" cx="38.94" cy="46.39" r="15.38"/><path class="cls-3" d="M96,89.35c2.49,2.7,23.67,32.19,23.47,35.93s-20.15,57.31-21.81,59.39c2.29,2.28,11.63,7.89,13.92,7.89s58.56-70.19,58.56-75-34.81-60.28-54.89-61.7"/><path class="cls-1" d="M10.32,28.73c0-13.16,11.17-17.82,17.19-17.82,11.87,0,29.61,5.4,42.65,5.4C92.3,16.31,105.65,0,119.21,0c21.61,0,33.2,14.45,38.89,18.44,11.5,8.06,50.69,13.82,50.69,41.65,0,25.49-12.24,39.29-27.21,39.29S89.87,72.19,89.87,72.19s-24.6-9.6-26.26-11.69S51.44,53.3,52,37.22c-2.7-1.91-17.06,4.42-25.22-.28a17.81,17.81,0,0,0-3.18,8.64C21.62,45.65,10.32,42.47,10.32,28.73Z"/><path class="cls-3" d="M21.24,97.07c9-29.88,69.53-44.33,88.31-44s9.17,21.59,70.32,38.31c6.37,8,11.47,53.82,5.73,67.52H17.14S16.1,106.25,21.24,97.07Z"/><path class="cls-2" d="M67.92,66c2.08,2.61-6.81,9.59-8.84,7L44.42,54.58l8.85-7Z"/><path class="cls-1" d="M343.59,180.45c.41,1.42,2.44,9.89,4.05,10.94,2.92,1.9,20.23-4.39,20.82-5.46s.58-2.94-.3-3.22-8.32.33-9.46-.06-3.48-3.5-3.53-5.53"/><path class="cls-1" d="M435.41,143.66c1.48,0,10.16-.69,11.65.52,2.7,2.2,2,20.61,1.14,21.5s-2.63,1.45-3.17.69-2.21-8-2.93-9-4.39-2.24-6.34-1.67"/><ellipse class="cls-4" cx="25.37" cy="54.88" rx="3.32" ry="1.73" transform="translate(-25.24 21.8) rotate(-32.03)"/><ellipse class="cls-4" cx="43.05" cy="43.82" rx="3.32" ry="1.73" transform="translate(-16.69 29.5) rotate(-32.03)"/><path class="cls-5" d="M30.33,47.55c-.06,1.08-.79,5.92,2.86,5.41"/><path class="cls-5" d="M41.16,53.09c.83-.55,1.49-2.39,1.59-3.77"/><circle class="cls-2" cx="50.95" cy="37.28" r="4.04"/><path class="cls-3" d="M4.44,163.19C.84,158.47,0,147.36,0,139.63,2.58,114.76,9,93.1,22.19,70c1.6-2.47,7.74-1.68,8.88,0C34.84,85.47,42,135.12,20.68,163.6,15.38,163.6,8.9,163.19,4.44,163.19Z"/><circle class="cls-2" cx="27.16" cy="64.82" r="7.21"/><circle class="cls-2" cx="100.54" cy="194.14" r="10.87"/><path class="cls-6" d="M140.12,158.91c14.89-18.75,30-38.84,30-41.32,0-2.31-8.16-16.52-18.86-30.72"/><path class="cls-6" d="M96,89.35c2.49,2.7,23.67,32.19,23.47,35.93-.11,2-6,18.53-11.59,33.64"/><path class="cls-6" d="M35.29,106c.24,17.56-2.23,37.55-11.47,52.92"/><path class="cls-7" d="M186.48,116c4.58.12,250.17,26.41,250.17,26.41v14.1l-251,2.37"/></g></g></svg>