<svg xmlns="http://www.w3.org/2000/svg" viewBox="0 0 412.77 417.7"><defs><style>.cls-1{fill:#1f161e;}.cls-2{fill:#50b89d;}.cls-3{fill:#73e5e2;}.cls-4{fill:#f8cdba;}.cls-5{fill:none;stroke:#1f161e;stroke-linecap:round;stroke-miterlimit:10;}.cls-6{fill:#fa9e9f;}.cls-7{fill:#969696;}</style></defs><title>woman-sitting-laptop</title><g id="Layer_2" data-name="Layer 2"><g id="Woman"><path class="cls-1" d="M314.66,274.94c.84,5,15.1,119.31,17.41,121.2s26.84,6.08,28.94,2.93c.42-5,1-84.71,2.3-91.84"/><path class="cls-2" d="M38.76,251.09c-9.89-4.88,10.73,91.66,65,91.66s145.62-82.67,160.41-82.67c32.65,0,109.94,64.11,116,64.11,4.64-4.64,13.92-12.76,13.92-15.95s-74-125-129.37-125C243.25,183.22,61.09,262.12,38.76,251.09Z"/><path class="cls-1" d="M69.3,252.73c10.85-2.46,24.35-8.83,36.3-15.35C73.09,248,46.45,254.89,38.76,251.09c-5.24-2.58-1.92,23.26,10.4,48.15C46.93,294.42,43.75,258.52,69.3,252.73Z"/><path class="cls-3" d="M93.22,83.37c8.55.23,53.06-1.08,65.26,10.54,9.05,8.61,37.19,82.75,41.53,108.78-18.9,9.6-155.22,74.88-197.41,46.17C1.67,226.55,6,137.92,33.59,91.43,43.68,84.71,85,83.15,93.22,83.37Z"/><path class="cls-4" d="M110.56,62.15h-26V90.1c0,7,26,6.94,26,0Z"/><path class="cls-1" d="M84.56,79c0-3.1,8.59-10.89,13.9-10.62C98.59,65,86.33,60,86.33,60l-1.77,4.77Z"/><path class="cls-1" d="M137.79,62.15a38.91,38.91,0,0,0,.88-8.22c0-20.62-16.11-37.34-36-37.34s-36,16.72-36,37.34a38.91,38.91,0,0,0,.88,8.22Z"/><path class="cls-4" d="M128.3,37c-4.41-.67-8.81-4.14-11.88-6.41-17.5,12.82-28.71,13-29.92,13s-6.14,7.08-8.41,7.88l-.2-.12A27.3,27.3,0,1,0,130.36,37,8.36,8.36,0,0,1,128.3,37Z"/><circle class="cls-1" cx="83.17" cy="10.62" r="10.62"/><path class="cls-5" d="M87.9,43a4.47,4.47,0,0,0,0,8.93"/><path class="cls-5" d="M121.94,43.54c1.31,1.75,4.68,4.81,0,8.06"/><path class="cls-5" d="M107.75,54c0,1.31.56,4.44,3.37,5.25"/><ellipse class="cls-6" cx="99.04" cy="52.14" rx="4.12" ry="2.14"/><ellipse class="cls-6" cx="129.67" cy="52.14" rx="4.12" ry="2.14"/><path class="cls-4" d="M157.54,160.64l27.79-7.15C188,158,201,202.64,201,202.64L158.1,220.72C158.66,212.26,160.35,173.6,157.54,160.64Z"/><path class="cls-5" d="M60.1,153.65c0,3.36-2.83,16.15-4.5,22.16"/><path class="cls-5" d="M157.54,160.64c-.67-5.29-4.59-35.1-11.26-50.79"/><path class="cls-4" d="M157.54,160.64l27.79-7.15C188,158,201,202.64,201,202.64L158.1,220.72C158.66,212.26,160.35,173.6,157.54,160.64Z"/><path class="cls-1" d="M381,321.83c.62.95,8.9,11.15,11.83,11.27s20.72-11.94,19.94-14.53-11.94-.91-13.86-1.81-6.19-5.18-6.87-7.09"/><path class="cls-1" d="M337.25,397.2c-.21,1.11-1.34,14.2.69,16.32s23.2,5.8,24.43,3.39-8-8.94-8.71-10.92-.86-8,0-9.88"/><polygon class="cls-7" points="304.06 205.44 209.89 205.44 232.31 146.03 326.48 146.03 304.06 205.44"/><rect class="cls-7" x="131.42" y="203.2" width="94.17" height="2.24"/><path class="cls-4" d="M55.6,175.81c-1.81,6.79-10.64,35.75-7,40.73s93.24-6.34,117.23-13.8c6.11-2,10.64-7.25,13.35-7.92A14.31,14.31,0,0,1,195.32,205c-9.58,4.64-147.9,75.26-192.72,43.83C-5.87,242.8,9,168.8,9.67,165.06,17.24,166,55.6,175.81,55.6,175.81Z"/><path class="cls-5" d="M158.82,204.6c2.7-.64,5.06-1.26,7-1.86,6.11-2,10.64-7.25,13.35-7.92A14.31,14.31,0,0,1,195.32,205"/></g></g></svg>