<svg id="bike_vector" data-name="bike vector" xmlns="http://www.w3.org/2000/svg" viewBox="0 0 341 367"><defs><style>.cls-1,.cls-10,.cls-3{fill:none;}.cls-1{stroke:#d8d8d8;stroke-linejoin:round;}.cls-1,.cls-10{stroke-linecap:round;}.cls-1,.cls-3{stroke-width:4px;}.cls-2{fill:#d8d8d8;}.cls-3{stroke:#969696;}.cls-10,.cls-3{stroke-miterlimit:10;}.cls-4{fill:#1f161e;}.cls-5{fill:#969696;}.cls-6{fill:#f8cdba;}.cls-7{fill:#ab8de5;}.cls-8{fill:#2efff0;}.cls-9{fill:#fbdc8e;}.cls-10{stroke:#1f161e;stroke-width:0.55px;}</style></defs><title>Artboard 1</title><line class="cls-1" x1="69.73" y1="243.71" x2="131.36" y2="243.71"/><line class="cls-1" x1="69.73" y1="248.59" x2="130.12" y2="265.56"/><rect class="cls-2" x="94" y="169.74" width="30.5" height="8.06" rx="4.03" ry="4.03"/><line class="cls-1" x1="115.96" y1="198.15" x2="219.21" y2="198.46"/><circle class="cls-3" cx="243.28" cy="248.59" r="50.44"/><line class="cls-1" x1="243.28" y1="248.59" x2="208.72" y2="176.62"/><circle class="cls-2" cx="131.92" cy="254.3" r="13.44"/><circle class="cls-3" cx="69.73" cy="248.59" r="50.44"/><path class="cls-4" d="M114.11,259.81c-.36,1.24-3.41,8.84-2.18,10s17,6.32,18,5.81,1.82-1.9,1.3-2.53-6.3-3.68-7-4.51-.91-4.23,0-5.76"/><path class="cls-4" d="M130.67,206.38c-.79,1-6.32,7.06-5.58,8.58s13.69,11.94,14.75,11.79,2.38-1.13,2.11-1.9-4.59-5.68-4.92-6.69.65-4.28,2.05-5.38"/><path d="M243.28,94.11c0-12-15.69-22.77-29.49-22.77-14.64,0-24,7.74-39.91,7.74-13.52,0-29.33-14.25-46.58-14.25C105.15,64.83,98,86.48,98,94.77c0,20.87,19.21,24.77,23.71,24.77s66.85-5.07,69-5.07c1.17-14,20.45-12.34,21.63-16.58,1.46,1.72,11.62,9.68,14.46,9.68C239.94,107.57,243.28,98.45,243.28,94.11Z"/><rect class="cls-5" x="215.58" y="169.87" width="7.49" height="2.96" transform="translate(-49.99 101.11) rotate(-23.38)"/><path class="cls-6" d="M200.35,137.5c-.12.75-.93,12.11-.61,13.69l.31,1.58s9,15.58,9.71,16.73-3.43,3-3.43,3-15.78-16.58-16.89-18-5.88-15.78-5.8-17.43S200.35,137.5,200.35,137.5Z"/><path class="cls-4" d="M152.23,136.39c1.14,1,32.52,31.74,32.26,34.46s-42.9,40.35-47.82,41.49-.44-15,1.4-16.35a225.86,225.86,0,0,0,21.39-18.9c-3.1-1.58-35.71-18.72-40.55-20.74S152.23,136.39,152.23,136.39Z"/><path class="cls-7" d="M143.22,142.22c-10.59-6.58-17.91-19.94-19.68-29.65-9,7.64-14.88,17.58-14.88,29.64,0,21.52,9.16,52.91,12.3,61.66-.78,4.36-7.94,56.51-7.94,56.51l11.52,2.81s18.37-62.44,18.68-65.71C145.72,184,143,144,143.22,142.22Z"/><path class="cls-8" d="M251.39,112.58l0,0"/><path class="cls-8" d="M271.16,145.67v0Z"/><path class="cls-6" d="M203.46,172.27s.26-1.11-1.19-1.49-20.82-13.23-24-20.07c1.57-3.2,8.26-15.1,11.9-18.44s-13.68-21.34-13.68-21.34c-.89,1.78-16.81,34.2-13.83,45.58,2,6.84,29.22,19.25,36.14,22.6S203.46,172.27,203.46,172.27Z"/><path class="cls-9" d="M122.07,114c.51-.47,1-.94,1.58-1.4l0,0C123.09,113.07,122.57,113.53,122.07,114Z"/><path class="cls-9" d="M123.65,112.59h0Z"/><path class="cls-9" d="M177.87,94.11c-18.25,0-40.15,6.37-54.33,18.46,1.77,9.71,9,23.08,19.63,29.65,0,0,13.66-4.78,23.32-8.05.31-.89.55-2,.72-2.45,4.38,2.38,16.27,9,16.89,9.26.41-.77,1.08-1.85,1.69-2.79l0,.06c1.79.24,7.62,1.66,14.29.71.48-2.38,3.69-27.63,3.69-29.89S202.05,94.11,177.87,94.11Z"/><path class="cls-6" d="M210.63,99.33l-16.09,3.2c-2.15.41,0,12,2.29,11.55l16.1-3.2Z"/><path class="cls-10" d="M167.21,131.72c.87-2.11,5-13.91,7.53-16.87"/><path class="cls-10" d="M184.1,141c1.1-1.86,6.62-11,6.62-11"/><ellipse class="cls-6" cx="212.17" cy="173.56" rx="4.67" ry="5.86" transform="translate(-32.18 297.8) rotate(-66.24)"/><rect class="cls-5" x="205.57" y="173.77" width="7.49" height="2.96" rx="1.48" ry="1.48" transform="translate(-49.38 88.05) rotate(-21.31)"/><ellipse class="cls-6" cx="202.51" cy="176.29" rx="5.95" ry="7.58" transform="translate(-2.97 349.1) rotate(-81.1)"/><path class="cls-5" d="M190,178.69h12a1.48,1.48,0,0,1,1.48,1.48v0a1.48,1.48,0,0,1-1.48,1.48H190a0,0,0,0,1,0,0v-3A0,0,0,0,1,190,178.69Z" transform="translate(-52.03 83.81) rotate(-21.31)"/><circle class="cls-6" cx="215.97" cy="98.45" r="3.24"/><path class="cls-6" d="M218.78,96.89c-3.21.7-9.11,1.61-13.27.92A14.3,14.3,0,1,0,233.78,102C229.79,101.19,222.21,99,218.78,96.89Z"/><path class="cls-10" d="M229.7,105.7c-.14.82-.58,5.21-3.85,3.74"/><path class="cls-10" d="M220.1,109.74a2.3,2.3,0,0,1,.67-2.77"/><circle class="cls-2" cx="69.73" cy="248.59" r="6.98"/><circle class="cls-2" cx="243.28" cy="248.59" r="6.98"/><line class="cls-1" x1="131.92" y1="254.3" x2="219.21" y2="198.46"/><line class="cls-1" x1="69.73" y1="248.59" x2="115.96" y2="198.15"/><line class="cls-1" x1="115.96" y1="198.15" x2="110.86" y2="177.63"/></svg>