<svg xmlns="http://www.w3.org/2000/svg" viewBox="0 0 223.98 457.89"><defs><style>.cls-1{fill:#1f161e;}.cls-2{fill:#55b79d;}.cls-3{fill:#73e5e2;}.cls-4{fill:#f8cdba;}.cls-5{fill:#fa9e9f;}.cls-6,.cls-7,.cls-8{fill:none;stroke-linecap:round;}.cls-6,.cls-7{stroke:#1f161e;}.cls-6,.cls-8{stroke-miterlimit:10;}.cls-6{stroke-width:0.69px;}.cls-7{stroke-linejoin:round;}.cls-8{stroke:#000;stroke-width:3px;}</style></defs><title>woman-writing</title><g id="Layer_2" data-name="Layer 2"><g id="vector"><path class="cls-1" d="M211.66,443.89c.09,1.48,1,10.14-.15,11.67-2.11,2.77-20.54,2.63-21.45,1.83s-1.53-2.58-.79-3.14,7.95-2.48,8.89-3.22,2.1-4.47,1.47-6.4"/><path class="cls-1" d="M120.32,204.66c-3.14,7.12-29.51,84.69-28.9,96s61.63,127.85,65,129.08,17.37-3.07,18.5-6.13S153.66,351,153.05,333.19"/><path class="cls-2" d="M120.32,204.66c1.58,8.39,27.82,124.09,27.82,124.09l48.11,116.51c4,1.95,15.77,2.16,17.83,1.54s-7.83-112.19-11.74-128-14.2-125.57-14.2-125.57S134.24,194.12,120.32,204.66Z"/><path class="cls-3" d="M133.32,80.87c-7.94,3.71-58.57,28.62-62.92,28.62S19.77,83.34,17.05,81.58c-2.59,2.59-6.54,6.67-5.58,8S65.5,140.5,70,140.5s50.08-13.87,53.62-17.68"/><path class="cls-3" d="M150.5,75.46C105,68,115.84,199.67,120.32,204.66s65.85-7,69.84-11.72S182.43,76.71,150.5,75.46Z"/><path class="cls-1" d="M172.25,424.44c.54,1.37,4.06,9.34,3.41,11.15-1.17,3.28-18.75,8.76-19.86,8.27s-2.25-2-1.72-2.75,6.82-4.77,7.5-5.77.64-4.89-.56-6.54"/><path class="cls-4" d="M142.49,82.32c0,3.14,14,3.38,14,0v-21h-14Z"/><path d="M156.5,71.45c0-1.51-5.15-9.73-7.82-8.85,3.29-1.17,6.61-2.13,7.82-1.32Z"/><circle class="cls-4" cx="147.23" cy="45.17" r="18.19"/><ellipse class="cls-5" cx="128.84" cy="47.61" rx="3.04" ry="1.58"/><ellipse class="cls-5" cx="147.92" cy="47.61" rx="3.04" ry="1.58"/><path class="cls-6" d="M136.25,44.33c-.57.81-3.49,4.21-.41,5.59"/><path class="cls-6" d="M142,53.89A5.27,5.27,0,0,0,145,51.74"/><circle class="cls-4" cx="158.33" cy="46.03" r="4.01"/><path class="cls-1" d="M189.32,198.14c20.17-.55,34.66-14.67,34.66-51,0-15-24.94-60.16-29.89-77.22-2.56-8.81-.5-34.73-13.57-47.92-6.3-6.35-34-4.85-41.15-1.86s-6.31,12-5.58,13.41c1.71-1.44,5.46-4.36,6.13-4.27,3.51.43,13.09,11.21,16,16.16,2.36,4-1.28,28.84,3.33,35.94s20.93,3.37,20.93,3.37"/><path class="cls-3" d="M150.66,128.36c2.79,3.49,23.39,40.66,23.39,46.25s-6.11,45.21-7.33,47.13c2.79,2.09,10.12,7.85,10.12,7.85s22.34-39.45,22.34-61.61c0-7.86-17.8-71.74-34.91-86.4"/><path class="cls-7" d="M150.66,128.36c2.79,3.49,23.39,40.66,23.39,46.25,0,2.77-1.51,13.91-3.17,24.67"/><path class="cls-1" d="M157.41,75.4c-.85,7.38,20.68,33.13,29.07,40.67,8.38-10.56,3.35-36.72,3.35-36.72l-17.1-7.9Z"/><ellipse class="cls-1" cx="176.84" cy="10.42" rx="8.83" ry="10.42"/><path class="cls-7" d="M125.7,92.33c-4.14,9.09-6.7,21-8.16,33.62"/><ellipse class="cls-4" cx="8.51" cy="82.17" rx="8.51" ry="7.02"/><line class="cls-8" x1="13.35" y1="61.28" x2="3.08" y2="93.76"/></g></g></svg>