<svg xmlns="http://www.w3.org/2000/svg" viewBox="0 0 429.41 380.17"><defs><style>.cls-1,.cls-10,.cls-7,.cls-8,.cls-9{fill:none;}.cls-1{stroke:#d8d8d8;}.cls-1,.cls-10,.cls-7,.cls-8{stroke-linecap:round;}.cls-1,.cls-10{stroke-linejoin:round;}.cls-1,.cls-8,.cls-9{stroke-width:4px;}.cls-2{fill:#1f161e;}.cls-3{fill:#fadb93;}.cls-4{fill:#ab8fe2;}.cls-5{fill:#f8cdba;}.cls-6{fill:#fa9e9f;}.cls-10,.cls-7{stroke:#1f161e;}.cls-7,.cls-8,.cls-9{stroke-miterlimit:10;}.cls-7{stroke-width:0.69px;}.cls-8,.cls-9{stroke:#969696;}</style></defs><title>scooter</title><g id="Layer_2" data-name="Layer 2"><g id="vector"><line class="cls-1" x1="24.99" y1="336.77" x2="72.39" y2="107.94"/><path class="cls-2" d="M154.15,119.74c-4.73,4.55-15,20.55-19.83,20.55-13.4,0-54.42-25.1-57.23-32-.71-1.89,4.12-6.72,5.46-6.72s25.25,14.33,39.93,13c8-.72,13.3-16.65,21.94-25.9"/><path class="cls-2" d="M404.52,137.81c1-1.12,6.32-8,8.23-8.26,3.44-.52,16.56,12.4,16.66,13.62s-.7,2.92-1.62,2.81-7.42-3.77-8.63-3.89-4.61,1.74-5.5,3.57"/><path class="cls-2" d="M151.37,145.47c-4.19,3.84-47.52,86.4-47.52,97s34.78,90.07,37.69,91.77,11.5.34,13.69-2.05-11-87.68-11-87.68l64.4-66.18Z"/><path class="cls-3" d="M202.85,113.74c4.69,2.77,72.27,40.94,90.8,58.14,10.06-2.64,109.59-37.32,110.91-36.53s11.12,8.34,11.12,10.12S313.55,229.06,286,229.06c-10.06,0-106.67-56.53-134.6-83.59C148.58,130.32,189.87,106.06,202.85,113.74Z"/><path class="cls-4" d="M159.48,58.2c10.17-3.59,43.28,53,43.28,55.54S156,145.81,151.27,145.47,111.54,75.13,159.48,58.2Z"/><path class="cls-2" d="M127,37c-1.37-.12-5.92-5.79-3.49-18.47,2.94-3.85,12.68-5.07,13-.71S131.18,37.39,127,37Z"/><path class="cls-5" d="M147.4,71.88c.34,2.51,14.16.8,13.79-1.89l-2.3-16.76L145.1,55.12Z"/><path d="M160.26,63.24c-.2-1.49-4.32-6.16-6.83-4.94,3.09-1.59,4.16-5.71,5.46-5.07Z"/><circle class="cls-5" cx="144.19" cy="42.76" r="18.08"/><ellipse class="cls-6" cx="126.41" cy="47.65" rx="3.02" ry="1.57" transform="matrix(0.99, -0.14, 0.14, 0.99, -5.31, 17.64)"/><ellipse class="cls-6" cx="145.2" cy="45.07" rx="3.02" ry="1.57" transform="translate(-4.78 20.17) rotate(-7.82)"/><path class="cls-7" d="M133.26,43.42c-.45.87-2.86,4.62.36,5.55"/><path class="cls-7" d="M140.17,52.06c.9-.15,2.13-1.43,2.73-2.54"/><path class="cls-2" d="M150.76,3.8c23.93,0,41.11,3.93,52.3,3.93C220.29,7.73,233.89,0,253.21,0c8.8,0,31.33,7.48,31.33,32.8,0,14.35-8,42.85-42.27,42.85-29.34,0-34.45-12.41-46.35-12.41-12.54,0-35.86,5.91-39.79-10.08-.86-4.25-1.82-9.46-4.17-13.74-13.09-4.57-17.34-4.17-23.53-7.83C119.49,27.34,119.06,3.8,150.76,3.8Z"/><circle class="cls-5" cx="155.23" cy="42.11" r="3.98"/><path class="cls-2" d="M154.31,331.71c.32,1.44,2.6,9.84,1.69,11.54-1.65,3.06-19.86,5.84-20.88,5.18s-1.93-2.3-1.29-3,7.46-3.7,8.28-4.58,1.37-4.75.44-6.55"/><line class="cls-1" x1="45.18" y1="356.42" x2="231.08" y2="356.42"/><line class="cls-8" x1="70.99" y1="106.15" x2="84.52" y2="97.47"/><ellipse class="cls-5" cx="75.33" cy="103.04" rx="7.62" ry="4.34"/><ellipse class="cls-5" cx="69.4" cy="107.94" rx="7.62" ry="4.34"/><line class="cls-8" x1="56.5" y1="115.44" x2="66.71" y2="108.89"/><path class="cls-4" d="M159.21,120.93c-4.73,4.54-24.71,23.37-29.52,23.37-13.4,0-54.41-25.1-57.23-32-.71-1.89,4.12-6.72,5.46-6.72S108.5,121,123.18,119.64c8-.72,23.46-28.8,32.1-38.06"/><circle class="cls-9" cx="23.59" cy="356.57" r="21.59"/><circle class="cls-9" cx="252.67" cy="356.57" r="21.59"/><path class="cls-10" d="M135.13,108.35c3.62-4.74,7.73-10.74,11.24-15.76"/><path class="cls-10" d="M159.21,120.93c-2.37,2.27-8.54,8.11-14.73,13.39"/><path class="cls-2" d="M153.7,126.75c-1.35,1.23-8.32,11.13-6.29,14.14-2.59-4.77-3.31-6.25-3.31-6.25"/></g></g></svg>