<svg xmlns="http://www.w3.org/2000/svg" viewBox="0 0 341.96 228.59"><defs><style>.cls-1{fill:#1f161e;}.cls-2,.cls-7{fill:none;stroke-linecap:round;stroke-miterlimit:10;}.cls-2{stroke:#000;stroke-width:3px;}.cls-3{fill:#f8cdba;}.cls-4{fill:#55b79d;}.cls-5{fill:#73e5e2;}.cls-6{fill:#fa9e9f;}.cls-7{stroke:#1f161e;stroke-width:0.69px;}</style></defs><title>writing-on-ground</title><g id="Layer_2" data-name="Layer 2"><g id="Vector"><path class="cls-1" d="M316.13,179.25c1.37,0,9.44-.5,10.81.65,2.47,2.08,1.54,19.15.75,20s-2.46,1.31-2.95.6-1.94-7.48-2.59-8.39-8-2.44-9.83-1.94"/><line class="cls-2" x1="8.7" y1="173.9" x2="8.41" y2="216.07"/><path class="cls-3" d="M88.82,119.61c-1.46,2.74-.3,19-71.42,69.58A11.09,11.09,0,0,0,11.17,196s1.1,4,4.22,2.94,56.81-20.82,83.39-39.55c6.78-4.62,20.43-24.08,20.43-24.08Z"/><path class="cls-1" d="M130,115.91c2.06,3.55,16.63,34.52,16.63,37.68s-2.24,35.24-8.32,54.47c-2.29.31-10,1.56-10,6.17,0,1.27,2.75,5.39,9.18,5.38,2.07,0,9.66-2.37,11.24-4.9s19-53.52,19.32-59.85-1.11-28.34-3.17-32.46S130,115.91,130,115.91Z"/><path class="cls-1" d="M194.57,127.1c-6.89,7.05-18.76,78-14.8,86.39s14.8,7.23,14.8,7.23,122.36-18.24,123.91-20.14,1.89-20.82-1.9-23.4-60.23-5.62-70.56-3.24-28.05-42-28.05-42Z"/><path class="cls-1" d="M329.55,192.74c1.37,0,9.44-.5,10.81.65,2.47,2.08,1.54,19.15.75,20s-2.46,1.31-2.95.6-1.94-7.47-2.59-8.39-8-2.44-9.83-1.94"/><path class="cls-4" d="M115.55,52.63c-3.08.43-10.29,13.41-7.11,33.24-11,12.24-10.85,17.92-22,38.08,5.29,4,27.18,19,27.18,19s16.8-23.81,18.34-23.54c5.78,2.38,42.53,13.29,76.39,13.22,7.67,0,43.9-40.2,42.31-44.43S175.82,44.24,115.55,52.63Z"/><path class="cls-5" d="M246.21,87.08c2.59.8,34.53,15,34.13,33.73-.52,23.94-30.54,64.06-34.13,68.65,6.78.2,75.24-.6,83.82,1.6,2.79.6,1,12,0,13.57s-63.59,18.86-138.71,24c-4.59.31-5.78-6.39-6.58-9.78s11.54-67.19,25.94-91.6C212.32,124.42,246.21,87.08,246.21,87.08Z"/><ellipse class="cls-3" cx="11.02" cy="196.92" rx="11.02" ry="6.83"/><path class="cls-1" d="M71.44,37c-1.36-.12-5.91-5.79-3.48-18.47,2.94-3.85,12.67-5.07,13-.71S75.59,37.39,71.44,37Z"/><path class="cls-3" d="M110.11,69.49c2.88,1.54,9.65-10.63,6.54-12.28L97.3,46.9,90.75,59.19Z"/><path d="M108.86,53.05c-1.73-.91-9.28-1-9.52,1.84.21-3.59-3.53-7.42-2-8Z"/><circle class="cls-3" cx="88.59" cy="42.76" r="18.08"/><ellipse class="cls-6" cx="70.81" cy="47.65" rx="3.02" ry="1.57" transform="translate(-5.82 10.08) rotate(-7.82)"/><ellipse class="cls-6" cx="89.6" cy="45.07" rx="3.02" ry="1.57" transform="translate(-5.3 12.61) rotate(-7.82)"/><path class="cls-7" d="M77.66,43.42C77.22,44.29,74.8,48,78,49"/><path class="cls-7" d="M84.58,52.06c.89-.15,2.13-1.43,2.73-2.54"/><path class="cls-1" d="M95.17,3.8c23.92,0,41.1,3.93,52.3,3.93C164.7,7.73,178.3,0,197.61,0,206.42,0,229,7.48,229,32.8c0,14.35-8,42.85-42.27,42.85-29.34,0-34.46-12.41-46.35-12.41-12.54,0-35.86,5.91-39.8-10.08-.85-4.25-1.81-9.46-4.17-13.74C83.27,34.85,79,35.25,72.83,31.59,63.89,27.34,63.47,3.8,95.17,3.8Z"/><circle class="cls-3" cx="99.63" cy="42.11" r="3.98"/></g></g></svg>